0
SECTION
2
HEADER
9
$INSUNITS
70
4
9
$ACADVER
1
AC1014
9
$HANDSEED
5
FFFF
0
ENDSEC
0
SECTION
2
TABLES
0
TABLE
2
VPORT
5
8
100
AcDbSymbolTable
0
ENDTAB
0
TABLE
2
LTYPE
5
5
100
AcDbSymbolTable
0
LTYPE
5
14
100
AcDbSymbolTableRecord
100
AcDbLinetypeTableRecord
2
BYBLOCK
70
0
0
LTYPE
5
15
100
AcDbSymbolTableRecord
100
AcDbLinetypeTableRecord
2
BYLAYER
70
0
0
ENDTAB
0
TABLE
2
LAYER
5
2
100
AcDbSymbolTable
70
2
0
LAYER
5
50
100
AcDbSymbolTableRecord
100
AcDbLayerTableRecord
2
0
70
0
6
CONTINUOUS
0
ENDTAB
0
TABLE
2
STYLE
5
3
100
AcDbSymbolTable
70
1
0
STYLE
5
11
100
AcDbSymbolTableRecord
100
AcDbTextStyleTableRecord
2
STANDARD
70
0
0
ENDTAB
0
TABLE
2
VIEW
5
6
100
AcDbSymbolTable
70
0
0
ENDTAB
0
TABLE
2
UCS
5
7
100
AcDbSymbolTable
70
0
0
ENDTAB
0
TABLE
2
APPID
5
9
100
AcDbSymbolTable
70
2
0
APPID
5
12
100
AcDbSymbolTableRecord
100
AcDbRegAppTableRecord
2
ACAD
70
0
0
ENDTAB
0
TABLE
2
DIMSTYLE
5
A
100
AcDbSymbolTable
70
1
0
ENDTAB
0
TABLE
2
BLOCK_RECORD
5
1
100
AcDbSymbolTable
70
1
0
BLOCK_RECORD
5
1F
100
AcDbSymbolTableRecord
100
AcDbBlockTableRecord
2
*MODEL_SPACE
0
BLOCK_RECORD
5
1B
100
AcDbSymbolTableRecord
100
AcDbBlockTableRecord
2
*PAPER_SPACE
0
ENDTAB
0
ENDSEC
0
SECTION
2
BLOCKS
0
BLOCK
5
20
100
AcDbEntity
100
AcDbBlockBegin
2
*MODEL_SPACE
0
ENDBLK
5
21
100
AcDbEntity
100
AcDbBlockEnd
0
BLOCK
5
1C
100
AcDbEntity
100
AcDbBlockBegin
2
*PAPER_SPACE
0
ENDBLK
5
1D
100
AcDbEntity
100
AcDbBlockEnd
0
ENDSEC
0
SECTION
2
ENTITIES
0
LWPOLYLINE
5
100
100
AcDbEntity
8
0
100
AcDbPolyline
90
88
70
1
43
0.0
10
238.6403229324435
20
-163.08937399999991
10
238.57087293244362
20
-162.950524
10
238.57087293244362
20
-162.81162399999994
10
238.6403229324435
20
-162.60327399999991
10
238.6403229324435
20
-161.83937399999991
10
238.57087293244362
20
-161.35327399999991
10
238.36257293244358
20
-160.86717399999992
10
238.15422293244359
20
-160.51992399999992
10
237.87647293244362
20
-160.10327399999991
10
237.1820229324436
20
-159.5477239999999
10
237.11257293244358
20
-159.5477239999999
10
236.97367293244358
20
-159.47827399999991
10
236.27922293244359
20
-159.20052399999992
10
235.79312293244359
20
-158.99217399999992
10
235.23757293244358
20
-158.7838239999999
10
233.98757293244358
20
-158.22827399999991
10
233.29312293244359
20
-157.95052399999992
10
231.7653229324435
20
-157.39492399999992
10
231.07087293244362
20
-157.0477239999999
10
229.54312293244359
20
-156.49217399999992
10
228.15422293244359
20
-155.93662399999994
10
227.52922293244359
20
-155.72827399999991
10
226.97367293244352
20
-155.519924
10
226.48757293244358
20
-155.31162399999994
10
225.79312293244359
20
-155.0338239999999
10
225.58477293244357
20
-154.96437399999991
10
225.44587293244362
20
-154.96437399999991
10
225.37647293244362
20
-155.0338239999999
10
224.19587293244362
20
-157.39492399999992
10
223.98757293244358
20
-157.8810739999999
10
223.77922293244359
20
-158.22827399999991
10
223.70977293244357
20
-158.43662399999994
10
223.70977293244357
20
-158.57552399999992
10
223.84867293244352
20
-158.71437399999991
10
224.0570229324436
20
-158.85327399999991
10
224.33477293244357
20
-159.06162399999994
10
224.75147293244362
20
-159.33937399999991
10
225.3070229324436
20
-159.61717399999992
10
225.9320229324436
20
-160.0338239999999
10
228.15422293244359
20
-161.2838239999999
10
228.36257293244358
20
-161.0060739999999
10
229.0570229324436
20
-160.45052399999992
10
229.89032293244361
20
-160.0338239999999
10
230.02922293244359
20
-160.0338239999999
10
230.51532293244361
20
-159.96437399999991
10
231.48757293244358
20
-159.96437399999991
10
231.97367293244358
20
-160.0338239999999
10
232.45977293244357
20
-160.24217399999992
10
233.01532293244361
20
-160.58937399999991
10
233.50147293244362
20
-161.0060739999999
10
233.91812293244359
20
-161.49217399999992
10
234.26532293244361
20
-162.11717399999992
10
234.47367293244358
20
-162.74217399999992
10
234.47367293244358
20
-163.85327399999991
10
234.40422293244359
20
-164.33937399999991
10
234.26532293244361
20
-164.7560739999999
10
234.26532293244361
20
-164.82552399999992
10
234.40422293244359
20
-164.894924
10
234.61257293244358
20
-164.96437399999991
10
234.95977293244357
20
-165.10327399999991
10
235.37647293244362
20
-165.17272399999993
10
235.86257293244358
20
-165.17272399999993
10
236.5570229324436
20
-165.0338239999999
10
236.97367293244358
20
-164.894924
10
237.39032293244361
20
-164.61717399999992
10
237.73757293244358
20
-164.33937399999991
10
237.87647293244362
20
-164.200524
10
238.0153229324435
20
-164.1310739999999
10
238.08477293244357
20
-164.06162399999994
10
238.22367293244358
20
-164.1310739999999
10
238.36257293244358
20
-164.1310739999999
10
238.50147293244362
20
-164.06162399999994
10
239.54312293244359
20
-164.06162399999994
10
239.82087293244362
20
-163.92272399999993
10
239.95977293244357
20
-163.7838239999999
10
240.23757293244358
20
-163.22827399999991
10
240.23757293244358
20
-162.60327399999991
10
239.82087293244362
20
-162.60327399999991
10
239.82087293244362
20
-162.74217399999992
10
239.75147293244362
20
-162.950524
10
239.75147293244362
20
-163.1588239999999
10
239.61257293244358
20
-163.43662399999994
10
239.47367293244352
20
-163.57552399999992
10
239.26532293244361
20
-163.64492399999992
10
239.26532293244361
20
-163.57552399999992
10
238.98757293244358
20
-163.57552399999992
10
238.84867293244352
20
-163.5060739999999
10
238.84867293244352
20
-163.29772399999993
0
LWPOLYLINE
5
101
100
AcDbEntity
8
0
100
AcDbPolyline
90
8
70
1
43
0.0
10
196.99480893244359
20
-154.78295299999991
10
209.99480893244362
20
-154.78295299999999
42
-0.41421356237304302
10
210.49480893244362
20
-155.28295299999991
10
210.49480893244365
20
-168.28295300000002
42
-0.41421356237303258
10
209.99480893244362
20
-168.78295299999991
10
196.99480893244359
20
-168.78295299999991
42
-0.41421356237303258
10
196.4948089324435
20
-168.28295300000002
10
196.49480893244356
20
-155.28295299999991
42
-0.41421356237313667
0
LINE
5
102
100
AcDbEntity
8
0
100
AcDbLine
10
209.90357993244351
20
-170.28295299999994
30
0
11
197.08603789761352
21
-170.282953071355
31
0
0
LINE
5
103
100
AcDbEntity
8
0
100
AcDbLine
10
173.4881449324435
20
-162.18662399999994
30
0
11
173.76594493244352
21
-161.70052399999992
31
0
0
LINE
5
104
100
AcDbEntity
8
0
100
AcDbLine
10
173.2798449324435
20
-162.74217399999992
30
0
11
173.4881449324435
21
-162.18662399999994
31
0
0
LINE
5
105
100
AcDbEntity
8
0
100
AcDbLine
10
175.9187449324435
20
-166.2838239999999
30
0
11
175.2937449324435
21
-166.144924
31
0
0
LINE
5
106
100
AcDbEntity
8
0
100
AcDbLine
10
173.9048449324435
20
-165.24217399999992
30
0
11
173.55759493244349
21
-164.7560739999999
31
0
0
LINE
5
107
100
AcDbEntity
8
0
100
AcDbLine
10
233.4320229324436
20
-164.7560739999999
30
0
11
233.08477293244357
21
-165.24217399999992
31
0
0
ARC
5
108
100
AcDbEntity
8
0
100
AcDbCircle
10
197.08603793244362
20
-169.28295299999991
30
0
40
0.50000014276496485
210
0
220
0
230
1
100
AcDbArc
50
249.31941155888111
51
269.99999201869537
0
LINE
5
109
100
AcDbEntity
8
0
100
AcDbLine
10
175.5714949324435
20
-160.6588239999999
30
0
11
176.12704493244351
21
-160.6588239999999
31
0
0
LINE
5
110
100
AcDbEntity
8
0
100
AcDbLine
10
174.3214949324435
20
-165.6588239999999
30
0
11
173.9048449324435
21
-165.24217399999992
31
0
0
LINE
5
111
100
AcDbEntity
8
0
100
AcDbLine
10
228.29312293244359
20
-164.4088239999999
30
0
11
228.29312293244359
21
-164.200524
31
0
0
LINE
5
112
100
AcDbEntity
8
0
100
AcDbLine
10
175.22429493244351
20
-160.72827399999991
30
0
11
175.5714949324435
21
-160.6588239999999
31
0
0
LINE
5
113
100
AcDbEntity
8
0
100
AcDbLine
10
173.21039493244353
20
-163.85327399999991
30
0
11
173.21039493244353
21
-163.29772399999993
31
0
0
LINE
5
114
100
AcDbEntity
8
0
100
AcDbLine
10
174.6687449324435
20
-160.93662399999994
30
0
11
175.22429493244351
21
-160.72827399999991
31
0
0
LINE
5
115
100
AcDbEntity
8
0
100
AcDbLine
10
228.4320229324436
20
-162.2560739999999
30
0
11
228.70977293244357
21
-161.83937399999991
31
0
0
ARC
5
116
100
AcDbEntity
8
0
100
AcDbCircle
10
197.08603786279352
20
-169.78295314276491
30
0
40
0.49999998460180117
210
0
220
0
230
1
100
AcDbArc
50
249.31941324835893
51
270.00000399007871
0
LINE
5
117
100
AcDbEntity
8
0
100
AcDbLine
10
178.55759493244349
20
-164.61717399999992
30
0
11
178.34929493244351
21
-165.0338239999999
31
0
0
LINE
5
118
100
AcDbEntity
8
0
100
AcDbLine
10
196.90945893244356
20
-170.25073499999993
30
0
11
179.42619393244354
21
-163.65113099999991
31
0
0
LINE
5
119
100
AcDbEntity
8
0
100
AcDbLine
10
229.0570229324436
20
-161.35327399999991
30
0
11
229.54312293244359
21
-161.0060739999999
31
0
0
LINE
5
120
100
AcDbEntity
8
0
100
AcDbLine
10
173.76594493244352
20
-161.70052399999992
30
0
11
174.18259493244361
21
-161.2838239999999
31
0
0
LINE
5
121
100
AcDbEntity
8
0
100
AcDbLine
10
228.36257293244358
20
-162.46437399999991
30
0
11
228.4320229324436
21
-162.2560739999999
31
0
0
LINE
5
122
100
AcDbEntity
8
0
100
AcDbLine
10
177.93259493244349
20
-161.35327399999991
30
0
11
178.2798449324435
21
-161.83937399999991
31
0
0
ARC
5
123
100
AcDbEntity
8
0
100
AcDbCircle
10
227.81676593244353
20
-162.52106199999992
30
0
40
0.50000014276503135
210
0
220
0
230
1
100
AcDbArc
50
290.68058844111357
51
324.47034009789877
0
LINE
5
124
100
AcDbEntity
8
0
100
AcDbLine
10
178.62704493244351
20
-162.46437399999991
30
0
11
178.6964949324435
21
-162.60327399999991
31
0
0
LINE
5
125
100
AcDbEntity
8
0
100
AcDbLine
10
231.07087293244362
20
-166.2838239999999
30
0
11
230.51532293244361
21
-166.21437399999991
31
0
0
LINE
5
126
100
AcDbEntity
8
0
100
AcDbLine
10
230.51532293244361
20
-166.21437399999991
30
0
11
230.09867293244352
21
-166.075524
31
0
0
LINE
5
127
100
AcDbEntity
8
0
100
AcDbLine
10
228.29312293244359
20
-162.60327399999991
30
0
11
228.36257293244358
21
-162.46437399999991
31
0
0
LINE
5
128
100
AcDbEntity
8
0
100
AcDbLine
10
173.2798449324435
20
-164.200524
30
0
11
173.21039493244353
21
-163.85327399999991
31
0
0
ARC
5
129
100
AcDbEntity
8
0
100
AcDbCircle
10
227.74000293244359
20
-164.11891300000002
30
0
40
0.49999944302068688
210
0
220
-0
230
1
100
AcDbArc
50
14.683434930560386
51
110.68063269841653
0
LINE
5
130
100
AcDbEntity
8
0
100
AcDbLine
10
176.47429493244351
20
-166.21437399999991
30
0
11
175.9187449324435
21
-166.2838239999999
31
0
0
LINE
5
131
100
AcDbEntity
8
0
100
AcDbLine
10
177.2381449324435
20
-160.86717399999992
30
0
11
177.4464949324435
21
-161.0060739999999
31
0
0
LINE
5
132
100
AcDbEntity
8
0
100
AcDbLine
10
233.77922293244359
20
-163.85327399999991
30
0
11
233.70977293244357
21
-164.200524
31
0
0
ARC
5
133
100
AcDbEntity
8
0
100
AcDbCircle
10
179.17285193244351
20
-162.52106199999992
30
0
40
0.49999958249286347
210
0
220
0
230
1
100
AcDbArc
50
215.52967186537271
51
249.31942351207971
0
LINE
5
134
100
AcDbEntity
8
0
100
AcDbLine
10
229.75147293244362
20
-160.86717399999992
30
0
11
230.3070229324436
21
-160.72827399999991
31
0
0
LINE
5
135
100
AcDbEntity
8
0
100
AcDbLine
10
178.6964949324435
20
-162.60327399999991
30
0
11
178.76594493244346
21
-162.81162399999997
31
0
0
LINE
5
136
100
AcDbEntity
8
0
100
AcDbLine
10
178.55759493244349
20
-162.2560739999999
30
0
11
178.62704493244351
21
-162.46437399999991
31
0
0
ARC
5
137
100
AcDbEntity
8
0
100
AcDbCircle
10
209.90357993244351
20
-169.28295299999991
30
0
40
0.49999999999997158
210
0
220
0
230
1
100
AcDbArc
50
270
51
290.68058046116414
0
LINE
5
138
100
AcDbEntity
8
0
100
AcDbLine
10
175.2937449324435
20
-166.144924
30
0
11
174.80759493244349
21
-166.0060739999999
31
0
0
LINE
5
139
100
AcDbEntity
8
0
100
AcDbLine
10
178.2798449324435
20
-161.83937399999991
30
0
11
178.55759493244349
21
-162.2560739999999
31
0
0
LINE
5
140
100
AcDbEntity
8
0
100
AcDbLine
10
230.86257293244358
20
-160.6588239999999
30
0
11
231.41812293244359
21
-160.6588239999999
31
0
0
LINE
5
141
100
AcDbEntity
8
0
100
AcDbLine
10
233.08477293244357
20
-165.24217399999992
30
0
11
232.66812293244359
21
-165.6588239999999
31
0
0
LINE
5
142
100
AcDbEntity
8
0
100
AcDbLine
10
230.09867293244352
20
-166.075524
30
0
11
229.54312293244359
21
-165.86717399999992
31
0
0
LINE
5
143
100
AcDbEntity
8
0
100
AcDbLine
10
173.21039493244353
20
-163.29772399999993
30
0
11
173.2798449324435
21
-162.74217399999992
31
0
0
LINE
5
144
100
AcDbEntity
8
0
100
AcDbLine
10
232.66812293244359
20
-165.6588239999999
30
0
11
232.1820229324436
21
-166.0060739999999
31
0
0
LINE
5
145
100
AcDbEntity
8
0
100
AcDbLine
10
228.4320229324436
20
-164.61717399999992
30
0
11
228.29312293244359
21
-164.4088239999999
31
0
0
LINE
5
146
100
AcDbEntity
8
0
100
AcDbLine
10
229.54312293244359
20
-165.86717399999992
30
0
11
229.0570229324436
21
-165.45052399999992
31
0
0
LINE
5
147
100
AcDbEntity
8
0
100
AcDbLine
10
178.99627322789786
20
-162.98884351266796
30
0
11
196.90945893244361
21
-169.75073499999991
31
0
0
ARC
5
148
100
AcDbEntity
8
0
100
AcDbCircle
10
179.24961493244359
20
-164.11891300000002
30
0
40
0.50000014276501881
210
0
220
-0
230
1
100
AcDbArc
50
69.319411558891815
51
165.31660932322916
0
LINE
5
149
100
AcDbEntity
8
0
100
AcDbLine
10
231.69587293244362
20
-166.144924
30
0
11
231.07087293244362
21
-166.2838239999999
31
0
0
LINE
5
150
100
AcDbEntity
8
0
100
AcDbLine
10
210.0801588168739
20
-169.75073489102743
30
0
11
227.99334493244351
21
-162.98884399999997
31
0
0
LINE
5
151
100
AcDbEntity
8
0
100
AcDbLine
10
174.80759493244349
20
-166.0060739999999
30
0
11
174.3214949324435
21
-165.6588239999999
31
0
0
LINE
5
152
100
AcDbEntity
8
0
100
AcDbLine
10
178.6964949324435
20
-164.200524
30
0
11
178.6964949324435
21
-164.4088239999999
31
0
0
LINE
5
153
100
AcDbEntity
8
0
100
AcDbLine
10
176.68259493244349
20
-160.72827399999991
30
0
11
177.2381449324435
21
-160.86717399999992
31
0
0
LINE
5
154
100
AcDbEntity
8
0
100
AcDbLine
10
233.50147293244362
20
-162.18662399999994
30
0
11
233.70977293244357
21
-162.74217399999992
31
0
0
LINE
5
155
100
AcDbEntity
8
0
100
AcDbLine
10
233.77922293244359
20
-163.29772399999993
30
0
11
233.77922293244359
21
-163.85327399999991
31
0
0
LINE
5
156
100
AcDbEntity
8
0
100
AcDbLine
10
228.6403229324435
20
-165.0338239999999
30
0
11
228.4320229324436
21
-164.61717399999992
31
0
0
LINE
5
157
100
AcDbEntity
8
0
100
AcDbLine
10
174.18259493244361
20
-161.2838239999999
30
0
11
174.6687449324435
21
-160.93662399999994
31
0
0
LINE
5
158
100
AcDbEntity
8
0
100
AcDbLine
10
229.54312293244359
20
-161.0060739999999
30
0
11
229.75147293244362
21
-160.86717399999992
31
0
0
ARC
5
159
100
AcDbEntity
8
0
100
AcDbCircle
10
209.90357993244351
20
-169.78295299999991
30
0
40
0.50000000000004263
210
0
220
0
230
1
100
AcDbArc
50
270
51
290.68058445114207
0
LINE
5
160
100
AcDbEntity
8
0
100
AcDbLine
10
178.76594415766223
20
-163.99217419620484
30
0
11
178.6964949324435
21
-164.200524
31
0
0
LINE
5
161
100
AcDbEntity
8
0
100
AcDbLine
10
231.41812293244359
20
-160.6588239999999
30
0
11
231.7653229324435
21
-160.72827399999991
31
0
0
LINE
5
162
100
AcDbEntity
8
0
100
AcDbLine
10
228.22367344907025
20
-162.81162424062617
30
0
11
228.29312293244359
21
-162.60327399999991
31
0
0
LINE
5
163
100
AcDbEntity
8
0
100
AcDbLine
10
233.70977293244357
20
-164.200524
30
0
11
233.4320229324436
21
-164.7560739999999
31
0
0
LINE
5
164
100
AcDbEntity
8
0
100
AcDbLine
10
232.1820229324436
20
-166.0060739999999
30
0
11
231.69587293244362
21
-166.144924
31
0
0
LINE
5
165
100
AcDbEntity
8
0
100
AcDbLine
10
228.29312293244359
20
-164.200524
30
0
11
228.22367293244358
21
-163.99217399999998
31
0
0
LINE
5
166
100
AcDbEntity
8
0
100
AcDbLine
10
229.0570229324436
20
-165.45052399999992
30
0
11
228.6403229324435
21
-165.0338239999999
31
0
0
LINE
5
167
100
AcDbEntity
8
0
100
AcDbLine
10
227.56342381823291
20
-163.65113179105123
30
0
11
210.08015887465092
21
-170.25073494549272
31
0
0
LWPOLYLINE
5
168
100
AcDbEntity
8
0
100
AcDbPolyline
90
44
70
1
43
0.0
10
72.500615431323055
20
-169.30807700000003
10
72.500615431323055
20
-78.057952999999813
42
-0.41421356237308854
10
74.500615431323041
20
-76.057952999999813
10
114.674104
20
-76.057952999999813
42
0.41094929877285064
10
116.65178949365
20
-74.058077024889982
10
116.65178900000001
20
-73.958076999999989
42
-0.99999999999999989
10
123.65178900000001
20
-73.958077000000003
10
123.65178900000002
20
-74.058076999999983
42
0.41094929877147351
10
125.62947398061
20
-76.05795250609998
10
209.924104
20
-76.057952999999813
42
0.41094929877286235
10
211.90178949365009
20
-74.058077024889982
10
211.90178900000001
20
-73.958077000000074
42
-0.99999999999999989
10
218.90178900000009
20
-73.958077000000031
10
218.90178900000001
20
-74.058076999999983
42
0.41094929877148001
10
220.87947398061004
20
-76.05795250609998
10
305.17410400000006
20
-76.057952999999841
42
0.41094929877285585
10
307.15178949365003
20
-74.058077024889982
10
307.15178900000012
20
-73.958077000000003
42
-0.99999999999999989
10
314.15178900000012
20
-73.958076999999932
10
314.15178900000012
20
-74.058076999999983
42
0.41094929877146691
10
316.12947398060999
20
-76.05795250609998
10
356.27678900000001
20
-76.05795250609998
42
-0.41421356237306511
10
358.27678900000001
20
-78.057952506099952
10
358.27678900000001
20
-169.30807700000003
42
-0.41421356237307422
10
356.27678900000001
20
-171.30807700000005
10
316.15178900000001
20
-171.30807699999997
42
0.41421356237312101
10
314.15178899999989
20
-173.30807700000003
10
314.15178900000006
20
-173.40807699999999
42
-0.99999999999999989
10
307.15178900000001
20
-173.40807699999996
10
307.15178900000001
20
-173.30807700000003
42
0.41421356237310542
10
305.15178900000001
20
-171.30807700000003
10
220.90178900000001
20
-171.30807700000003
42
0.41421356237309503
10
218.90178900000001
20
-173.30807700000003
10
218.90178900000001
20
-173.40807700000002
42
-0.99999999999999989
10
211.90178900000006
20
-173.40807699999996
10
211.90178900000006
20
-173.30807700000003
42
0.41421356237313145
10
209.90178900000004
20
-171.30807700000003
10
125.65178899999999
20
-171.30807700000003
42
0.41421356237309503
10
123.65178900000001
20
-173.30807700000008
10
123.65178900000001
20
-173.40807699999999
42
-0.99999999999999989
10
116.65178900000001
20
-173.40807699999999
10
116.65178900000002
20
-173.30807700000003
42
0.41421356237307944
10
114.65178899999999
20
-171.30807700000003
10
74.500615431323041
20
-171.30807699999997
42
-0.41421356237309631
0
LINE
5
169
100
AcDbEntity
8
0
100
AcDbLine
10
352.28353900000013
20
-132.182953
30
0
11
352.28353900000002
21
-118.18295300000001
31
0
0
LINE
5
170
100
AcDbEntity
8
0
100
AcDbLine
10
232.8070229324436
20
-161.2838239999999
30
0
11
233.22367293244352
21
-161.70052399999992
31
0
0
LINE
5
171
100
AcDbEntity
8
0
100
AcDbLine
10
173.55759493244349
20
-164.7560739999999
30
0
11
173.2798449324435
21
-164.200524
31
0
0
LINE
5
172
100
AcDbEntity
8
0
100
AcDbLine
10
345.28353900000008
20
-118.18295300000001
30
0
11
345.28353900000013
21
-132.182953
31
0
0
ARC
5
173
100
AcDbEntity
8
0
100
AcDbCircle
10
345.78353900000019
20
-132.18295299999991
30
0
40
0.50000000000004263
210
0
220
0
230
1
100
AcDbArc
50
180
51
359.99998241972463
0
LINE
5
174
100
AcDbEntity
8
0
100
AcDbLine
10
233.70977293244357
20
-162.74217399999992
30
0
11
233.77922293244359
21
-163.29772399999993
31
0
0
LINE
5
175
100
AcDbEntity
8
0
100
AcDbLine
10
151.751789
20
-92.582953000000003
30
0
11
164.751789
21
-92.582953000000003
31
0
0
LINE
5
176
100
AcDbEntity
8
0
100
AcDbLine
10
72.500001080334187
20
-171.30807700000003
30
0
11
73.52678899999998
21
-171.30807700000003
31
0
0
LINE
5
177
100
AcDbEntity
8
0
100
AcDbLine
10
228.70977293244357
20
-161.83937399999991
30
0
11
229.0570229324436
21
-161.35327399999991
31
0
0
LINE
5
178
100
AcDbEntity
8
0
100
AcDbLine
10
197.08603786279357
20
-169.78295314276488
30
0
11
209.90357993244351
21
-169.78295299999988
31
0
0
LINE
5
179
100
AcDbEntity
8
0
100
AcDbLine
10
176.89094493244352
20
-166.075524
30
0
11
176.47429493244351
21
-166.21437399999991
31
0
0
LINE
5
180
100
AcDbEntity
8
0
100
AcDbLine
10
232.32087293244362
20
-160.93662399999994
30
0
11
232.8070229324436
21
-161.2838239999999
31
0
0
ARC
5
181
100
AcDbEntity
8
0
100
AcDbCircle
10
343.34553899999992
20
-117.18295300000008
30
0
40
0.49999999999997158
210
0
220
-0
230
1
100
AcDbArc
50
0
51
180.00001983990668
0
ARC
5
182
100
AcDbEntity
8
0
100
AcDbCircle
10
351.78353900000013
20
-118.18295300000003
30
0
40
0.49999999999990052
210
0
220
-0
230
1
100
AcDbArc
50
0
51
180.00001983990668
0
LINE
5
183
100
AcDbEntity
8
0
100
AcDbLine
10
343.84553900000014
20
-130.182953
30
0
11
343.84553899999986
21
-117.18295300000001
31
0
0
LINE
5
184
100
AcDbEntity
8
0
100
AcDbLine
10
165.251789
20
-92.082953000000018
30
0
11
165.251789
21
-79.082953000000003
31
0
0
LINE
5
185
100
AcDbEntity
8
0
100
AcDbLine
10
176.12704493244351
20
-160.6588239999999
30
0
11
176.68259493244349
21
-160.72827399999991
31
0
0
LINE
5
186
100
AcDbEntity
8
0
100
AcDbLine
10
226.66428900000002
20
-135.73295300000001
30
0
11
213.66428900000002
21
-135.73295300000001
31
0
0
ARC
5
187
100
AcDbEntity
8
0
100
AcDbCircle
10
151.751789
20
-92.082953000000018
30
0
40
0.49999999999998934
210
0
220
0
230
1
100
AcDbArc
50
180
51
270
0
LINE
5
188
100
AcDbEntity
8
0
100
AcDbLine
10
233.22367293244352
20
-161.70052399999992
30
0
11
233.50147293244362
21
-162.18662399999994
31
0
0
LINE
5
189
100
AcDbEntity
8
0
100
AcDbLine
10
76.214288999999965
20
-111.13295300000001
30
0
11
76.214288999999965
21
-98.132953000000001
31
0
0
LINE
5
190
100
AcDbEntity
8
0
100
AcDbLine
10
227.16428900000005
20
-149.23295300000001
30
0
11
227.16428900000005
21
-136.23295300000001
31
0
0
ARC
5
191
100
AcDbEntity
8
0
100
AcDbCircle
10
94.601789000000011
20
-92.082953000000018
30
0
40
0.50000000000000711
210
0
220
0
230
1
100
AcDbArc
50
180
51
359.99998241972463
0
LINE
5
192
100
AcDbEntity
8
0
100
AcDbLine
10
231.7653229324435
20
-160.72827399999991
30
0
11
232.32087293244362
21
-160.93662399999994
31
0
0
LINE
5
193
100
AcDbEntity
8
0
100
AcDbLine
10
177.4464949324435
20
-165.86717399999992
30
0
11
176.89094493244352
21
-166.075524
31
0
0
LINE
5
194
100
AcDbEntity
8
0
100
AcDbLine
10
177.93259493244349
20
-165.45052399999992
30
0
11
177.4464949324435
21
-165.86717399999992
31
0
0
LINE
5
195
100
AcDbEntity
8
0
100
AcDbLine
10
178.34929493244351
20
-165.0338239999999
30
0
11
177.93259493244349
21
-165.45052399999992
31
0
0
ARC
5
196
100
AcDbEntity
8
0
100
AcDbCircle
10
107.601789
20
-79.082952999999975
30
0
40
0.50000000000000711
210
-0
220
0
230
1
100
AcDbArc
50
0
51
180.00000209130977
0
ARC
5
197
100
AcDbEntity
8
0
100
AcDbCircle
10
307.62678899999986
20
-98.132952999999986
30
0
40
0.50000000000000711
210
-0
220
0
230
1
100
AcDbArc
50
0
51
180.00000209130977
0
ARC
5
198
100
AcDbEntity
8
0
100
AcDbCircle
10
169.51428899999999
20
-136.23295300000007
30
0
40
0.50000000000000711
210
0
220
-0
230
1
100
AcDbArc
50
0
51
180.00001983990668
0
ARC
5
199
100
AcDbEntity
8
0
100
AcDbCircle
10
101.29553899999999
20
-117.182953
30
0
40
0.50000000000002487
210
-0
220
0
230
1
100
AcDbArc
50
0
51
180.00000209130977
0
LINE
5
200
100
AcDbEntity
8
0
100
AcDbLine
10
169.51428899999999
20
-135.73295300000001
30
0
11
156.51428899999999
21
-135.73295300000001
31
0
0
LINE
5
201
100
AcDbEntity
8
0
100
AcDbLine
10
343.34553900000003
20
-116.682953
30
0
11
330.34553900000003
21
-116.682953
31
0
0
ARC
5
202
100
AcDbEntity
8
0
100
AcDbCircle
10
164.75178900000003
20
-79.082952999999975
30
0
40
0.49999999999997158
210
-0
220
0
230
1
100
AcDbArc
50
0
51
180.00000209130977
0
LINE
5
203
100
AcDbEntity
8
0
100
AcDbLine
10
177.4464949324435
20
-161.0060739999999
30
0
11
177.93259493244349
21
-161.35327399999991
31
0
0
LINE
5
204
100
AcDbEntity
8
0
100
AcDbLine
10
312.38928900000013
20
-116.682953
30
0
11
299.38928900000002
21
-116.682953
31
0
0
LINE
5
205
100
AcDbEntity
8
0
100
AcDbLine
10
231.92678900000004
20
-111.13295300000001
30
0
11
231.92678900000004
21
-98.132953000000001
31
0
0
ARC
5
206
100
AcDbEntity
8
0
100
AcDbCircle
10
100.29553899999998
20
-130.18295300000003
30
0
40
0.49999999999997158
210
0
220
0
230
1
100
AcDbArc
50
180
51
270.00000000000489
0
ARC
5
207
100
AcDbEntity
8
0
100
AcDbCircle
10
75.714288999999965
20
-98.132953000000001
30
0
40
0.50000000000000711
210
0
220
0
230
1
100
AcDbArc
50
0
51
180.00000209130977
0
LINE
5
208
100
AcDbEntity
8
0
100
AcDbLine
10
230.3070229324436
20
-160.72827399999991
30
0
11
230.86257293244358
21
-160.6588239999999
31
0
0
LINE
5
209
100
AcDbEntity
8
0
100
AcDbLine
10
217.92678900000001
20
-98.132953000000001
30
0
11
217.9267890000001
21
-111.13295300000001
31
0
0
LINE
5
210
100
AcDbEntity
8
0
100
AcDbLine
10
294.62678900000009
20
-111.63295300000001
30
0
11
307.62678900000003
21
-111.63295300000001
31
0
0
ARC
5
211
100
AcDbEntity
8
0
100
AcDbCircle
10
255.23928900000001
20
-117.18295299999997
30
0
40
0.50000000000000711
210
-0
220
0
230
1
100
AcDbArc
50
0
51
180.00000209130977
0
LINE
5
212
100
AcDbEntity
8
0
100
AcDbLine
10
100.29553900000002
20
-130.682953
30
0
11
101.29553900000002
21
-130.682953
31
0
0
LINE
5
213
100
AcDbEntity
8
0
100
AcDbLine
10
170.01428900000002
20
-149.23295300000001
30
0
11
170.01428900000002
21
-136.23295300000001
31
0
0
LINE
5
214
100
AcDbEntity
8
0
100
AcDbLine
10
108.101789
20
-92.082953000000018
30
0
11
108.101789
21
-79.082953000000003
31
0
0
ARC
5
215
100
AcDbEntity
8
0
100
AcDbCircle
10
231.42678900000004
20
-98.132953000000001
30
0
40
0.50000000000000711
210
0
220
0
230
1
100
AcDbArc
50
0
51
180.00000209130977
0
LINE
5
216
100
AcDbEntity
8
0
100
AcDbLine
10
255.73928900000001
20
-130.182953
30
0
11
255.73928900000001
21
-117.18295300000001
31
0
0
LINE
5
217
100
AcDbEntity
8
0
100
AcDbLine
10
94.601789000000011
20
-92.582953000000003
30
0
11
107.601789
21
-92.582953000000003
31
0
0
LINE
5
218
100
AcDbEntity
8
0
100
AcDbLine
10
156.51428899999999
20
-149.73295300000001
30
0
11
169.51428899999999
21
-149.73295300000001
31
0
0
ARC
5
219
100
AcDbEntity
8
0
100
AcDbCircle
10
218.4267890000001
20
-111.13295299999993
30
0
40
0.50000000000000711
210
0
220
0
230
1
100
AcDbArc
50
180
51
359.99998241972463
0
LINE
5
220
100
AcDbEntity
8
0
100
AcDbLine
10
101.79553900000002
20
-130.182953
30
0
11
101.79553900000002
21
-117.18295300000001
31
0
0
LINE
5
221
100
AcDbEntity
8
0
100
AcDbLine
10
307.62678900000003
20
-97.632953000000015
30
0
11
294.62678900000009
21
-97.632953000000015
31
0
0
ARC
5
222
100
AcDbEntity
8
0
100
AcDbCircle
10
312.38928900000013
20
-117.18295299999994
30
0
40
0.50000000000000711
210
-0
220
0
230
1
100
AcDbArc
50
0
51
180.00000209130977
0
LINE
5
223
100
AcDbEntity
8
0
100
AcDbLine
10
107.601789
20
-78.582953000000003
30
0
11
94.601789000000011
21
-78.582953000000032
31
0
0
LINE
5
224
100
AcDbEntity
8
0
100
AcDbLine
10
151.25178900000003
20
-79.082953000000003
30
0
11
151.25178900000003
21
-92.082953000000018
31
0
0
LINE
5
225
100
AcDbEntity
8
0
100
AcDbLine
10
231.42678900000007
20
-97.632953000000015
30
0
11
218.42678900000004
21
-97.632953000000015
31
0
0
ARC
5
226
100
AcDbEntity
8
0
100
AcDbCircle
10
226.66428900000005
20
-136.23295299999998
30
0
40
0.49999999999997158
210
-0
220
0
230
1
100
AcDbArc
50
0
51
180.00000209130977
0
LINE
5
227
100
AcDbEntity
8
0
100
AcDbLine
10
99.795539000000005
20
-117.18295300000001
30
0
11
99.795539000000005
21
-130.182953
31
0
0
LINE
5
228
100
AcDbEntity
8
0
100
AcDbLine
10
178.6964949324435
20
-164.4088239999999
30
0
11
178.55759493244349
21
-164.61717399999992
31
0
0
LINE
5
229
100
AcDbEntity
8
0
100
AcDbLine
10
255.23928900000001
20
-116.682953
30
0
11
242.23928900000007
21
-116.682953
31
0
0
LINE
5
230
100
AcDbEntity
8
0
100
AcDbLine
10
308.12678900000003
20
-111.13295300000001
30
0
11
308.12678899999986
21
-98.132953000000001
31
0
0
LINE
5
231
100
AcDbEntity
8
0
100
AcDbLine
10
75.71428899999998
20
-97.632953000000015
30
0
11
74.71428899999998
21
-97.632953000000015
31
0
0
LINE
5
232
100
AcDbEntity
8
0
100
AcDbLine
10
312.88928900000019
20
-130.182953
30
0
11
312.88928900000019
21
-117.18295300000001
31
0
0
LINE
5
233
100
AcDbEntity
8
0
100
AcDbLine
10
345.78353900000002
20
-132.68295299999991
30
0
11
351.78353900000002
21
-132.682953
31
0
0
LWPOLYLINE
5
234
100
AcDbEntity
8
0
100
AcDbPolyline
90
88
70
1
43
0.0
10
169.80759493244361
20
-159.5477239999999
10
169.1131449324435
20
-160.10327399999991
10
168.83539493244353
20
-160.51992399999992
10
168.62704493244351
20
-160.86717399999992
10
168.4187449324435
20
-161.35327399999991
10
168.34929493244351
20
-161.83937399999991
10
168.34929493244351
20
-162.60327399999991
10
168.4187449324435
20
-162.81162399999994
10
168.4187449324435
20
-162.950524
10
168.34929493244351
20
-163.08937399999991
10
168.14094493244352
20
-163.29772399999993
10
168.14094493244352
20
-163.5060739999999
10
168.00204493244351
20
-163.57552399999992
10
167.72429493244351
20
-163.57552399999992
10
167.72429493244351
20
-163.64492399999992
10
167.51594493244352
20
-163.57552399999992
10
167.37704493244351
20
-163.43662399999994
10
167.2381449324435
20
-163.1588239999999
10
167.2381449324435
20
-162.950524
10
167.1687449324435
20
-162.74217399999992
10
167.1687449324435
20
-162.60327399999991
10
166.75204493244351
20
-162.60327399999991
10
166.75204493244351
20
-163.22827399999991
10
167.0298449324435
20
-163.7838239999999
10
167.1687449324435
20
-163.92272399999993
10
167.4464949324435
20
-164.06162399999994
10
168.4881449324435
20
-164.06162399999994
10
168.62704493244351
20
-164.1310739999999
10
168.76594493244352
20
-164.1310739999999
10
168.9048449324435
20
-164.06162399999994
10
168.97429493244351
20
-164.1310739999999
10
169.1131449324435
20
-164.200524
10
169.25204493244351
20
-164.33937399999991
10
169.59929493244351
20
-164.61717399999992
10
170.01594493244352
20
-164.894924
10
170.43259493244361
20
-165.0338239999999
10
171.12704493244351
20
-165.17272399999993
10
171.6131449324435
20
-165.17272399999993
10
172.0298449324435
20
-165.10327399999991
10
172.37704493244351
20
-164.96437399999991
10
172.58539493244353
20
-164.894924
10
172.72429493244351
20
-164.82552399999992
10
172.72429493244351
20
-164.7560739999999
10
172.58539493244353
20
-164.33937399999991
10
172.51594493244352
20
-163.85327399999991
10
172.51594493244352
20
-162.74217399999992
10
172.72429493244351
20
-162.11717399999992
10
173.0714949324435
20
-161.49217399999992
10
173.4881449324435
20
-161.0060739999999
10
173.97429493244351
20
-160.58937399999991
10
174.5298449324435
20
-160.24217399999992
10
175.01594493244352
20
-160.0338239999999
10
175.50204493244351
20
-159.96437399999991
10
176.47429493244351
20
-159.96437399999991
10
176.96039493244353
20
-160.0338239999999
10
177.09929493244351
20
-160.0338239999999
10
177.93259493244349
20
-160.45052399999992
10
178.62704493244351
20
-161.0060739999999
10
178.83539493244353
20
-161.2838239999999
10
181.05759493244349
20
-160.0338239999999
10
181.68259493244349
20
-159.61717399999992
10
182.2381449324435
20
-159.33937399999991
10
182.6548449324435
20
-159.06162399999994
10
182.93259493244349
20
-158.85327399999991
10
183.14094493244352
20
-158.71437399999991
10
183.2798449324435
20
-158.57552399999992
10
183.2798449324435
20
-158.43662399999994
10
183.21039493244359
20
-158.22827399999991
10
183.00204493244351
20
-157.8810739999999
10
182.7937449324435
20
-157.39492399999992
10
181.6131449324435
20
-155.0338239999999
10
181.5437449324435
20
-154.96437399999991
10
181.4048449324435
20
-154.96437399999991
10
181.1964949324435
20
-155.0338239999999
10
180.50204493244351
20
-155.31162399999994
10
180.01594493244352
20
-155.519924
10
179.46039493244353
20
-155.72827399999991
10
178.83539493244353
20
-155.93662399999994
10
177.4464949324435
20
-156.49217399999992
10
175.9187449324435
20
-157.0477239999999
10
175.22429493244351
20
-157.39492399999992
10
173.6964949324435
20
-157.95052399999992
10
173.00204493244351
20
-158.22827399999991
10
171.75204493244351
20
-158.7838239999999
10
171.1964949324435
20
-158.99217399999992
10
170.71039493244353
20
-159.20052399999992
10
170.01594493244352
20
-159.47827399999991
10
169.87704493244351
20
-159.5477239999999
0
LWPOLYLINE
5
235
100
AcDbEntity
8
0
100
AcDbPolyline
90
8
70
1
43
0.0
10
77.432308932443505
20
-155.28295299999991
42
-0.41421356237306384
10
77.932308932443547
20
-154.78295299999991
10
90.932308932443561
20
-154.78295299999991
42
-0.4142135623730534
10
91.432308932443519
20
-155.28295299999991
10
91.432308932443576
20
-168.28295300000002
42
-0.4142135623730534
10
90.932308932443561
20
-168.78295300000002
10
77.932308932443547
20
-168.78295299999991
42
-0.41421356237310025
10
77.432308932443561
20
-168.28295300000002
0
LWPOLYLINE
5
236
100
AcDbEntity
8
0
100
AcDbPolyline
90
14
70
1
43
0.0
10
340.52103900000009
20
-137.23295300000001
10
340.52103900000014
20
-151.23295300000001
42
0.41421356237306384
10
341.02103900000003
20
-151.73295300000001
10
347.0210390000002
20
-151.73295300000001
42
0.41421356237301177
10
347.52103900000014
20
-151.23295300000001
10
347.52103900000014
20
-149.73295300000001
10
355.25178900000014
20
-149.73295300000001
42
0.41421356237332396
10
355.7517890000002
20
-149.23295300000001
10
355.75178900000003
20
-136.23295300000001
42
0.41421356237306384
10
355.25178900000014
20
-135.73295300000001
10
342.12678899999986
20
-135.73295299999998
42
0.41421356237321988
10
341.62678900000003
20
-136.23295300000001
10
341.62678900000003
20
-136.73295300000001
10
341.02103900000003
20
-136.73295300000001
42
0.4142135623732095
0
LWPOLYLINE
5
237
100
AcDbEntity
8
0
100
AcDbPolyline
90
8
70
1
43
0.0
10
326.67678899999999
20
-97.632952999999958
10
313.67678899999999
20
-97.632953000000015
42
0.41421356237310542
10
313.1767890000001
20
-98.132953000000001
10
313.17678900000004
20
-111.13295300000001
42
0.4142135623730222
10
313.67678899999999
20
-111.63295300000001
10
326.67678899999999
20
-111.63295299999999
42
0.4142135623731783
10
327.1767890000001
20
-111.13295300000001
10
327.17678900000004
20
-98.132953000000001
42
0.41421356237291812
0
LWPOLYLINE
5
238
100
AcDbEntity
8
0
100
AcDbPolyline
90
8
70
1
43
0.0
10
208.40178900000009
20
-79.082953000000003
10
208.40178899999998
20
-92.082953000000018
42
0.41421356237312623
10
208.90178899999998
20
-92.582953000000003
10
221.90178900000006
20
-92.582953000000003
42
0.41421356237310542
10
222.40178900000004
20
-92.082953000000018
10
222.40178900000004
20
-79.082953000000003
42
0.41421356237307422
10
221.90178900000006
20
-78.582953000000003
10
208.90178899999995
20
-78.582953000000018
42
0.41421356237304302
0
LWPOLYLINE
5
239
100
AcDbEntity
8
0
100
AcDbPolyline
90
8
70
1
43
0.0
10
333.38928900000008
20
-98.132953000000001
42
0.41421356237291812
10
332.88928900000002
20
-97.632952999999958
10
331.88928900000002
20
-97.632953000000015
42
0.41421356237327195
10
331.38928900000002
20
-98.132953000000001
10
331.38928899999996
20
-111.13295300000001
42
0.41421356237326151
10
331.88928900000002
20
-111.63295300000001
10
332.88928900000002
20
-111.63295300000004
42
0.41421356237326151
10
333.38928900000008
20
-111.13295300000001
0
LWPOLYLINE
5
240
100
AcDbEntity
8
0
100
AcDbPolyline
90
14
70
1
43
0.0
10
315.55803900000001
20
-136.23295300000001
10
315.55803900000001
20
-149.23295300000001
42
0.41421356237314705
10
316.05803900000001
20
-149.73295300000001
10
316.645039
20
-149.73295300000001
10
316.645039
20
-151.23295300000001
42
0.41421356237313667
10
317.145039
20
-151.73295300000001
10
323.145039
20
-151.73295300000001
42
0.41421356237314705
10
323.645039
20
-151.23295300000001
10
323.645039
20
-149.73295300000001
10
338.5830390000001
20
-149.73295300000004
42
0.4142135623730846
10
339.08303899999999
20
-149.23295300000001
10
339.08303899999999
20
-136.23295300000001
42
0.4142135623730846
10
338.5830390000001
20
-135.73295300000001
10
316.05803900000001
20
-135.73295300000001
42
0.41421356237312623
0
LWPOLYLINE
5
241
100
AcDbEntity
8
0
100
AcDbPolyline
90
8
70
1
43
0.0
10
354.58928900000001
20
-98.132953000000001
10
354.58928900000001
20
-111.13295300000001
42
0.41421356237312623
10
355.08928900000001
20
-111.63295300000001
10
356.08928900000001
20
-111.63295299999999
42
0.41421356237326151
10
356.58928900000001
20
-111.13295300000001
10
356.58928900000001
20
-98.132953000000001
42
0.41421356237299095
10
356.08928900000001
20
-97.632953000000043
10
355.08928900000001
20
-97.632952999999972
42
0.41421356237312623
0
LINE
5
242
100
AcDbEntity
8
0
100
AcDbLine
10
330.34553900000003
20
-130.68295299999991
30
0
11
343.34553900000003
21
-130.682953
31
0
0
LWPOLYLINE
5
243
100
AcDbEntity
8
0
100
AcDbPolyline
90
8
70
1
43
0.0
10
303.65178900000012
20
-79.082953000000003
10
303.65178900000001
20
-92.082953000000018
42
0.41421356237307422
10
304.15178900000001
20
-92.582953000000003
10
317.15178900000006
20
-92.582953000000003
42
0.41421356237310542
10
317.65178900000001
20
-92.082953000000018
10
317.65178900000001
20
-79.082953000000003
42
0.41421356237314183
10
317.15178900000001
20
-78.582953000000003
10
304.15178900000001
20
-78.582952999999989
42
0.41421356237314183
0
LWPOLYLINE
5
244
100
AcDbEntity
8
0
100
AcDbPolyline
90
8
70
1
43
0.0
10
350.48928899999999
20
-97.632953000000043
10
337.4892890000001
20
-97.632953000000015
42
0.41421356237318868
10
336.98928899999999
20
-98.132953000000001
10
336.9892890000001
20
-111.13295300000001
42
0.41421356237312623
10
337.4892890000001
20
-111.63295300000001
10
350.48928899999999
20
-111.63295299999999
42
0.41421356237326151
10
350.98928899999999
20
-111.13295300000001
10
350.98928899999999
20
-98.132953000000001
42
0.41421356237299095
0
ARC
5
245
100
AcDbEntity
8
0
100
AcDbCircle
10
-330.34553900000003
20
-130.182953
30
0
40
0.49999999999991829
210
0
220
0
230
-1
100
AcDbArc
50
-90
51
0
0
LWPOLYLINE
5
246
100
AcDbEntity
8
0
100
AcDbPolyline
90
8
70
1
43
0.0
10
199.37678900000009
20
-97.632953000000015
42
0.41421356237312623
10
198.876789
20
-98.132953000000001
10
198.87678899999997
20
-111.13295300000001
42
0.41421356237312623
10
199.37678900000009
20
-111.63295300000001
10
212.37678900000006
20
-111.632953
42
0.41421356237316787
10
212.87678900000003
20
-111.13295300000001
10
212.87678900000003
20
-98.132953000000001
42
0.41421356237301177
10
212.37678900000009
20
-97.632953000000015
0
LINE
5
247
100
AcDbEntity
8
0
100
AcDbLine
10
329.84553899999986
20
-117.18295300000001
30
0
11
329.84553900000014
21
-130.182953
31
0
0
LWPOLYLINE
5
248
100
AcDbEntity
8
0
100
AcDbPolyline
90
20
70
1
43
0.0
10
330.78878900000012
20
-94.082953000000003
10
330.78878900000012
20
-92.582953000000003
10
347.66478899999987
20
-92.582953000000003
10
347.66478900000016
20
-94.082953000000003
42
0.41421356237299095
10
348.16478900000016
20
-94.582952999999961
10
354.16478900000016
20
-94.582953000000018
42
0.41421356237307422
10
354.66478900000021
20
-94.082953000000003
10
354.66478900000021
20
-92.582953000000003
10
355.25178900000014
20
-92.582952999999989
42
0.41421356237313667
10
355.75178900000003
20
-92.082953000000018
10
355.75178900000014
20
-79.082953000000003
42
0.41421356237293894
10
355.25178900000014
20
-78.582953000000032
10
323.20178900000002
20
-78.582952999999975
42
0.41421356237308982
10
322.70178900000013
20
-79.082953000000003
10
322.70178900000019
20
-92.082953000000018
42
0.4142135623730846
10
323.20178900000002
20
-92.582953000000003
10
323.78878900000007
20
-92.582953000000003
10
323.78878900000007
20
-94.082953000000003
42
0.41421356237323032
10
324.28878900000018
20
-94.582952999999961
10
330.28878900000001
20
-94.582953000000003
42
0.41421356237318868
0
LINE
5
249
100
AcDbEntity
8
0
100
AcDbLine
10
329.84553900000014
20
-130.182953
30
0
11
330.34553900000003
21
-130.68295299999991
31
0
0
LWPOLYLINE
5
250
100
AcDbEntity
8
0
100
AcDbPolyline
90
8
70
1
43
0.0
10
184.58928900000001
20
-117.18295300000001
10
184.58928899999995
20
-130.182953
42
0.41421356237309503
10
185.08928899999998
20
-130.682953
10
198.08928899999998
20
-130.682953
42
0.4142135623731783
10
198.58928899999998
20
-130.182953
10
198.58928899999998
20
-117.18295300000001
42
0.41421356237313667
10
198.08928899999998
20
-116.682953
10
185.08928900000001
20
-116.68295300000003
42
0.41421356237310542
0
LWPOLYLINE
5
251
100
AcDbEntity
8
0
100
AcDbPolyline
90
8
70
1
43
0.0
10
203.63928900000002
20
-130.182953
42
0.41421356237301177
10
204.13928900000002
20
-130.682953
10
217.13928900000002
20
-130.682953
42
0.41421356237309503
10
217.63928900000002
20
-130.182953
10
217.63928900000002
20
-117.18295300000001
42
0.41421356237314705
10
217.13928900000002
20
-116.682953
10
204.13928900000002
20
-116.682953
42
0.41421356237309503
10
203.63928900000008
20
-117.18295300000001
0
LWPOLYLINE
5
252
100
AcDbEntity
8
0
100
AcDbPolyline
90
8
70
1
43
0.0
10
193.32678900000002
20
-97.632953000000015
10
180.32678900000002
20
-97.632953000000015
42
0.41421356237312623
10
179.82678899999999
20
-98.132953000000001
10
179.82678900000002
20
-111.13295300000001
42
0.4142135623730222
10
180.32678900000002
20
-111.63295300000001
10
193.32678900000005
20
-111.63295300000003
42
0.41421356237312623
10
193.82678900000002
20
-111.13295300000001
10
193.82678900000002
20
-98.132953000000001
42
0.41421356237313667
0
ARC
5
253
100
AcDbEntity
8
0
100
AcDbCircle
10
-351.78353900000002
20
-132.18295299999991
30
0
40
0.50000000000011369
210
0
220
0
230
-1
100
AcDbArc
50
180
51
359.99998241972463
0
LINE
5
254
100
AcDbEntity
8
0
100
AcDbLine
10
351.78353900000002
20
-117.682953
30
0
11
345.78353900000002
21
-117.682953
31
0
0
LINE
5
255
100
AcDbEntity
8
0
100
AcDbLine
10
164.751789
20
-78.582953000000003
30
0
11
151.751789
21
-78.582953000000032
31
0
0
ARC
5
256
100
AcDbEntity
8
0
100
AcDbCircle
10
-213.66428900000002
20
-136.23295300000001
30
0
40
0.50000000000000711
210
0
220
0
230
-1
100
AcDbArc
50
0
51
180.00001983990668
0
LWPOLYLINE
5
257
100
AcDbEntity
8
0
100
AcDbPolyline
90
8
70
1
43
0.0
10
189.851789
20
-92.582953000000003
10
202.851789
20
-92.582953000000003
42
0.41421356237312623
10
203.35178900000002
20
-92.082953000000018
10
203.35178900000002
20
-79.082953000000003
42
0.41421356237314183
10
202.85178900000002
20
-78.582953000000003
10
189.851789
20
-78.582953000000003
42
0.41421356237301177
10
189.351789
20
-79.082953000000003
10
189.351789
20
-92.082953000000018
42
0.41421356237304302
0
ARC
5
258
100
AcDbEntity
8
0
100
AcDbCircle
10
-330.34553899999986
20
-117.18295300000001
30
0
40
0.49999999999997158
210
0
220
0
230
-1
100
AcDbArc
50
0
51
180.00001983990668
0
LWPOLYLINE
5
259
100
AcDbEntity
8
0
100
AcDbPolyline
90
8
70
1
43
0.0
10
142.226789
20
-97.632952999999986
42
0.41421356237312623
10
141.726789
20
-98.132953000000001
10
141.726789
20
-111.13295300000001
42
0.41421356237316787
10
142.226789
20
-111.63295300000001
10
155.226789
20
-111.63295300000001
42
0.41421356237310542
10
155.726789
20
-111.13295300000001
10
155.726789
20
-98.132953000000001
42
0.4142135623730534
10
155.226789
20
-97.632953000000015
0
ARC
5
260
100
AcDbEntity
8
0
100
AcDbCircle
10
-343.34553900000009
20
-130.182953
30
0
40
0.50000000000004263
210
0
220
0
230
-1
100
AcDbArc
50
180
51
359.99998241972463
0
ARC
5
261
100
AcDbEntity
8
0
100
AcDbCircle
10
-345.78353900000002
20
-118.18295300000001
30
0
40
0.49999999999997158
210
0
220
0
230
-1
100
AcDbArc
50
0
51
180.00001983990668
0
ARC
5
262
100
AcDbEntity
8
0
100
AcDbCircle
10
-75.71428899999998
20
-111.13295300000001
30
0
40
0.49999999999999822
210
0
220
0
230
-1
100
AcDbArc
50
180
51
359.99998241972463
0
ARC
5
263
100
AcDbEntity
8
0
100
AcDbCircle
10
-299.38928900000002
20
-130.182953
30
0
40
0.49999999999995381
210
0
220
0
230
-1
100
AcDbArc
50
-90
51
0
0
CIRCLE
5
264
100
AcDbEntity
8
0
100
AcDbCircle
10
215.50330600000001
20
-73.81881199999998
30
0
40
1.1000000000000001
210
0
220
0
230
1
0
CIRCLE
5
265
100
AcDbEntity
8
0
100
AcDbCircle
10
310.69999999999999
20
-173.40000000000001
30
0
40
1.1000000000000001
210
0
220
0
230
1
0
ARC
5
266
100
AcDbEntity
8
0
100
AcDbCircle
10
-100.29553900000002
20
-130.182953
30
0
40
0.50000000000000711
210
0
220
0
230
-1
100
AcDbArc
50
-90
51
0
0
LWPOLYLINE
5
267
100
AcDbEntity
8
0
100
AcDbPolyline
90
8
70
1
43
0.0
10
170.80178899999999
20
-92.582952999999975
10
183.80178899999999
20
-92.582952999999975
42
0.41421356237312623
10
184.30178899999999
20
-92.082953000000018
10
184.30178899999999
20
-79.082953000000003
42
0.41421356237310542
10
183.80178900000001
20
-78.582953000000003
10
170.80178899999999
20
-78.582953000000032
42
0.41421356237310025
10
170.3017890000001
20
-79.082953000000003
10
170.3017890000001
20
-92.082953000000018
42
0.41421356237312623
0
ARC
5
268
100
AcDbEntity
8
0
100
AcDbCircle
10
-151.751789
20
-92.082953000000018
30
0
40
0.49999999999998934
210
0
220
0
230
-1
100
AcDbArc
50
-90
51
0
0
ARC
5
269
100
AcDbEntity
8
0
100
AcDbCircle
10
-242.23928900000007
20
-117.18295300000001
30
0
40
0.50000000000000711
210
0
220
0
230
-1
100
AcDbArc
50
0
51
180.00001983990668
0
ARC
5
270
100
AcDbEntity
8
0
100
AcDbCircle
10
-299.38928900000002
20
-117.18295299999991
30
0
40
0.49999999999997158
210
0
220
0
230
-1
100
AcDbArc
50
0
51
180.00001983990668
0
CIRCLE
5
271
100
AcDbEntity
8
0
100
AcDbCircle
10
310.60000000000002
20
-74.09999999999998
30
0
40
1.1000000000000001
210
0
220
0
230
1
0
CIRCLE
5
272
100
AcDbEntity
8
0
100
AcDbCircle
10
215.5
20
-173.40000000000001
30
0
40
1.1000000000000001
210
0
220
0
230
1
0
LWPOLYLINE
5
273
100
AcDbEntity
8
0
100
AcDbPolyline
90
8
70
1
43
0.0
10
125.0573089324435
20
-168.28295300000002
42
0.41421356237307422
10
125.55730893244352
20
-168.78295299999991
10
138.5573089324435
20
-168.78295299999991
42
0.41421356237307422
10
139.0573089324435
20
-168.28295300000002
10
139.0573089324435
20
-155.28295299999991
42
0.4142135623730846
10
138.5573089324435
20
-154.78295299999991
10
125.55730893244352
20
-154.78295299999991
42
0.41421356237312623
10
125.0573089324435
20
-155.28295299999991
0
ARC
5
274
100
AcDbEntity
8
0
100
AcDbCircle
10
-213.66428900000002
20
-149.23295300000001
30
0
40
0.50000000000002487
210
0
220
0
230
-1
100
AcDbArc
50
-90
51
0
0
ARC
5
275
100
AcDbEntity
8
0
100
AcDbCircle
10
-164.751789
20
-92.082953000000032
30
0
40
0.49999999999997158
210
0
220
0
230
-1
100
AcDbArc
50
180
51
359.99998241972463
0
ARC
5
276
100
AcDbEntity
8
0
100
AcDbCircle
10
-107.601789
20
-92.082953000000018
30
0
40
0.49999999999998934
210
0
220
0
230
-1
100
AcDbArc
50
180
51
359.99998241972463
0
ARC
5
277
100
AcDbEntity
8
0
100
AcDbCircle
10
-151.751789
20
-79.082953000000003
30
0
40
0.49999999999997158
210
0
220
0
230
-1
100
AcDbArc
50
0
51
180.00001983990668
0
LWPOLYLINE
5
278
100
AcDbEntity
8
0
100
AcDbPolyline
90
8
70
1
43
0.0
10
291.74480893244368
20
-168.28295300000002
10
291.74480893244368
20
-155.28295299999991
42
-0.41421356237307422
10
292.24480893244362
20
-154.78295299999991
10
305.2448089324435
20
-154.78295299999994
42
-0.41421356237315748
10
305.7448089324435
20
-155.28295299999991
10
305.7448089324435
20
-168.28295300000002
42
-0.41421356237307422
10
305.2448089324435
20
-168.78295299999991
10
292.24480893244362
20
-168.78295299999991
42
-0.4142135623730534
0
LWPOLYLINE
5
279
100
AcDbEntity
8
0
100
AcDbPolyline
90
8
70
1
43
0.0
10
353.36980893244345
20
-168.28295300000002
42
-0.41421356237282447
10
352.86980893244368
20
-168.78295299999991
10
339.86980893244368
20
-168.78295299999996
42
-0.4142135623730534
10
339.36980893244362
20
-168.28295300000002
10
339.36980893244356
20
-155.28295299999991
42
-0.41421356237319906
10
339.86980893244368
20
-154.78295299999991
10
352.86980893244362
20
-154.78295299999996
42
-0.4142135623732407
10
353.36980893244368
20
-155.28295299999991
0
LWPOLYLINE
5
280
100
AcDbEntity
8
0
100
AcDbPolyline
90
8
70
1
43
0.0
10
281.93230893244362
20
-168.28295300000002
10
281.93230893244362
20
-155.28295299999991
42
0.41421356237306384
10
281.43230893244356
20
-154.78295299999991
10
268.43230893244356
20
-154.78295299999991
42
0.41421356237311585
10
267.9323089324435
20
-155.28295299999991
10
267.9323089324435
20
-168.28295300000002
42
0.41421356237309503
10
268.43230893244356
20
-168.78295299999991
10
281.43230893244356
20
-168.78295299999991
42
0.41421356237301177
0
ARC
5
281
100
AcDbEntity
8
0
100
AcDbCircle
10
-94.601789000000011
20
-79.082953000000003
30
0
40
0.49999999999997158
210
0
220
0
230
-1
100
AcDbArc
50
0
51
180.00001983990668
0
LINE
5
282
100
AcDbEntity
8
0
100
AcDbLine
10
82.695538999999982
20
-116.682953
30
0
11
95.695539000000011
21
-116.682953
31
0
0
ARC
5
283
100
AcDbEntity
8
0
100
AcDbCircle
10
-226.66428900000002
20
-149.23295300000001
30
0
40
0.50000000000000711
210
0
220
0
230
-1
100
AcDbArc
50
180
51
359.99998241972463
0
ARC
5
284
100
AcDbEntity
8
0
100
AcDbCircle
10
-294.62678900000009
20
-98.132953000000072
30
0
40
0.50000000000007816
210
0
220
0
230
-1
100
AcDbArc
50
0
51
180.00001983990668
0
ARC
5
285
100
AcDbEntity
8
0
100
AcDbCircle
10
-100.29553900000002
20
-117.18295300000001
30
0
40
0.49999999999998934
210
0
220
0
230
-1
100
AcDbArc
50
0
51
180.00001983990668
0
ARC
5
286
100
AcDbEntity
8
0
100
AcDbCircle
10
-156.51428899999991
20
-136.23295300000001
30
0
40
0.49999999999997158
210
0
220
0
230
-1
100
AcDbArc
50
0
51
180.00001983990668
0
ARC
5
287
100
AcDbEntity
8
0
100
AcDbCircle
10
-169.51428899999993
20
-149.2329529999999
30
0
40
0.50000000000007816
210
0
220
0
230
-1
100
AcDbArc
50
180
51
359.99998241972463
0
ARC
5
288
100
AcDbEntity
8
0
100
AcDbCircle
10
-242.23928900000007
20
-130.182953
30
0
40
0.50000000000000711
210
-0
220
0
230
-1
100
AcDbArc
50
-89.999999999996746
51
0
0
ARC
5
289
100
AcDbEntity
8
0
100
AcDbCircle
10
-74.71428899999998
20
-111.13295300000001
30
0
40
0.50000000000000711
210
-0
220
0
230
-1
100
AcDbArc
50
-89.99999999999838
51
0
0
ARC
5
290
100
AcDbEntity
8
0
100
AcDbCircle
10
-312.38928900000013
20
-130.182953
30
0
40
0.50000000000000711
210
0
220
0
230
-1
100
AcDbArc
50
180
51
359.99998241972463
0
ARC
5
291
100
AcDbEntity
8
0
100
AcDbCircle
10
82.695538999999982
20
-117.18295300000001
30
0
40
0.50000000000000711
210
0
220
-0
230
1
100
AcDbArc
50
90
51
91.278602520329557
0
LINE
5
292
100
AcDbEntity
8
0
100
AcDbLine
10
96.195538999999997
20
-117.18295300000001
30
0
11
96.195538999999997
21
-130.18307700000003
31
0
0
ARC
5
293
100
AcDbEntity
8
0
100
AcDbCircle
10
-101.29553900000002
20
-130.182953
30
0
40
0.50000000000000711
210
0
220
0
230
-1
100
AcDbArc
50
180
51
359.99998241972463
0
ARC
5
294
100
AcDbEntity
8
0
100
AcDbCircle
10
-74.71428899999998
20
-98.132953000000001
30
0
40
0.50000000000000711
210
0
220
0
230
-1
100
AcDbArc
50
0
51
180.00001983990668
0
ARC
5
295
100
AcDbEntity
8
0
100
AcDbCircle
10
-255.23928900000001
20
-130.182953
30
0
40
0.50000000000000711
210
0
220
0
230
-1
100
AcDbArc
50
180
51
359.99998241972463
0
ARC
5
296
100
AcDbEntity
8
0
100
AcDbCircle
10
-307.62678900000003
20
-111.13295300000001
30
0
40
0.50000000000000711
210
0
220
0
230
-1
100
AcDbArc
50
180
51
359.99998241972463
0
CIRCLE
5
297
100
AcDbEntity
8
0
100
AcDbCircle
10
120.09999999999999
20
-73.900000000000006
30
0
40
1.1000000000000001
210
0
220
0
230
1
0
LINE
5
298
100
AcDbEntity
8
0
100
AcDbLine
10
76.595539000000002
20
-130.18307700000003
30
0
11
76.595539000000002
21
-117.18295300000001
31
0
0
LWPOLYLINE
5
299
100
AcDbEntity
8
0
100
AcDbPolyline
90
8
70
1
43
0.0
10
249.99480893244362
20
-167.28295299999991
10
249.99480893244362
20
-153.28295299999991
42
-0.41421356237314705
10
250.49480893244362
20
-152.78295299999991
10
256.49480893244356
20
-152.78295299999991
42
-0.41421356237309503
10
256.9948089324435
20
-153.28295299999991
10
256.9948089324435
20
-167.28295299999991
42
-0.41421356237313667
10
256.4948089324435
20
-167.78295299999994
10
250.4948089324435
20
-167.78295299999994
42
-0.41421356237307422
0
LWPOLYLINE
5
300
100
AcDbEntity
8
0
100
AcDbPolyline
90
8
70
1
43
0.0
10
156.4948089324435
20
-152.78295299999991
42
-0.41421356237314705
10
156.9948089324435
20
-153.28295299999991
10
156.99480893244353
20
-167.28295299999991
42
-0.4142135623730534
10
156.4948089324435
20
-167.78295299999994
10
150.4948089324435
20
-167.78295299999994
42
-0.4142135623730534
10
149.99480893244342
20
-167.28295299999991
10
149.9948089324435
20
-153.28295299999991
42
-0.41421356237304302
10
150.4948089324435
20
-152.78295299999991
0
LWPOLYLINE
5
301
100
AcDbEntity
8
0
100
AcDbPolyline
90
8
70
1
43
0.0
10
101.24480893244352
20
-168.28295300000002
10
101.2448089324435
20
-155.28295299999991
42
-0.41421356237312623
10
101.7448089324435
20
-154.78295299999991
10
114.7448089324435
20
-154.78295299999991
42
-0.41421356237312623
10
115.24480893244352
20
-155.28295299999991
10
115.24480893244352
20
-168.28295300000002
42
-0.41421356237307422
10
114.7448089324435
20
-168.78295299999991
10
101.7448089324435
20
-168.78295299999991
42
-0.41421356237310542
0
LWPOLYLINE
5
302
100
AcDbEntity
8
0
100
AcDbPolyline
90
8
70
1
43
0.0
10
329.55730893244368
20
-168.28295300000002
42
-0.41421356237321988
10
329.05730893244362
20
-168.78295299999985
10
316.0573089324435
20
-168.78295299999988
42
-0.41421356237313667
10
315.5573089324435
20
-168.28295300000002
10
315.5573089324435
20
-155.28295299999991
42
-0.41421356237316787
10
316.0573089324435
20
-154.78295299999991
10
329.05730893244362
20
-154.78295299999994
42
-0.41421356237297013
10
329.5573089324435
20
-155.28295299999991
0
LWPOLYLINE
5
303
100
AcDbEntity
8
0
100
AcDbPolyline
90
8
70
1
43
0.0
10
75.551788999999999
20
-78.582953000000003
42
0.41421356237313145
10
75.051789000000014
20
-79.082953000000003
10
75.051789000000014
20
-92.082953000000018
42
0.41421356237311585
10
75.551788999999999
20
-92.582953000000003
10
88.551788999999999
20
-92.582953000000003
42
0.4142135623730846
10
89.051789000000014
20
-92.082953000000018
10
89.051788999999985
20
-79.082953000000003
42
0.41421356237307422
10
88.551788999999999
20
-78.582953000000003
0
LWPOLYLINE
5
304
100
AcDbEntity
8
0
100
AcDbPolyline
90
8
70
1
43
0.0
10
80.314288999999974
20
-97.632952999999986
42
0.41421356237307422
10
79.814289000000002
20
-98.132953000000001
10
79.814289000000002
20
-111.13295300000001
42
0.41421356237311585
10
80.314288999999974
20
-111.63295300000001
10
93.314289000000002
20
-111.63295300000001
42
0.41421356237307422
10
93.814289000000016
20
-111.13295300000001
10
93.814289000000016
20
-98.132953000000001
42
0.4142135623730222
10
93.314289000000002
20
-97.632953000000015
0
LWPOLYLINE
5
305
100
AcDbEntity
8
0
100
AcDbPolyline
90
8
70
1
43
0.0
10
208.1142890000001
20
-149.23295300000001
10
208.1142890000001
20
-136.23295300000001
42
0.41421356237306384
10
207.61428899999999
20
-135.73295300000001
10
194.61428900000001
20
-135.73295300000001
42
0.41421356237313667
10
194.11428900000001
20
-136.23295300000001
10
194.11428900000001
20
-149.23295300000001
42
0.41421356237301177
10
194.61428900000001
20
-149.73295300000001
10
207.61428899999999
20
-149.73295300000001
42
0.41421356237311585
0
LINE
5
306
100
AcDbEntity
8
0
100
AcDbLine
10
74.21428899999998
20
-111.13295300000001
30
0
11
74.714288999999965
21
-111.63295300000001
31
0
0
LWPOLYLINE
5
307
100
AcDbEntity
8
0
100
AcDbPolyline
90
8
70
1
43
0.0
10
175.064289
20
-149.23295300000001
42
0.41421356237301177
10
175.564289
20
-149.73295300000001
10
188.564289
20
-149.73295300000001
42
0.41421356237309503
10
189.06428900000003
20
-149.23295300000001
10
189.06428900000009
20
-136.23295300000001
42
0.41421356237304302
10
188.564289
20
-135.73295300000001
10
175.564289
20
-135.73295300000001
42
0.41421356237313667
10
175.064289
20
-136.23295300000001
0
LWPOLYLINE
5
308
100
AcDbEntity
8
0
100
AcDbPolyline
90
8
70
1
43
0.0
10
165.539289
20
-130.182953
42
0.41421356237301177
10
166.039289
20
-130.682953
10
179.03928899999997
20
-130.68295300000003
42
0.41421356237314705
10
179.539289
20
-130.182953
10
179.539289
20
-117.18295300000001
42
0.41421356237321988
10
179.039289
20
-116.682953
10
166.039289
20
-116.682953
42
0.41421356237313667
10
165.539289
20
-117.18295300000001
0
LWPOLYLINE
5
309
100
AcDbEntity
8
0
100
AcDbPolyline
90
8
70
1
43
0.0
10
161.27678900000001
20
-111.63295300000001
10
174.27678900000001
20
-111.63295300000001
42
0.41421356237319906
10
174.77678899999998
20
-111.13295300000001
10
174.77678899999998
20
-98.132953000000001
42
0.41421356237310542
10
174.27678899999992
20
-97.632953000000015
10
161.27678900000001
20
-97.632953000000015
42
0.41421356237312623
10
160.77678899999998
20
-98.132953000000001
10
160.77678899999998
20
-111.13295300000001
42
0.41421356237313667
0
LWPOLYLINE
5
310
100
AcDbEntity
8
0
100
AcDbPolyline
90
8
70
1
43
0.0
10
98.914289000000011
20
-97.632953000000015
10
97.914288999999997
20
-97.632953000000015
42
0.41421356237313667
10
97.414289000000011
20
-98.132953000000001
10
97.414289000000011
20
-111.13295300000001
42
0.41421356237312623
10
97.914288999999997
20
-111.63295300000001
10
98.914289000000011
20
-111.63295300000001
42
0.41421356237314705
10
99.414288999999997
20
-111.13295300000001
10
99.414288999999997
20
-98.132953000000001
42
0.41421356237313667
0
LWPOLYLINE
5
311
100
AcDbEntity
8
0
100
AcDbPolyline
90
8
70
1
43
0.0
10
78.520038999999983
20
-137.23295300000001
10
78.520038999999983
20
-151.23295300000001
42
0.41421356237312101
10
79.020038999999983
20
-151.73295300000001
10
85.02003900000004
20
-151.73295300000001
42
0.41421356237309503
10
85.520038999999997
20
-151.23295300000001
10
85.520039000000025
20
-137.23295300000001
42
0.4142135623730846
10
85.02003900000004
20
-136.73295300000001
10
79.020038999999983
20
-136.73295300000001
42
0.41421356237304818
0
LINE
5
312
100
AcDbEntity
8
0
100
AcDbLine
10
101.29553900000002
20
-116.682953
30
0
11
100.29553900000002
21
-116.682953
31
0
0
ARC
5
313
100
AcDbEntity
8
0
100
AcDbCircle
10
95.695539000000011
20
-130.18307700000003
30
0
40
0.50000000000000711
210
0
220
0
230
1
100
AcDbArc
50
-90
51
0
0
LWPOLYLINE
5
314
100
AcDbEntity
8
0
100
AcDbPolyline
90
8
70
1
43
0.0
10
146.48928899999999
20
-130.182953
42
0.41421356237304302
10
146.98928899999999
20
-130.682953
10
159.98928899999999
20
-130.682953
42
0.41421356237304302
10
160.48928899999999
20
-130.182953
10
160.48928899999999
20
-117.18295300000001
42
0.41421356237315748
10
159.98928899999999
20
-116.682953
10
146.98928899999999
20
-116.682953
42
0.41421356237314705
10
146.48928899999999
20
-117.18295300000001
0
LWPOLYLINE
5
315
100
AcDbEntity
8
0
100
AcDbPolyline
90
8
70
1
43
0.0
10
100.45803900000001
20
-149.73295300000001
42
0.4142135623730846
10
100.958039
20
-149.23295300000001
10
100.958039
20
-136.23295300000001
42
0.41421356237316787
10
100.45803900000001
20
-135.73295300000001
10
87.458038999999999
20
-135.73295300000001
42
0.41421356237307422
10
86.958038999999999
20
-136.23295300000001
10
86.958038999999999
20
-149.23295300000001
42
0.4142135623730534
10
87.458038999999999
20
-149.73295300000001
0
LINE
5
316
100
AcDbEntity
8
0
100
AcDbLine
10
74.714288999999965
20
-111.63295300000001
30
0
11
75.71428899999998
21
-111.63295300000001
31
0
0
LINE
5
317
100
AcDbEntity
8
0
100
AcDbLine
10
74.21428899999998
20
-98.132953000000001
30
0
11
74.21428899999998
21
-111.13295300000001
31
0
0
LINE
5
318
100
AcDbEntity
8
0
100
AcDbLine
10
94.101789000000039
20
-79.082953000000003
30
0
11
94.101788999999997
21
-92.082953000000032
31
0
0
LINE
5
319
100
AcDbEntity
8
0
100
AcDbLine
10
78.106696000000014
20
-116.68307699999978
30
0
11
82.684382008663192
21
-116.6830772469195
31
0
0
ARC
5
320
100
AcDbEntity
8
0
100
AcDbCircle
10
156.51428900000002
20
-149.23295299999992
30
0
40
0.50000000000002487
210
0
220
0
230
1
100
AcDbArc
50
180
51
359.99998241972463
0
LWPOLYLINE
5
321
100
AcDbEntity
8
0
100
AcDbPolyline
90
8
70
1
43
0.0
10
104.12678900000002
20
-111.63295300000001
10
117.126789
20
-111.63295300000001
42
0.41421356237314705
10
117.62678899999999
20
-111.13295300000001
10
117.62678899999999
20
-98.132953000000001
42
0.41421356237313667
10
117.126789
20
-97.632953000000015
10
104.12678900000002
20
-97.632952999999986
42
0.41421356237309503
10
103.626789
20
-98.132953000000001
10
103.626789
20
-111.13295300000001
42
0.41421356237313667
0
LWPOLYLINE
5
322
100
AcDbEntity
8
0
100
AcDbPolyline
90
8
70
1
43
0.0
10
127.15178899999999
20
-79.082953000000003
42
0.41421356237314183
10
126.65178900000001
20
-78.582953000000003
10
113.65178900000001
20
-78.582953000000003
42
0.41421356237311585
10
113.15178899999999
20
-79.082953000000003
10
113.15178899999999
20
-92.082953000000018
42
0.41421356237310542
10
113.65178900000001
20
-92.582953000000003
10
126.65178900000001
20
-92.582952999999989
42
0.41421356237312623
10
127.15178899999999
20
-92.082953000000018
0
LWPOLYLINE
5
323
100
AcDbEntity
8
0
100
AcDbPolyline
90
8
70
1
43
0.0
10
136.17678899999999
20
-97.632953000000015
10
123.17678899999999
20
-97.632953000000015
42
0.41421356237307422
10
122.676789
20
-98.132953000000001
10
122.676789
20
-111.13295300000001
42
0.41421356237310542
10
123.17678899999999
20
-111.63295300000001
10
136.17678899999999
20
-111.63295300000001
42
0.41421356237310542
10
136.67678899999999
20
-111.13295300000001
10
136.67678899999999
20
-98.132953000000001
42
0.41421356237315748
0
LWPOLYLINE
5
324
100
AcDbEntity
8
0
100
AcDbPolyline
90
8
70
1
43
0.0
10
117.914289
20
-149.23295300000001
42
0.41421356237307422
10
118.414289
20
-149.73295300000001
10
131.414289
20
-149.73295300000001
42
0.4142135623730222
10
131.914289
20
-149.23295300000001
10
131.914289
20
-136.23295300000001
42
0.41421356237312623
10
131.414289
20
-135.73295300000001
10
118.414289
20
-135.73295300000001
42
0.41421356237309503
10
117.914289
20
-136.23295300000001
0
LWPOLYLINE
5
325
100
AcDbEntity
8
0
100
AcDbPolyline
90
8
70
1
43
0.0
10
146.20178899999999
20
-92.082953000000018
10
146.2017890000001
20
-79.082953000000003
42
0.41421356237308982
10
145.70178899999999
20
-78.582953000000003
10
132.70178899999996
20
-78.582953000000003
42
0.41421356237304818
10
132.20178900000002
20
-79.082953000000003
10
132.20178900000002
20
-92.082953000000018
42
0.41421356237309503
10
132.70178899999999
20
-92.582953000000003
10
145.70178899999999
20
-92.582953000000003
42
0.41421356237309503
0
LWPOLYLINE
5
326
100
AcDbEntity
8
0
100
AcDbPolyline
90
8
70
1
43
0.0
10
102.39603900000003
20
-151.23295300000001
42
0.41421356237309503
10
102.89603900000002
20
-151.73295300000001
10
108.89603899999999
20
-151.73295300000001
42
0.4142135623730846
10
109.39603899999992
20
-151.23295300000001
10
109.39603899999992
20
-137.23295300000001
42
0.41421356237310542
10
108.89603899999999
20
-136.73295300000001
10
102.89603900000002
20
-136.73295300000001
42
0.4142135623730534
10
102.396039
20
-137.23295300000001
0
ARC
5
327
100
AcDbEntity
8
0
100
AcDbCircle
10
77.095539000000002
20
-117.18295300000001
30
0
40
0.50000000000000711
210
0
220
-0
230
1
100
AcDbArc
50
90
51
180
0
LINE
5
328
100
AcDbEntity
8
0
100
AcDbLine
10
156.01428899999996
20
-136.23295300000001
30
0
11
156.01428899999999
21
-149.23295300000001
31
0
0
LINE
5
329
100
AcDbEntity
8
0
100
AcDbLine
10
77.095539000000002
20
-116.682953
30
0
11
78.095539000088991
21
-116.68295275295831
31
0
0
LINE
5
330
100
AcDbEntity
8
0
100
AcDbLine
10
95.695539000000011
20
-130.68307700000003
30
0
11
77.095539000000002
21
-130.683077
31
0
0
LWPOLYLINE
5
331
100
AcDbEntity
8
0
100
AcDbPolyline
90
8
70
1
43
0.0
10
150.96428900000001
20
-136.23295300000001
42
0.41421356237313667
10
150.46428899999998
20
-135.73295300000001
10
137.46428899999998
20
-135.73295300000001
42
0.41421356237314705
10
136.96428899999998
20
-136.23295300000001
10
136.96428899999998
20
-149.23295300000001
42
0.41421356237304302
10
137.46428899999998
20
-149.73295300000001
10
150.46428899999998
20
-149.73295300000001
42
0.41421356237307422
10
150.96428900000001
20
-149.23295300000001
0
ARC
5
332
100
AcDbEntity
8
0
100
AcDbCircle
10
77.095539000000002
20
-130.18307700000003
30
0
40
0.49999999999999822
210
0
220
0
230
1
100
AcDbArc
50
180
51
270
0
ARC
5
333
100
AcDbEntity
8
0
100
AcDbCircle
10
95.695539000000011
20
-117.18295300000001
30
0
40
0.50000000000000711
210
0
220
0
230
1
100
AcDbArc
50
0
51
90
0
LINE
5
334
100
AcDbEntity
8
0
100
AcDbLine
10
299.38928900000002
20
-130.68295299999994
30
0
11
312.38928900000013
21
-130.682953
31
0
0
LWPOLYLINE
5
335
100
AcDbEntity
8
0
100
AcDbPolyline
90
8
70
1
43
0.0
10
270.02678900000001
20
-98.132953000000001
42
0.41421356237301177
10
269.52678900000001
20
-97.632953000000015
10
256.52678900000001
20
-97.632952999999986
42
0.41421356237313667
10
256.02678900000001
20
-98.132953000000001
10
256.02678900000001
20
-111.13295300000001
42
0.41421356237321988
10
256.52678900000001
20
-111.63295300000001
10
269.52678900000001
20
-111.63295300000001
42
0.41421356237313667
10
270.02678900000001
20
-111.13295300000001
0
LWPOLYLINE
5
336
100
AcDbEntity
8
0
100
AcDbPolyline
90
8
70
1
43
0.0
10
293.33928900000001
20
-130.682953
42
0.41421356237307422
10
293.83928900000001
20
-130.182953
10
293.83928900000012
20
-117.18295300000001
42
0.41421356237306384
10
293.33928900000001
20
-116.682953
10
280.33928900000006
20
-116.68295299999998
42
0.41421356237314705
10
279.83928900000001
20
-117.18295300000001
10
279.83928900000001
20
-130.182953
42
0.41421356237314705
10
280.33928900000001
20
-130.682953
0
LWPOLYLINE
5
337
100
AcDbEntity
8
0
100
AcDbPolyline
90
8
70
1
43
0.0
10
127.93928899999999
20
-116.682953
42
0.41421356237310542
10
127.439289
20
-117.18295300000001
10
127.439289
20
-130.182953
42
0.4142135623730846
10
127.93928899999999
20
-130.682953
10
140.93928900000003
20
-130.682953
42
0.41421356237309503
10
141.439289
20
-130.182953
10
141.439289
20
-117.18295300000001
42
0.41421356237306384
10
140.93928900000003
20
-116.682953
0
LWPOLYLINE
5
338
100
AcDbEntity
8
0
100
AcDbPolyline
90
8
70
1
43
0.0
10
275.07678900000002
20
-98.132953000000001
10
275.07678900000002
20
-111.13295300000001
42
0.41421356237321988
10
275.57678900000002
20
-111.63295300000001
10
288.57678900000002
20
-111.63295300000001
42
0.41421356237313667
10
289.07678900000002
20
-111.13295300000001
10
289.07678900000002
20
-98.132953000000001
42
0.41421356237301177
10
288.57678900000002
20
-97.632953000000015
10
275.57678900000002
20
-97.632952999999986
42
0.41421356237313667
0
LWPOLYLINE
5
339
100
AcDbEntity
8
0
100
AcDbPolyline
90
8
70
1
43
0.0
10
122.38928899999999
20
-117.18295300000001
42
0.41421356237312623
10
121.88928900000001
20
-116.682953
10
108.88928899999999
20
-116.682953
42
0.41421356237313667
10
108.38928899999999
20
-117.18295300000001
10
108.38928899999999
20
-130.182953
42
0.41421356237307422
10
108.88928899999999
20
-130.682953
10
121.88928900000001
20
-130.682953
42
0.41421356237309503
10
122.38928899999999
20
-130.182953
0
LINE
5
340
100
AcDbEntity
8
0
100
AcDbLine
10
242.23928900000004
20
-130.682953
30
0
11
255.23928900000001
21
-130.682953
31
0
0
LWPOLYLINE
5
341
100
AcDbEntity
8
0
100
AcDbPolyline
90
8
70
1
43
0.0
10
274.789289
20
-117.18295300000001
42
0.41421356237304302
10
274.28928900000005
20
-116.682953
10
261.28928900000005
20
-116.68295299999998
42
0.41421356237314705
10
260.789289
20
-117.18295300000001
10
260.789289
20
-130.182953
42
0.41421356237314705
10
261.289289
20
-130.682953
10
274.28928900000005
20
-130.682953
42
0.41421356237313667
10
274.789289
20
-130.182953
0
LINE
5
342
100
AcDbEntity
8
0
100
AcDbLine
10
294.12678900000003
20
-98.132953000000072
30
0
11
294.12678900000009
21
-111.13295300000001
31
0
0
LINE
5
343
100
AcDbEntity
8
0
100
AcDbLine
10
241.73928900000007
20
-117.18295300000001
30
0
11
241.73928900000007
21
-130.182953
31
0
0
LWPOLYLINE
5
344
100
AcDbEntity
8
0
100
AcDbPolyline
90
8
70
1
43
0.0
10
266.05178899999999
20
-92.582953000000003
10
279.05178899999999
20
-92.582953000000003
42
0.41421356237312623
10
279.55178899999999
20
-92.082953000000018
10
279.55178899999999
20
-79.082953000000003
42
0.41421356237314183
10
279.05178899999999
20
-78.582953000000003
10
266.05178899999999
20
-78.582952999999975
42
0.4142135623730846
10
265.55178899999999
20
-79.082953000000003
10
265.55178899999999
20
-92.082953000000018
42
0.41421356237307422
0
LWPOLYLINE
5
345
100
AcDbEntity
8
0
100
AcDbPolyline
90
8
70
1
43
0.0
10
309.95803899999999
20
-149.23295300000001
42
0.41421356237314705
10
310.45803899999999
20
-149.73295300000001
10
311.45803900000004
20
-149.73295300000004
42
0.41421356237312623
10
311.95803899999999
20
-149.23295300000001
10
311.95803899999999
20
-136.23295300000001
42
0.41421356237321988
10
311.45803899999999
20
-135.73295300000001
10
310.45803899999999
20
-135.73295300000001
42
0.41421356237312623
10
309.95803899999999
20
-136.23295300000001
0
LWPOLYLINE
5
346
100
AcDbEntity
8
0
100
AcDbPolyline
90
8
70
1
43
0.0
10
241.45178900000005
20
-92.082953000000018
10
241.45178900000005
20
-79.082953000000003
42
0.41421356237317308
10
240.95178900000005
20
-78.582953000000003
10
227.95178900000002
20
-78.582953000000003
42
0.41421356237313667
10
227.45178900000002
20
-79.082953000000003
10
227.45178900000002
20
-92.082953000000018
42
0.41421356237304302
10
227.95178900000002
20
-92.582953000000003
10
240.95178900000008
20
-92.582953000000003
42
0.4142135623730222
0
LINE
5
347
100
AcDbEntity
8
0
100
AcDbLine
10
298.88928900000008
20
-117.18295299999991
30
0
11
298.88928900000008
21
-130.182953
31
0
0
LWPOLYLINE
5
348
100
AcDbEntity
8
0
100
AcDbPolyline
90
8
70
1
43
0.0
10
251.76428900000005
20
-135.73295300000004
42
0.41421356237314705
10
251.26428900000005
20
-136.23295300000001
10
251.26428900000002
20
-149.23295300000001
42
0.4142135623730846
10
251.76428900000005
20
-149.73295300000001
10
264.76428900000002
20
-149.73295300000001
42
0.41421356237312623
10
265.26428900000008
20
-149.23295300000001
10
265.26428899999996
20
-136.23295300000001
42
0.4142135623730222
10
264.76428900000002
20
-135.73295300000001
0
LWPOLYLINE
5
349
100
AcDbEntity
8
0
100
AcDbPolyline
90
8
70
1
43
0.0
10
284.60178900000005
20
-92.082953000000018
42
0.41421356237307422
10
285.101789
20
-92.582953000000003
10
298.10178900000005
20
-92.582953000000003
42
0.41421356237310542
10
298.601789
20
-92.082953000000018
10
298.601789
20
-79.082953000000003
42
0.41421356237314183
10
298.101789
20
-78.582953000000003
10
285.101789
20
-78.582952999999975
42
0.4142135623730846
10
284.60178900000005
20
-79.082953000000003
0
LWPOLYLINE
5
350
100
AcDbEntity
8
0
100
AcDbPolyline
90
8
70
1
43
0.0
10
236.189289
20
-130.682953
42
0.41421356237313667
10
236.689289
20
-130.182953
10
236.68928899999997
20
-117.18295300000001
42
0.4142135623730222
10
236.189289
20
-116.682953
10
223.18928900000009
20
-116.682953
42
0.41421356237313667
10
222.68928900000009
20
-117.18295300000001
10
222.68928900000009
20
-130.182953
42
0.41421356237301177
10
223.18928900000009
20
-130.682953
0
ARC
5
351
100
AcDbEntity
8
0
100
AcDbCircle
10
242.2392890000001
20
-130.18295299999994
30
0
40
0.50000000000004263
210
0
220
0
230
1
100
AcDbArc
50
180
51
269.99999999999346
0
ARC
5
352
100
AcDbEntity
8
0
100
AcDbCircle
10
294.6267890000002
20
-111.13295299999992
30
0
40
0.50000000000007816
210
0
220
0
230
1
100
AcDbArc
50
180
51
359.99998241972463
0
LWPOLYLINE
5
353
100
AcDbEntity
8
0
100
AcDbPolyline
90
8
70
1
43
0.0
10
232.21428900000006
20
-136.23295300000001
10
232.21428900000006
20
-149.23295300000001
42
0.41421356237309503
10
232.71428900000006
20
-149.73295300000001
10
245.71428900000001
20
-149.73295300000001
42
0.41421356237312623
10
246.21428900000009
20
-149.23295300000001
10
246.21428899999998
20
-136.23295300000001
42
0.4142135623730222
10
245.71428900000001
20
-135.73295300000001
10
232.71428900000006
20
-135.73295300000001
42
0.41421356237313667
0
LINE
5
354
100
AcDbEntity
8
0
100
AcDbLine
10
298.88928900000008
20
-130.182953
30
0
11
299.38928900000002
21
-130.68295299999994
31
0
0
ARC
5
355
100
AcDbEntity
8
0
100
AcDbCircle
10
78.095539000000002
20
-117.18295300000001
30
0
40
0.5000004940250018
210
0
220
-0
230
1
100
AcDbArc
50
88.721397118559878
51
89.999999989799448
0
LWPOLYLINE
5
356
100
AcDbEntity
8
0
100
AcDbPolyline
90
8
70
1
43
0.0
10
250.97678900000005
20
-111.13295300000001
10
250.97678900000005
20
-98.132953000000001
42
0.41421356237309503
10
250.47678900000005
20
-97.632953000000043
10
237.47678900000005
20
-97.632953000000015
42
0.41421356237312623
10
236.97678900000002
20
-98.132953000000001
10
236.97678900000005
20
-111.13295300000001
42
0.4142135623730222
10
237.47678900000005
20
-111.63295300000001
10
250.47678900000005
20
-111.63295300000001
42
0.41421356237313667
0
LWPOLYLINE
5
357
100
AcDbEntity
8
0
100
AcDbPolyline
90
8
70
1
43
0.0
10
302.86428900000004
20
-149.73295300000004
42
0.41421356237312623
10
303.36428899999999
20
-149.23295300000001
10
303.36428899999999
20
-136.23295300000001
42
0.41421356237321988
10
302.86428899999999
20
-135.73295300000001
10
289.86428899999999
20
-135.73295300000001
42
0.41421356237307422
10
289.3642890000001
20
-136.23295300000001
10
289.36428899999999
20
-149.23295300000001
42
0.41421356237301177
10
289.86428899999999
20
-149.73295300000001
0
LWPOLYLINE
5
358
100
AcDbEntity
8
0
100
AcDbPolyline
90
8
70
1
43
0.0
10
283.81428900000003
20
-135.73295300000001
10
270.81428900000003
20
-135.73295300000001
42
0.41421356237313667
10
270.31428900000003
20
-136.23295300000001
10
270.31428900000003
20
-149.23295300000001
42
0.41421356237301177
10
270.81428900000003
20
-149.73295300000001
10
283.81428900000003
20
-149.73295300000001
42
0.4142135623730534
10
284.31428900000009
20
-149.23295300000001
10
284.31428900000014
20
-136.23295300000001
42
0.41421356237312623
0
LWPOLYLINE
5
359
100
AcDbEntity
8
0
100
AcDbPolyline
90
8
70
1
43
0.0
10
246.501789
20
-92.082953000000018
42
0.41421356237312623
10
247.001789
20
-92.582953000000003
10
260.00178900000009
20
-92.582953000000003
42
0.41421356237310542
10
260.50178900000003
20
-92.082953000000018
10
260.50178900000003
20
-79.082953000000003
42
0.41421356237314183
10
260.00178900000003
20
-78.582953000000003
10
247.001789
20
-78.582953000000003
42
0.41421356237313145
10
246.501789
20
-79.082953000000003
0
LWPOLYLINE
5
360
100
AcDbEntity
8
0
100
AcDbPolyline
90
8
70
1
43
0.0
10
321.90753899999999
20
-117.68295299999998
42
0.41421356237329271
10
321.40753899999999
20
-118.18295300000001
10
321.40753900000021
20
-132.182953
42
0.41421356237297013
10
321.90753899999999
20
-132.682953
10
327.90753900000021
20
-132.68295299999997
42
0.41421356237304302
10
328.4075390000001
20
-132.182953
10
328.40753900000016
20
-118.18295300000001
42
0.41421356237329271
10
327.90753900000021
20
-117.682953
0
LINE
5
361
100
AcDbEntity
8
0
100
AcDbLine
10
218.42678900000004
20
-111.63295300000001
30
0
11
231.42678900000007
21
-111.63295300000001
31
0
0
LINE
5
362
100
AcDbEntity
8
0
100
AcDbLine
10
213.16428900000002
20
-136.23295300000001
30
0
11
213.164289
21
-149.23295300000001
31
0
0
ARC
5
363
100
AcDbEntity
8
0
100
AcDbCircle
10
-231.42678900000004
20
-111.13295300000001
30
0
40
0.50000000000000711
210
0
220
0
230
-1
100
AcDbArc
50
180
51
359.99998241972463
0
ARC
5
364
100
AcDbEntity
8
0
100
AcDbCircle
10
-218.42678900000004
20
-98.132953000000057
30
0
40
0.50000000000004263
210
0
220
0
230
-1
100
AcDbArc
50
0
51
180.00001983990668
0
CIRCLE
5
365
100
AcDbEntity
8
0
100
AcDbCircle
10
120.20000000000002
20
-173.40000000000001
30
0
40
1.1000000000000001
210
0
220
0
230
1
0
LINE
5
366
100
AcDbEntity
8
0
100
AcDbLine
10
213.66428900000002
20
-149.73295300000004
30
0
11
226.66428900000002
21
-149.73295300000001
31
0
0
ARC
5
367
100
AcDbEntity
8
0
100
AcDbCircle
10
213.66428900000005
20
-149.23295300000001
30
0
40
0.50000000000000711
210
0
220
0
230
1
100
AcDbArc
50
180
51
269.99999999999676
0
ENDSEC
0
SECTION
2
OBJECTS
0
DICTIONARY
5
C
100
AcDbDictionary
3
ACAD_GROUP
350
D
3
ACAD_MLINESTYLE
350
17
0
DICTIONARY
5
D
100
AcDbDictionary
0
DICTIONARY
5
1A
330
C
100
AcDbDictionary
0
DICTIONARY
5
17
100
AcDbDictionary
0
ENDSEC
0
EOF
