0
SECTION
2
HEADER
9
$INSUNITS
70
4
9
$ACADVER
1
AC1014
9
$HANDSEED
5
FFFF
0
ENDSEC
0
SECTION
2
TABLES
0
TABLE
2
VPORT
5
8
100
AcDbSymbolTable
0
ENDTAB
0
TABLE
2
LTYPE
5
5
100
AcDbSymbolTable
0
LTYPE
5
14
100
AcDbSymbolTableRecord
100
AcDbLinetypeTableRecord
2
BYBLOCK
70
0
0
LTYPE
5
15
100
AcDbSymbolTableRecord
100
AcDbLinetypeTableRecord
2
BYLAYER
70
0
0
ENDTAB
0
TABLE
2
LAYER
5
2
100
AcDbSymbolTable
70
2
0
LAYER
5
50
100
AcDbSymbolTableRecord
100
AcDbLayerTableRecord
2
0
70
0
6
CONTINUOUS
0
ENDTAB
0
TABLE
2
STYLE
5
3
100
AcDbSymbolTable
70
1
0
STYLE
5
11
100
AcDbSymbolTableRecord
100
AcDbTextStyleTableRecord
2
STANDARD
70
0
0
ENDTAB
0
TABLE
2
VIEW
5
6
100
AcDbSymbolTable
70
0
0
ENDTAB
0
TABLE
2
UCS
5
7
100
AcDbSymbolTable
70
0
0
ENDTAB
0
TABLE
2
APPID
5
9
100
AcDbSymbolTable
70
2
0
APPID
5
12
100
AcDbSymbolTableRecord
100
AcDbRegAppTableRecord
2
ACAD
70
0
0
ENDTAB
0
TABLE
2
DIMSTYLE
5
A
100
AcDbSymbolTable
70
1
0
ENDTAB
0
TABLE
2
BLOCK_RECORD
5
1
100
AcDbSymbolTable
70
1
0
BLOCK_RECORD
5
1F
100
AcDbSymbolTableRecord
100
AcDbBlockTableRecord
2
*MODEL_SPACE
0
BLOCK_RECORD
5
1B
100
AcDbSymbolTableRecord
100
AcDbBlockTableRecord
2
*PAPER_SPACE
0
ENDTAB
0
ENDSEC
0
SECTION
2
BLOCKS
0
BLOCK
5
20
100
AcDbEntity
100
AcDbBlockBegin
2
*MODEL_SPACE
0
ENDBLK
5
21
100
AcDbEntity
100
AcDbBlockEnd
0
BLOCK
5
1C
100
AcDbEntity
100
AcDbBlockBegin
2
*PAPER_SPACE
0
ENDBLK
5
1D
100
AcDbEntity
100
AcDbBlockEnd
0
ENDSEC
0
SECTION
2
ENTITIES
0
ARC
5
100
100
AcDbEntity
8
0
100
AcDbCircle
10
-286.08803399999999
20
147.78009
30
0
40
3.5000000000000142
210
0
220
0
230
1
100
AcDbArc
50
0
51
180
0
LINE
5
101
100
AcDbEntity
8
0
100
AcDbLine
10
-289.58803399999999
20
147.78009
30
0
11
-289.58803399999999
21
146.68009000000001
31
0
0
ARC
5
102
100
AcDbEntity
8
0
100
AcDbCircle
10
-290.58803399999999
20
146.68009000000001
30
0
40
0.99999999999999645
210
0
220
0
230
1
100
AcDbArc
50
-90
51
0
0
LINE
5
103
100
AcDbEntity
8
0
100
AcDbLine
10
-290.58803399999999
20
145.68009000000001
30
0
11
-294.61303400000008
21
145.68009000000001
31
0
0
ARC
5
104
100
AcDbEntity
8
0
100
AcDbCircle
10
-294.61303400000008
20
144.68009000000001
30
0
40
0.99999999999999645
210
0
220
-0
230
1
100
AcDbArc
50
90
51
180
0
LINE
5
105
100
AcDbEntity
8
0
100
AcDbLine
10
-295.61303400000008
20
144.68009000000001
30
0
11
-295.61303400000003
21
51.430091000000004
31
0
0
ARC
5
106
100
AcDbEntity
8
0
100
AcDbCircle
10
-294.61303400000008
20
51.430091000000004
30
0
40
0.99999999999997868
210
0
220
0
230
1
100
AcDbArc
50
180
51
270
0
LINE
5
107
100
AcDbEntity
8
0
100
AcDbLine
10
-294.61303400000008
20
50.430091000000004
30
0
11
-290.58803399999999
21
50.430090999999997
31
0
0
ARC
5
108
100
AcDbEntity
8
0
100
AcDbCircle
10
-290.58803399999999
20
49.430091000000004
30
0
40
1.0000000000000142
210
0
220
0
230
1
100
AcDbArc
50
0
51
90
0
LINE
5
109
100
AcDbEntity
8
0
100
AcDbLine
10
-289.58803399999999
20
49.430091000000004
30
0
11
-289.58803399999999
21
48.33009100000001
31
0
0
ARC
5
110
100
AcDbEntity
8
0
100
AcDbCircle
10
-286.08803399999999
20
48.33009100000001
30
0
40
3.5000000000000142
210
0
220
0
230
1
100
AcDbArc
50
-180
51
0
0
LINE
5
111
100
AcDbEntity
8
0
100
AcDbLine
10
-282.58803399999999
20
48.33009100000001
30
0
11
-282.58803399999999
21
49.430091000000004
31
0
0
ARC
5
112
100
AcDbEntity
8
0
100
AcDbCircle
10
-281.58803399999999
20
49.430091000000004
30
0
40
0.99999999999999645
210
0
220
-0
230
1
100
AcDbArc
50
90
51
180
0
LINE
5
113
100
AcDbEntity
8
0
100
AcDbLine
10
-281.58803399999999
20
50.430090999999997
30
0
11
-235.53803400000004
21
50.430090999999997
31
0
0
ARC
5
114
100
AcDbEntity
8
0
100
AcDbCircle
10
-235.53803400000004
20
49.430091000000004
30
0
40
1.0000000000000142
210
0
220
0
230
1
100
AcDbArc
50
0
51
90
0
LINE
5
115
100
AcDbEntity
8
0
100
AcDbLine
10
-234.53803400000001
20
49.430091000000004
30
0
11
-234.53803400000001
21
48.33009100000001
31
0
0
ARC
5
116
100
AcDbEntity
8
0
100
AcDbCircle
10
-231.03803400000004
20
48.33009100000001
30
0
40
3.4999999999999787
210
0
220
0
230
1
100
AcDbArc
50
-180
51
5.3997386567638338e-06
0
LINE
5
117
100
AcDbEntity
8
0
100
AcDbLine
10
-227.53803400000007
20
48.330091329859997
30
0
11
-227.53803400000004
21
49.430091000000004
31
0
0
ARC
5
118
100
AcDbEntity
8
0
100
AcDbCircle
10
-226.53803400000001
20
49.430091000000004
30
0
40
0.99999999999999645
210
0
220
-0
230
1
100
AcDbArc
50
90
51
180
0
LINE
5
119
100
AcDbEntity
8
0
100
AcDbLine
10
-226.53803400000001
20
50.430090999999997
30
0
11
-138.18803400000002
21
50.430090999999997
31
0
0
ARC
5
120
100
AcDbEntity
8
0
100
AcDbCircle
10
-138.18803400000002
20
49.430091000000004
30
0
40
0.99999999999999645
210
0
220
0
230
1
100
AcDbArc
50
0
51
90
0
LINE
5
121
100
AcDbEntity
8
0
100
AcDbLine
10
-137.18803400000002
20
49.430091000000004
30
0
11
-137.18803399999999
21
48.33009100000001
31
0
0
ARC
5
122
100
AcDbEntity
8
0
100
AcDbCircle
10
-133.68803399999999
20
48.33009100000001
30
0
40
3.4999999999999964
210
0
220
0
230
1
100
AcDbArc
50
-180
51
0
0
LINE
5
123
100
AcDbEntity
8
0
100
AcDbLine
10
-130.18803399999999
20
48.33009100000001
30
0
11
-130.18803399999999
21
49.430091000000004
31
0
0
ARC
5
124
100
AcDbEntity
8
0
100
AcDbCircle
10
-129.18803399999999
20
49.430091000000004
30
0
40
0.99999999999999645
210
0
220
-0
230
1
100
AcDbArc
50
90
51
180
0
LINE
5
125
100
AcDbEntity
8
0
100
AcDbLine
10
-129.18803399999999
20
50.430090999999997
30
0
11
-40.83803300000001
21
50.430090999999997
31
0
0
ARC
5
126
100
AcDbEntity
8
0
100
AcDbCircle
10
-40.838033000000003
20
49.430091000000004
30
0
40
1.0000000000000009
210
0
220
0
230
1
100
AcDbArc
50
0
51
90.000000000000398
0
LINE
5
127
100
AcDbEntity
8
0
100
AcDbLine
10
-39.838033000000003
20
49.430091000000004
30
0
11
-39.838033000000003
21
48.33009100000001
31
0
0
ARC
5
128
100
AcDbEntity
8
0
100
AcDbCircle
10
-36.338033000000003
20
48.33009100000001
30
0
40
3.5000000000000009
210
0
220
0
230
1
100
AcDbArc
50
-180
51
0
0
LINE
5
129
100
AcDbEntity
8
0
100
AcDbLine
10
-32.838033000000003
20
48.33009100000001
30
0
11
-32.83803300000001
21
49.430091000000004
31
0
0
ARC
5
130
100
AcDbEntity
8
0
100
AcDbCircle
10
-31.838033000000003
20
49.430091000000004
30
0
40
0.99999999999999645
210
0
220
-0
230
1
100
AcDbArc
50
90
51
180
0
LINE
5
131
100
AcDbEntity
8
0
100
AcDbLine
10
-31.838033000000003
20
50.430090999999997
30
0
11
8.1869670000000028
21
50.430090999999997
31
0
0
ARC
5
132
100
AcDbEntity
8
0
100
AcDbCircle
10
8.1869669999999992
20
51.430091000000004
30
0
40
1.0000000000000053
210
0
220
0
230
1
100
AcDbArc
50
-89.999999999999801
51
0
0
LINE
5
133
100
AcDbEntity
8
0
100
AcDbLine
10
9.1869669999999992
20
51.430091000000004
30
0
11
9.1869660000000017
21
144.68009000000001
31
0
0
ARC
5
134
100
AcDbEntity
8
0
100
AcDbCircle
10
8.186966
20
144.68009000000001
30
0
40
1.0000000000000009
210
0
220
0
230
1
100
AcDbArc
50
0
51
90
0
LINE
5
135
100
AcDbEntity
8
0
100
AcDbLine
10
8.186966
20
145.68009000000001
30
0
11
-31.838034000000004
21
145.68009049977141
31
0
0
ARC
5
136
100
AcDbEntity
8
0
100
AcDbCircle
10
-31.838034000000004
20
146.68009000000001
30
0
40
0.99999899999999808
210
0
220
0
230
1
100
AcDbArc
50
180
51
270
0
LINE
5
137
100
AcDbEntity
8
0
100
AcDbLine
10
-32.838033000000003
20
146.68009000000001
30
0
11
-32.83803300000001
21
147.78009
31
0
0
ARC
5
138
100
AcDbEntity
8
0
100
AcDbCircle
10
-36.338033000000003
20
147.78009
30
0
40
3.4999999999999964
210
0
220
0
230
1
100
AcDbArc
50
0
51
180
0
LINE
5
139
100
AcDbEntity
8
0
100
AcDbLine
10
-39.838033000000003
20
147.78009
30
0
11
-39.838033000000003
21
146.68009000000001
31
0
0
ARC
5
140
100
AcDbEntity
8
0
100
AcDbCircle
10
-40.838033000000003
20
146.68009000000001
30
0
40
0.99999999999999645
210
0
220
0
230
1
100
AcDbArc
50
-90
51
0
0
LINE
5
141
100
AcDbEntity
8
0
100
AcDbLine
10
-40.838033000000003
20
145.68009000000001
30
0
11
-129.18803399999999
21
145.68009000000001
31
0
0
ARC
5
142
100
AcDbEntity
8
0
100
AcDbCircle
10
-129.18803399999999
20
146.68009000000001
30
0
40
0.99999999999999645
210
0
220
0
230
1
100
AcDbArc
50
180
51
270
0
LINE
5
143
100
AcDbEntity
8
0
100
AcDbLine
10
-130.18803399999999
20
146.68009000000001
30
0
11
-130.18803399999999
21
147.78009
31
0
0
ARC
5
144
100
AcDbEntity
8
0
100
AcDbCircle
10
-133.68803399999999
20
147.78009
30
0
40
3.4999999999999964
210
0
220
0
230
1
100
AcDbArc
50
0
51
180
0
LINE
5
145
100
AcDbEntity
8
0
100
AcDbLine
10
-137.18803399999999
20
147.78009
30
0
11
-137.18803399999999
21
146.68009000000001
31
0
0
ARC
5
146
100
AcDbEntity
8
0
100
AcDbCircle
10
-138.18803400000002
20
146.68009000000001
30
0
40
0.99999999999999645
210
0
220
0
230
1
100
AcDbArc
50
-90
51
0
0
LINE
5
147
100
AcDbEntity
8
0
100
AcDbLine
10
-138.18803400000002
20
145.68009000000001
30
0
11
-226.53803400000001
21
145.68009000000001
31
0
0
ARC
5
148
100
AcDbEntity
8
0
100
AcDbCircle
10
-226.53803400000001
20
146.68009000000001
30
0
40
1.0000000000000142
210
0
220
0
230
1
100
AcDbArc
50
180
51
270
0
LINE
5
149
100
AcDbEntity
8
0
100
AcDbLine
10
-227.53803400000004
20
146.68009000000001
30
0
11
-227.53803400000004
21
147.78009
31
0
0
ARC
5
150
100
AcDbEntity
8
0
100
AcDbCircle
10
-231.03803400000004
20
147.78009
30
0
40
3.5000000000000142
210
0
220
0
230
1
100
AcDbArc
50
0
51
180
0
LINE
5
151
100
AcDbEntity
8
0
100
AcDbLine
10
-234.53803400000004
20
147.78009
30
0
11
-234.53803400000001
21
146.68009000000001
31
0
0
ARC
5
152
100
AcDbEntity
8
0
100
AcDbCircle
10
-235.53803400000004
20
146.68009000000001
30
0
40
0.99999999999999645
210
0
220
0
230
1
100
AcDbArc
50
-90
51
0
0
LINE
5
153
100
AcDbEntity
8
0
100
AcDbLine
10
-235.53803400000004
20
145.68009000000001
30
0
11
-281.58803399999999
21
145.68009000000001
31
0
0
ARC
5
154
100
AcDbEntity
8
0
100
AcDbCircle
10
-281.58803399999999
20
146.68009000000001
30
0
40
1.0000000000000142
210
0
220
0
230
1
100
AcDbArc
50
180
51
270
0
LINE
5
155
100
AcDbEntity
8
0
100
AcDbLine
10
-282.58803399999999
20
146.68009000000001
30
0
11
-282.58803399999999
21
147.78009
31
0
0
LWPOLYLINE
5
156
100
AcDbEntity
8
0
100
AcDbPolyline
90
10
70
1
43
0.0
10
-252.430418
20
110.105187
10
-251.94428400000004
20
110.105187
42
0.41421356237309503
10
-251.44428400000004
20
110.60518700000002
10
-251.44428400000004
20
123.605186
42
0.4142135623730846
10
-251.94428300000001
20
124.105187
10
-252.94428400000001
20
124.10518600000002
42
0.41421356237310542
10
-253.44428300000004
20
123.60518500000001
10
-253.44428400000001
20
110.60518700000002
42
0.4142135623730846
10
-252.94428500000004
20
110.105186
10
-252.45814899999999
20
110.105187
0
LWPOLYLINE
5
157
100
AcDbEntity
8
0
100
AcDbPolyline
90
12
70
1
43
0.0
10
-220.66439900000003
20
110.105187
10
-220.65053399999999
20
110.10509
10
-208.65053399999999
20
110.10509
10
-208.63666800000001
20
110.105187
10
-208.15053399999999
20
110.105187
42
0.41421356237309503
10
-207.65053399999999
20
110.60518700000002
10
-207.65053400000002
20
123.605186
42
0.4142135623730846
10
-208.150532
20
124.10518600000002
10
-221.15053399999999
20
124.10518600000002
42
0.41421356237309503
10
-221.65053400000002
20
123.605186
10
-221.65053400000002
20
110.60518700000002
42
0.4142135623730846
10
-221.15053500000002
20
110.105186
0
LWPOLYLINE
5
158
100
AcDbEntity
8
0
100
AcDbPolyline
90
12
70
1
43
0.0
10
-54.963035000000005
20
85.505186000000009
42
-0.41421356237309503
10
-54.463034000000007
20
86.005187000000006
10
-41.463034
20
86.005186000000009
42
-0.41421356237309503
10
-40.963034
20
85.505186000000009
10
-40.963034999999991
20
72.505185999999995
42
-0.41421356237309503
10
-41.463034
20
72.005186999999992
10
-41.949168000000007
20
72.005187000000006
10
-41.963034000000007
20
72.005089999999996
10
-53.963034000000007
20
72.005089999999996
10
-53.976899000000003
20
72.005187000000006
10
-54.463034000000007
20
72.005185999999995
42
-0.41421356237309503
10
-54.963034000000007
20
72.505185999999995
0
LWPOLYLINE
5
159
100
AcDbEntity
8
0
100
AcDbPolyline
90
12
70
1
43
0.0
10
-46.71166800000001
20
91.05518600000002
10
-46.225534000000003
20
91.05518600000002
42
0.41421356237309503
10
-45.725534000000003
20
91.555186000000006
10
-45.725534000000003
20
104.555187
42
0.41421356237309503
10
-46.225534000000003
20
105.05518700000002
10
-59.22553400000001
20
105.05518700000002
42
0.41421356237309503
10
-59.72553400000001
20
104.555187
10
-59.72553400000001
20
91.555186000000006
42
0.41421356237309503
10
-59.22553400000001
20
91.05518600000002
10
-58.739398999999999
20
91.05518600000002
10
-58.72553400000001
20
91.055090000000007
10
-46.72553400000001
20
91.055090000000007
0
LWPOLYLINE
5
160
100
AcDbEntity
8
0
100
AcDbPolyline
90
12
70
1
43
0.0
10
-49.214399
20
110.105187
10
-49.200534000000005
20
110.10509
10
-37.200533999999998
20
110.10509
10
-37.186667999999997
20
110.105187
10
-36.700533999999998
20
110.105187
42
0.41421356237309503
10
-36.200533999999998
20
110.60518700000002
10
-36.200534000000005
20
123.605186
42
0.41421356237309503
10
-36.700533999999998
20
124.10518600000002
10
-49.700534000000005
20
124.10518600000002
42
0.41421356237309503
10
-50.200534000000005
20
123.605186
10
-50.200534000000005
20
110.60518700000002
42
0.41421356237308982
10
-49.700535000000002
20
110.105186
0
LWPOLYLINE
5
161
100
AcDbEntity
8
0
100
AcDbPolyline
90
12
70
1
43
0.0
10
-55.250534000000009
20
110.60518500000001
10
-55.250534000000009
20
123.605186
42
0.41421356237309503
10
-55.750534000000009
20
124.10518600000002
10
-68.750534000000002
20
124.10518600000002
42
0.41421356237309503
10
-69.250534000000002
20
123.605186
10
-69.250534000000002
20
110.60518700000002
42
0.41421356237309503
10
-68.750534000000002
20
110.105187
10
-68.264398999999997
20
110.105187
10
-68.250534000000002
20
110.10509
10
-56.250534000000002
20
110.10509
10
-56.236668000000009
20
110.105187
10
-55.750534000000009
20
110.10518700000003
42
0.41421356237308982
0
LWPOLYLINE
5
162
100
AcDbEntity
8
0
100
AcDbPolyline
90
12
70
1
43
0.0
10
-65.275533999999993
20
105.05518699999999
42
-0.41421356237309503
10
-64.775533999999993
20
104.555187
10
-64.775533999999993
20
91.555186000000006
42
-0.41421356237309503
10
-65.275533999999993
20
91.055185999999992
10
-65.761668
20
91.05518600000002
10
-65.775533999999993
20
91.055090000000007
10
-77.775533999999993
20
91.055090000000007
10
-77.789399000000003
20
91.05518600000002
10
-78.275531999999998
20
91.055185999999992
42
-0.41421356237309503
10
-78.775533999999993
20
91.555186000000006
10
-78.775533999999993
20
104.555187
42
-0.41421356237309503
10
-78.275533999999993
20
105.05518700000002
0
LWPOLYLINE
5
163
100
AcDbEntity
8
0
100
AcDbPolyline
90
12
70
1
43
0.0
10
-75.286668000000006
20
110.105187
10
-74.800533999999999
20
110.105187
42
0.41421356237309503
10
-74.300533000000001
20
110.60518600000002
10
-74.300533000000001
20
123.605186
42
0.41421356237309503
10
-74.800533999999999
20
124.105187
10
-87.800533999999999
20
124.10518600000002
42
0.41421356237309503
10
-88.300533999999999
20
123.605186
10
-88.300533999999999
20
110.60518700000002
42
0.41421356237309503
10
-87.800534999999996
20
110.105186
10
-87.314398999999995
20
110.105187
10
-87.300534000000013
20
110.10509
10
-75.300533000000001
20
110.10509
0
LWPOLYLINE
5
164
100
AcDbEntity
8
0
100
AcDbPolyline
90
12
70
1
43
0.0
10
-92.563033000000004
20
72.005187000000006
42
-0.4142135623730846
10
-93.063034000000016
20
72.505185999999995
10
-93.063034999999999
20
85.505186000000009
42
-0.41421356237309503
10
-92.563034000000002
20
86.005187000000006
10
-79.563033000000004
20
86.005187000000021
42
-0.41421356237310542
10
-79.063034000000002
20
85.505186000000009
10
-79.063034000000002
20
72.505184999999997
42
-0.41421356237309503
10
-79.563034000000002
20
72.005186999999992
10
-80.049168000000009
20
72.005187000000006
10
-80.063034000000002
20
72.005089999999996
10
-92.063034000000016
20
72.005089999999996
10
-92.076898999999997
20
72.005187000000006
0
LWPOLYLINE
5
165
100
AcDbEntity
8
0
100
AcDbPolyline
90
12
70
1
43
0.0
10
-31.438033000000001
20
53.455187000000002
10
-31.438033999999998
20
66.455186999999995
42
0.41421356237309503
10
-31.938034000000002
20
66.955186999999995
10
-44.938034000000002
20
66.955186999999995
42
0.41421356237309503
10
-45.438034000000009
20
66.455186999999995
10
-45.438034000000002
20
53.455187000000002
42
0.41421356237309503
10
-44.938034999999999
20
52.955186000000005
10
-44.451898999999997
20
52.955187000000009
10
-44.438034000000002
20
52.955089999999998
10
-32.438034000000002
20
52.955089999999998
10
-32.424168000000002
20
52.955186000000005
10
-31.938034000000002
20
52.955186000000005
42
0.41421356237309503
0
LWPOLYLINE
5
166
100
AcDbEntity
8
0
100
AcDbPolyline
90
12
70
1
43
0.0
10
-64.488034999999996
20
66.455185999999998
42
-0.41421356237309503
10
-63.988033999999999
20
66.955186999999995
10
-50.988034000000006
20
66.955186999999995
42
-0.41421356237309503
10
-50.488034000000006
20
66.455186999999995
10
-50.488034000000006
20
53.455185999999998
42
-0.41421356237309503
10
-50.988034000000006
20
52.955186000000005
10
-51.474168000000006
20
52.955186000000005
10
-51.488033999999999
20
52.955089999999998
10
-63.488034000000006
20
52.955089999999998
10
-63.501899000000002
20
52.955187000000009
10
-63.988033999999999
20
52.955187000000009
42
-0.41421356237309503
10
-64.488033999999999
20
53.455187000000002
0
LWPOLYLINE
5
167
100
AcDbEntity
8
0
100
AcDbPolyline
90
12
70
1
43
0.0
10
-74.013034000000005
20
85.505187000000006
10
-74.013034000000005
20
72.505185999999995
42
0.41421356237309503
10
-73.513032999999993
20
72.005187000000006
10
-73.026899000000014
20
72.005187000000006
10
-73.013034000000005
20
72.005089999999996
10
-61.013033999999998
20
72.005089999999996
10
-60.999167999999997
20
72.005187000000006
10
-60.513034000000005
20
72.005186999999992
42
0.41421356237309503
10
-60.013035000000002
20
72.505185999999995
10
-60.013034000000005
20
85.505186000000009
42
0.41421356237309503
10
-60.513034000000005
20
86.005185999999995
10
-73.513034000000005
20
86.005187000000021
42
0.41421356237309503
0
LWPOLYLINE
5
168
100
AcDbEntity
8
0
100
AcDbPolyline
90
12
70
1
43
0.0
10
-83.038033999999996
20
52.955187000000009
10
-82.55189900000002
20
52.955186000000005
10
-82.53803400000001
20
52.955089999999998
10
-70.538033999999996
20
52.955089999999998
10
-70.524168000000003
20
52.955186000000005
10
-70.038033999999996
20
52.955186000000005
42
0.41421356237309503
10
-69.538033999999996
20
53.455185999999998
10
-69.538033999999996
20
66.455186999999995
42
0.41421356237309503
10
-70.038033999999996
20
66.955186999999995
10
-83.038033999999996
20
66.955186999999995
42
0.41421356237309503
10
-83.53803400000001
20
66.455186999999995
10
-83.53803400000001
20
53.455187000000002
42
0.41421356237309503
0
LWPOLYLINE
5
169
100
AcDbEntity
8
0
100
AcDbPolyline
90
12
70
1
43
0.0
10
-22.899168
20
72.005187000000006
10
-22.413034
20
72.005187000000006
42
0.41421356237309503
10
-21.913035000000001
20
72.505185999999995
10
-21.913034000000003
20
85.505186000000009
42
0.41421356237309503
10
-22.413034
20
86.005185999999995
10
-35.413034000000003
20
86.005187000000006
42
0.41421356237308982
10
-35.913034000000003
20
85.505185000000012
10
-35.913032999999999
20
72.505185999999995
42
0.41421356237309503
10
-35.413032999999999
20
72.005185999999995
10
-34.926899000000006
20
72.005187000000006
10
-34.913034000000003
20
72.005089999999996
10
-22.913034
20
72.005089999999996
0
LWPOLYLINE
5
170
100
AcDbEntity
8
0
100
AcDbPolyline
90
12
70
1
43
0.0
10
-280.07416799999999
20
52.955186000000005
10
-279.58803399999999
20
52.955186000000005
42
0.41421356237309503
10
-279.088033
20
53.455187000000002
10
-279.08803399999999
20
66.455186999999995
42
0.41421356237309503
10
-279.58803399999999
20
66.955186999999995
10
-292.58803399999999
20
66.955186999999995
42
0.41421356237309503
10
-293.08803499999999
20
66.455185999999998
10
-293.08803399999999
20
53.455187000000002
42
0.41421356237311063
10
-292.58803499999999
20
52.955186000000005
10
-292.101899
20
52.955186000000005
10
-292.08803399999999
20
52.955089999999998
10
-280.08803399999999
20
52.955089999999998
0
LWPOLYLINE
5
171
100
AcDbEntity
8
0
100
AcDbPolyline
90
12
70
1
43
0.0
10
-292.58803399999999
20
72.005185999999981
42
-0.41421356237309503
10
-293.08803399999999
20
72.505185999999995
10
-293.08803500000005
20
85.505186000000009
42
-0.41421356237309503
10
-292.58803399999999
20
86.005187000000006
10
-279.588033
20
86.005187000000021
42
-0.41421356237309503
10
-279.08803399999999
20
85.505186000000009
10
-279.08803399999999
20
72.505187000000006
42
-0.41421356237309503
10
-279.58803399999999
20
72.005187000000006
10
-280.07416799999999
20
72.005187000000006
10
-280.08803399999999
20
72.005089999999996
10
-292.08803399999999
20
72.005089999999996
10
-292.101899
20
72.005187000000006
0
LWPOLYLINE
5
172
100
AcDbEntity
8
0
100
AcDbPolyline
90
12
70
1
43
0.0
10
-255.775532
20
86.005187000000021
42
-0.41421356237309503
10
-255.275533
20
85.505186000000009
10
-255.275533
20
72.505187000000006
42
-0.41421356237309503
10
-255.77553300000002
20
72.005187000000006
10
-256.26166799999999
20
72.005187000000006
10
-256.275533
20
72.005089999999996
10
-268.27553399999999
20
72.005089999999996
10
-268.289399
20
72.005187000000006
10
-268.775533
20
72.005187000000006
42
-0.41421356237307422
10
-269.27553399999999
20
72.505185999999995
10
-269.27553399999999
20
85.505185000000012
42
-0.41421356237310542
10
-268.77553399999999
20
86.005187000000006
0
LWPOLYLINE
5
173
100
AcDbEntity
8
0
100
AcDbPolyline
90
10
70
1
43
0.0
10
-250.68939900000004
20
72.005187000000006
10
-250.66166800000002
20
72.005187000000006
10
-250.175534
20
72.005187000000006
42
0.41421356237309503
10
-249.675534
20
72.505187000000006
10
-249.675534
20
85.505186000000009
42
0.41421356237311585
10
-250.17553300000003
20
86.005187000000006
10
-251.17553400000003
20
86.005187000000006
42
0.4142135623730846
10
-251.67553400000003
20
85.505185000000012
10
-251.67553400000003
20
72.505185999999995
42
0.41421356237309503
10
-251.17553400000003
20
72.005185999999995
0
LWPOLYLINE
5
174
100
AcDbEntity
8
0
100
AcDbPolyline
90
10
70
1
43
0.0
10
-273.88939900000003
20
72.005187000000006
10
-273.86166800000001
20
72.005187000000006
10
-273.37553400000002
20
72.005187000000006
42
0.41421356237309503
10
-272.87553400000002
20
72.505187000000006
10
-272.87553400000002
20
85.505186000000009
42
0.41421356237309503
10
-273.37553300000002
20
86.005187000000006
10
-274.37553400000002
20
86.005187000000006
42
0.41421356237310542
10
-274.87553400000002
20
85.505185000000012
10
-274.87553400000002
20
72.505185999999995
42
0.41421356237307422
10
-274.37553300000002
20
72.005187000000006
0
LWPOLYLINE
5
175
100
AcDbEntity
8
0
100
AcDbPolyline
90
24
70
1
43
0.0
10
-242.57503299999999
20
68.955185999999998
42
-0.41421356237309503
10
-242.07503400000002
20
68.455186999999995
10
-242.07503400000002
20
66.955186999999995
10
-241.488033
20
66.955185999999998
42
-0.41421356237309503
10
-240.98803400000003
20
66.455186999999995
10
-240.988033
20
53.455187000000002
42
-0.41421356237309503
10
-241.48803400000003
20
52.955186000000005
10
-241.97416799999999
20
52.955186000000005
10
-241.98803400000003
20
52.955089999999998
10
-273.03803399999998
20
52.955089999999998
10
-273.05189900000005
20
52.955186000000005
10
-273.53803499999998
20
52.955185999999998
42
-0.41421356237311063
10
-274.03803400000004
20
53.455187000000002
10
-274.03803500000004
20
66.455185999999998
42
-0.41421356237309503
10
-273.53803399999998
20
66.955186999999995
10
-272.95103400000005
20
66.955185999999998
10
-272.95103500000005
20
68.455185999999998
42
-0.41421356237309503
10
-272.45103399999999
20
68.955186999999995
10
-266.45103499999999
20
68.955186000000012
42
-0.41421356237310542
10
-265.95103399999999
20
68.455186999999995
10
-265.95103399999999
20
66.955185999999998
10
-249.07503399999999
20
66.955185999999998
10
-249.07503499999996
20
68.455185999999998
42
-0.41421356237309503
10
-248.57503399999999
20
68.955186999999995
0
LWPOLYLINE
5
176
100
AcDbEntity
8
0
100
AcDbPolyline
90
12
70
1
43
0.0
10
-264.55591800000002
20
92.055187000000004
10
-264.06978400000003
20
92.055187000000004
42
0.41421356237309503
10
-263.56978400000003
20
92.555187000000018
10
-263.56978400000003
20
106.55518700000002
42
0.41421356237309503
10
-264.06978400000003
20
107.055187
10
-270.06978400000003
20
107.055187
42
0.41421356237309503
10
-270.56978500000002
20
106.55518600000001
10
-270.56978400000003
20
92.555187000000018
42
0.41421356237311585
10
-270.06978500000002
20
92.05518600000002
10
-269.58364899999998
20
92.055187000000004
10
-269.56978400000003
20
92.055090000000007
10
-264.56978400000003
20
92.055090000000007
0
LWPOLYLINE
5
177
100
AcDbEntity
8
0
100
AcDbPolyline
90
12
70
1
43
0.0
10
-292.58803399999999
20
91.05518600000002
10
-292.101899
20
91.05518600000002
10
-292.08803399999999
20
91.055090000000007
10
-280.08803399999999
20
91.055090000000007
10
-280.07416799999999
20
91.05518600000002
10
-279.58803399999999
20
91.055185999999992
42
0.41421356237309503
10
-279.088033
20
91.555187000000004
10
-279.08803399999999
20
104.555187
42
0.41421356237309503
10
-279.58803399999999
20
105.05518700000002
10
-292.58803399999999
20
105.05518700000002
42
0.41421356237309503
10
-293.08803499999999
20
104.55518600000002
10
-293.08803399999999
20
91.555186000000006
42
0.41421356237309503
0
LWPOLYLINE
5
178
100
AcDbEntity
8
0
100
AcDbPolyline
90
12
70
1
43
0.0
10
-261.13178399999998
20
91.055090000000007
10
-249.13178400000004
20
91.055090000000007
10
-249.11791800000003
20
91.05518600000002
10
-248.63178400000004
20
91.055185999999992
42
0.41421356237309503
10
-248.13178300000004
20
91.555187000000004
10
-248.13178400000001
20
104.555187
42
0.41421356237309503
10
-248.63178400000004
20
105.05518700000002
10
-261.63178399999998
20
105.05518700000002
42
0.41421356237309503
10
-262.13178399999998
20
104.55518499999999
10
-262.13178399999998
20
91.555186000000006
42
0.41421356237309503
10
-261.63178399999998
20
91.05518600000002
10
-261.14564899999999
20
91.05518600000002
0
LWPOLYLINE
5
179
100
AcDbEntity
8
0
100
AcDbPolyline
90
12
70
1
43
0.0
10
-226.41303500000004
20
85.505186000000009
10
-226.41303400000001
20
72.505185999999995
42
0.41421356237309503
10
-225.91303400000001
20
72.005185999999995
10
-225.42689899999999
20
72.005187000000006
10
-225.41303400000004
20
72.005089999999996
10
-213.41303400000001
20
72.005089999999996
10
-213.399168
20
72.005187000000006
10
-212.91303400000004
20
72.005187000000006
42
0.41421356237309503
10
-212.41303400000004
20
72.505187000000006
10
-212.41303400000004
20
85.505186000000009
42
0.41421356237309503
10
-212.91303400000004
20
86.005185999999995
10
-225.91303400000001
20
86.005187000000006
42
0.41421356237309503
0
LWPOLYLINE
5
180
100
AcDbEntity
8
0
100
AcDbPolyline
90
12
70
1
43
0.0
10
-231.17553399999997
20
104.55518499999999
42
-0.41421356237309503
10
-230.67553400000003
20
105.05518700000002
10
-217.67553300000003
20
105.05518600000001
42
-0.41421356237309503
10
-217.17553400000003
20
104.555187
10
-217.17553299999997
20
91.555187000000004
42
-0.41421356237309503
10
-217.675534
20
91.055185999999992
10
-218.16166800000002
20
91.05518600000002
10
-218.17553400000003
20
91.055090000000007
10
-230.175534
20
91.055090000000007
10
-230.18939900000004
20
91.05518600000002
10
-230.67553400000003
20
91.055185999999992
42
-0.41421356237309503
10
-231.17553400000003
20
91.555186000000006
0
LWPOLYLINE
5
181
100
AcDbEntity
8
0
100
AcDbPolyline
90
12
70
1
43
0.0
10
-239.69378399999999
20
92.555187000000018
10
-239.69378399999999
20
106.55518700000002
42
0.41421356237309503
10
-240.193783
20
107.05518600000002
10
-246.19378400000002
20
107.055187
42
0.41421356237309503
10
-246.69378499999999
20
106.55518600000001
10
-246.69378400000002
20
92.555187000000018
42
0.41421356237311585
10
-246.19378499999999
20
92.05518600000002
10
-245.707649
20
92.055187000000004
10
-245.69378400000002
20
92.055090000000007
10
-240.69378400000002
20
92.055090000000007
10
-240.67991800000001
20
92.055187000000004
10
-240.19378399999999
20
92.055187000000004
42
0.41421356237309503
0
LWPOLYLINE
5
182
100
AcDbEntity
8
0
100
AcDbPolyline
90
12
70
1
43
0.0
10
-222.43803299999999
20
66.955185999999998
10
-235.43803400000002
20
66.955186999999995
42
0.41421356237309503
10
-235.93803500000004
20
66.455185999999998
10
-235.93803400000002
20
53.455187000000002
42
0.41421356237308982
10
-235.43803500000001
20
52.955186000000005
10
-234.951899
20
52.955186000000005
10
-234.93803400000002
20
52.955089999999998
10
-222.93803400000002
20
52.955089999999998
10
-222.92416800000001
20
52.955186000000005
10
-222.43803400000002
20
52.955186000000005
42
0.41421356237309503
10
-221.93803299999999
20
53.455187000000002
10
-221.93803400000002
20
66.455186999999995
42
0.41421356237309503
0
LWPOLYLINE
5
183
100
AcDbEntity
8
0
100
AcDbPolyline
90
12
70
1
43
0.0
10
-245.46303499999999
20
85.505186000000009
10
-245.46303399999999
20
72.505185999999995
42
0.41421356237309503
10
-244.96303400000002
20
72.005185999999995
10
-244.476899
20
72.005187000000006
10
-244.46303400000002
20
72.005089999999996
10
-232.46303400000002
20
72.005089999999996
10
-232.44916799999999
20
72.005187000000006
10
-231.96303400000002
20
72.005187000000006
42
0.41421356237309503
10
-231.46303399999999
20
72.505187000000006
10
-231.46303399999999
20
85.505186000000009
42
0.41421356237309503
10
-231.96303400000002
20
86.005185999999995
10
-244.96303400000002
20
86.005187000000006
42
0.41421356237309503
0
LWPOLYLINE
5
184
100
AcDbEntity
8
0
100
AcDbPolyline
90
12
70
1
43
0.0
10
-216.388035
20
52.955186000000005
10
-215.90189899999999
20
52.955186000000005
10
-215.88803400000003
20
52.955089999999998
10
-203.888034
20
52.955089999999998
10
-203.874168
20
52.955186000000005
10
-203.38803400000003
20
52.955186000000005
42
0.41421356237309503
10
-202.88803300000001
20
53.455187000000002
10
-202.88803400000003
20
66.455186999999995
42
0.41421356237309503
10
-203.38803300000001
20
66.955185999999998
10
-216.388034
20
66.955186999999995
42
0.41421356237309503
10
-216.88803500000003
20
66.455185999999998
10
-216.888034
20
53.455187000000002
42
0.41421356237308982
0
LWPOLYLINE
5
185
100
AcDbEntity
8
0
100
AcDbPolyline
90
12
70
1
43
0.0
10
-206.863034
20
72.005185999999995
10
-206.37689900000001
20
72.005187000000006
10
-206.36303400000003
20
72.005089999999996
10
-194.363034
20
72.005089999999996
10
-194.34916799999999
20
72.005187000000006
10
-193.86303400000003
20
72.005187000000006
42
0.41421356237309503
10
-193.36303400000003
20
72.505187000000006
10
-193.36303400000003
20
85.505186000000009
42
0.41421356237309503
10
-193.863032
20
86.005185999999995
10
-206.863034
20
86.005187000000006
42
0.41421356237309503
10
-207.36303500000002
20
85.505186000000009
10
-207.363034
20
72.505185999999995
42
0.41421356237309503
0
LWPOLYLINE
5
186
100
AcDbEntity
8
0
100
AcDbPolyline
90
12
70
1
43
0.0
10
-199.12553400000002
20
91.055090000000007
10
-199.11166800000004
20
91.05518600000002
10
-198.62553399999999
20
91.055185999999992
42
0.41421356237309503
10
-198.12553300000002
20
91.555187000000004
10
-198.12553400000002
20
104.555187
42
0.41421356237309503
10
-198.62553300000002
20
105.05518600000002
10
-211.62553400000002
20
105.05518700000002
42
0.41421356237309503
10
-212.12553400000002
20
104.55518499999999
10
-212.12553400000002
20
91.555186000000006
42
0.41421356237309503
10
-211.62553400000002
20
91.05518600000002
10
-211.13939900000003
20
91.05518600000002
10
-211.12553399999999
20
91.055090000000007
0
LWPOLYLINE
5
187
100
AcDbEntity
8
0
100
AcDbPolyline
90
12
70
1
43
0.0
10
-121.63803300000001
20
66.455186999999995
42
-0.41421356237309503
10
-121.13803300000001
20
66.955186999999995
10
-108.138034
20
66.955187000000009
42
-0.41421356237309503
10
-107.638034
20
66.455186999999995
10
-107.638034
20
53.455185999999998
42
-0.41421356237309503
10
-108.138034
20
52.955186000000005
10
-108.624168
20
52.955186000000005
10
-108.63803400000002
20
52.955089999999998
10
-120.63803300000001
20
52.955089999999998
10
-120.651899
20
52.955186000000005
10
-121.13803300000001
20
52.955186999999995
42
-0.41421356237309503
10
-121.63803300000001
20
53.455187000000002
0
LWPOLYLINE
5
188
100
AcDbEntity
8
0
100
AcDbPolyline
90
12
70
1
43
0.0
10
-126.688033
20
53.455187000000002
42
-0.41421356237309503
10
-127.188034
20
52.955186000000005
10
-127.67416799999999
20
52.955186000000005
10
-127.68803400000002
20
52.955089999999998
10
-139.68803399999999
20
52.955089999999998
10
-139.70189900000003
20
52.955186000000005
10
-140.18803500000001
20
52.955185999999998
42
-0.41421356237307944
10
-140.68803400000002
20
53.455187000000002
10
-140.68803400000002
20
66.455186999999995
42
-0.41421356237309503
10
-140.18803399999999
20
66.955186999999995
10
-127.188035
20
66.955186000000012
42
-0.41421356237308982
10
-126.688034
20
66.455186999999995
0
LWPOLYLINE
5
189
100
AcDbEntity
8
0
100
AcDbPolyline
90
12
70
1
43
0.0
10
-98.613033999999999
20
86.005185999999995
10
-111.61303400000001
20
86.005187000000006
42
0.41421356237309503
10
-112.113035
20
85.505186000000009
10
-112.11303400000003
20
72.505185999999995
42
0.41421356237309503
10
-111.613033
20
72.005187000000006
10
-111.12689899999999
20
72.005187000000006
10
-111.113034
20
72.005089999999996
10
-99.113034000000013
20
72.005089999999996
10
-99.09916800000002
20
72.005187000000006
10
-98.613033999999999
20
72.005186999999992
42
0.41421356237309503
10
-98.113035000000011
20
72.505185999999995
10
-98.113033999999999
20
85.505186000000009
42
0.41421356237309503
0
LWPOLYLINE
5
190
100
AcDbEntity
8
0
100
AcDbPolyline
90
12
70
1
43
0.0
10
-118.149168
20
72.005187000000006
10
-117.663034
20
72.005187000000006
42
0.41421356237309503
10
-117.16303400000001
20
72.505187000000006
10
-117.163034
20
85.505186000000009
42
0.41421356237309503
10
-117.663034
20
86.005185999999995
10
-130.66303400000004
20
86.005187000000021
42
0.41421356237309503
10
-131.16303400000001
20
85.505187000000006
10
-131.16303400000004
20
72.505185999999995
42
0.41421356237309503
10
-130.66303400000004
20
72.005185999999995
10
-130.17689899999999
20
72.005187000000006
10
-130.16303400000001
20
72.005089999999996
10
-118.16303400000001
20
72.005089999999996
0
LWPOLYLINE
5
191
100
AcDbEntity
8
0
100
AcDbPolyline
90
12
70
1
43
0.0
10
-101.601899
20
52.955186000000005
10
-101.58803399999999
20
52.955089999999998
10
-89.588033999999993
20
52.955089999999998
10
-89.574168000000014
20
52.955186000000005
10
-89.088033999999993
20
52.955186000000005
42
0.41421356237309503
10
-88.588032999999996
20
53.455185000000007
10
-88.588033999999993
20
66.455186999999995
42
0.41421356237309503
10
-89.088033999999993
20
66.955186999999995
10
-102.08803400000001
20
66.955186999999995
42
0.41421356237309503
10
-102.58803399999999
20
66.455186999999995
10
-102.58803400000002
20
53.455187000000002
42
0.41421356237309503
10
-102.08803400000001
20
52.955187000000009
0
LWPOLYLINE
5
192
100
AcDbEntity
8
0
100
AcDbPolyline
90
12
70
1
43
0.0
10
-146.72416800000002
20
52.955186000000005
10
-146.238034
20
52.955186000000005
42
0.41421356237309503
10
-145.73803300000003
20
53.455187000000002
10
-145.738034
20
66.455186999999995
42
0.41421356237310025
10
-146.23803500000002
20
66.955185999999998
10
-159.238034
20
66.955186999999995
42
0.41421356237309503
10
-159.73803400000003
20
66.455185
10
-159.73803400000003
20
53.455187000000002
42
0.41421356237310025
10
-159.238035
20
52.955186000000005
10
-158.75189900000004
20
52.955186000000005
10
-158.738034
20
52.955089999999998
10
-146.738034
20
52.955089999999998
0
LWPOLYLINE
5
193
100
AcDbEntity
8
0
100
AcDbPolyline
90
12
70
1
43
0.0
10
-116.875534
20
104.555187
10
-116.875534
20
91.555186000000006
42
0.41421356237309503
10
-116.37553200000001
20
91.05518600000002
10
-115.889399
20
91.05518600000002
10
-115.87553400000002
20
91.055090000000007
10
-103.87553400000002
20
91.055090000000007
10
-103.86166799999999
20
91.05518600000002
10
-103.37553400000002
20
91.055185999999992
42
0.4142135623730846
10
-102.875533
20
91.555184999999994
10
-102.875534
20
104.555187
42
0.41421356237309503
10
-103.37553400000002
20
105.05518700000002
10
-116.37553400000002
20
105.05518700000002
42
0.41421356237309503
0
LWPOLYLINE
5
194
100
AcDbEntity
8
0
100
AcDbPolyline
90
12
70
1
43
0.0
10
-84.325534000000019
20
105.05518600000002
42
-0.41421356237310542
10
-83.825532999999993
20
104.555187
10
-83.825532999999993
20
91.555184999999994
42
-0.41421356237309503
10
-84.325534000000019
20
91.055185999999992
10
-84.811667999999997
20
91.05518600000002
10
-84.825534000000005
20
91.055090000000007
10
-96.825534000000019
20
91.055090000000007
10
-96.839399
20
91.05518600000002
10
-97.325534000000005
20
91.055185999999992
42
-0.41421356237309503
10
-97.825534000000005
20
91.555186000000006
10
-97.825535000000002
20
104.55518600000002
42
-0.41421356237309503
10
-97.325534000000005
20
105.05518700000002
0
LWPOLYLINE
5
195
100
AcDbEntity
8
0
100
AcDbPolyline
90
12
70
1
43
0.0
10
-192.075534
20
91.055090000000007
10
-180.07553400000003
20
91.055090000000007
10
-180.061668
20
91.05518600000002
10
-179.575534
20
91.055185999999992
42
0.41421356237309503
10
-179.07553300000001
20
91.555187000000004
10
-179.075534
20
104.555187
42
0.41421356237309503
10
-179.57553300000001
20
105.05518600000002
10
-192.57553400000003
20
105.05518700000002
42
0.41421356237309503
10
-193.07553400000003
20
104.55518499999999
10
-193.07553400000003
20
91.555186000000006
42
0.41421356237309503
10
-192.57553400000003
20
91.05518600000002
10
-192.08939900000001
20
91.05518600000002
0
LWPOLYLINE
5
196
100
AcDbEntity
8
0
100
AcDbPolyline
90
12
70
1
43
0.0
10
-187.326899
20
72.005187000000006
10
-187.31303399999999
20
72.005089999999996
10
-175.31303399999999
20
72.005089999999996
10
-175.29916800000001
20
72.005187000000006
10
-174.81303399999999
20
72.005187000000006
42
0.41421356237309503
10
-174.31303400000002
20
72.505187000000006
10
-174.31303400000002
20
85.505186000000009
42
0.41421356237309503
10
-174.81303199999999
20
86.005185999999995
10
-187.81303399999999
20
86.005187000000006
42
0.41421356237309503
10
-188.31303500000001
20
85.505186000000009
10
-188.31303399999999
20
72.505185999999995
42
0.41421356237309503
10
-187.81303399999999
20
72.005185999999995
0
LWPOLYLINE
5
197
100
AcDbEntity
8
0
100
AcDbPolyline
90
12
70
1
43
0.0
10
-160.02553300000002
20
91.555187000000004
42
-0.41421356237309503
10
-160.52553399999999
20
91.055185999999992
10
-161.01166799999999
20
91.05518600000002
10
-161.02553400000002
20
91.055090000000007
10
-173.02553399999999
20
91.055090000000007
10
-173.039399
20
91.05518600000002
10
-173.52553400000002
20
91.055185999999992
42
-0.41421356237309503
10
-174.02553400000002
20
91.555186000000006
10
-174.02553400000002
20
104.55518499999999
42
-0.41421356237309503
10
-173.52553400000002
20
105.05518700000002
10
-160.525533
20
105.05518600000001
42
-0.41421356237309503
10
-160.02553399999999
20
104.555187
0
LWPOLYLINE
5
198
100
AcDbEntity
8
0
100
AcDbPolyline
90
12
70
1
43
0.0
10
-155.263034
20
72.505187000000006
10
-155.263034
20
85.505186000000009
42
0.41421356237310542
10
-155.76303200000001
20
86.005185999999995
10
-168.763034
20
86.005187000000006
42
0.4142135623730846
10
-169.263034
20
85.505185000000012
10
-169.263034
20
72.505185999999995
42
0.41421356237309503
10
-168.763034
20
72.005185999999995
10
-168.27689899999999
20
72.005187000000006
10
-168.263034
20
72.005089999999996
10
-156.263034
20
72.005089999999996
10
-156.249168
20
72.005187000000006
10
-155.763034
20
72.005187000000006
42
0.41421356237309503
0
LWPOLYLINE
5
199
100
AcDbEntity
8
0
100
AcDbPolyline
90
12
70
1
43
0.0
10
-154.97553400000004
20
104.55518499999999
42
-0.41421356237310542
10
-154.47553400000001
20
105.05518700000002
10
-141.47553400000001
20
105.05518700000002
42
-0.41421356237309503
10
-140.97553400000001
20
104.555187
10
-140.97553400000001
20
91.555186000000006
42
-0.41421356237309503
10
-141.47553400000001
20
91.055185999999992
10
-141.961668
20
91.05518600000002
10
-141.97553400000001
20
91.055090000000007
10
-153.97553400000001
20
91.055090000000007
10
-153.98939899999999
20
91.05518600000002
10
-154.47553400000001
20
91.055185999999992
42
-0.41421356237309503
10
-154.97553400000004
20
91.555186000000006
0
LWPOLYLINE
5
200
100
AcDbEntity
8
0
100
AcDbPolyline
90
12
70
1
43
0.0
10
-149.21303399999999
20
72.005089999999996
10
-137.21303399999999
20
72.005089999999996
10
-137.19916799999999
20
72.005187000000006
10
-136.71303399999999
20
72.005187000000006
42
0.41421356237309503
10
-136.21303399999999
20
72.505187000000006
10
-136.21303399999999
20
85.505186000000009
42
0.41421356237309503
10
-136.71303399999999
20
86.005185999999995
10
-149.71303399999999
20
86.005187000000021
42
0.41421356237309503
10
-150.21303399999999
20
85.505187000000006
10
-150.21303399999999
20
72.505185999999995
42
0.41421356237309503
10
-149.71303399999999
20
72.005185999999995
10
-149.226899
20
72.005187000000006
0
LWPOLYLINE
5
201
100
AcDbEntity
8
0
100
AcDbPolyline
90
12
70
1
43
0.0
10
-121.925534
20
91.555186000000006
42
-0.41421356237309503
10
-122.425534
20
91.055185999999992
10
-122.91166800000001
20
91.05518600000002
10
-122.92553400000001
20
91.055090000000007
10
-134.925534
20
91.055090000000007
10
-134.93939900000001
20
91.05518600000002
10
-135.425532
20
91.055185999999992
42
-0.41421356237310542
10
-135.92553400000003
20
91.555186000000006
10
-135.92553400000003
20
104.555187
42
-0.41421356237309503
10
-135.425534
20
105.05518700000002
10
-122.425534
20
105.05518700000002
42
-0.41421356237309503
10
-121.925534
20
104.555187
0
LWPOLYLINE
5
202
100
AcDbEntity
8
0
100
AcDbPolyline
90
12
70
1
43
0.0
10
-178.78803400000004
20
66.455185
42
-0.4142135623730846
10
-178.28803400000001
20
66.955186999999995
10
-165.28803400000001
20
66.955187000000009
42
-0.41421356237309503
10
-164.78803400000001
20
66.455186999999995
10
-164.78803300000004
20
53.455187000000002
42
-0.41421356237309503
10
-165.28803400000001
20
52.955186000000005
10
-165.77416800000003
20
52.955186000000005
10
-165.78803400000001
20
52.955089999999998
10
-177.78803400000001
20
52.955089999999998
10
-177.80189899999999
20
52.955186000000005
10
-178.28803500000004
20
52.955185999999998
42
-0.41421356237308982
10
-178.78803400000004
20
53.455187000000002
0
LWPOLYLINE
5
203
100
AcDbEntity
8
0
100
AcDbPolyline
90
12
70
1
43
0.0
10
-197.33803499999999
20
52.955186000000005
10
-196.851899
20
52.955186000000005
10
-196.83803400000002
20
52.955089999999998
10
-184.83803399999999
20
52.955089999999998
10
-184.82416799999999
20
52.955186000000005
10
-184.33803399999999
20
52.955186000000005
42
0.41421356237309503
10
-183.838033
20
53.455187000000002
10
-183.83803399999999
20
66.455186999999995
42
0.41421356237309503
10
-184.33803399999999
20
66.955186999999995
10
-197.33803399999999
20
66.955186999999995
42
0.41421356237309503
10
-197.83803500000002
20
66.455185999999998
10
-197.83803399999999
20
53.455187000000002
42
0.41421356237308982
0
LWPOLYLINE
5
204
100
AcDbEntity
8
0
100
AcDbPolyline
90
12
70
1
43
0.0
10
-273.53803499999992
20
110.105186
42
-0.41421356237310542
10
-274.03803400000004
20
110.60518700000002
10
-274.03803400000004
20
123.605186
42
-0.41421356237309503
10
-273.53803399999998
20
124.10518600000002
10
-260.53803300000004
20
124.105187
42
-0.4142135623730846
10
-260.03803399999998
20
123.605186
10
-260.03803399999998
20
110.60518700000002
42
-0.41421356237309503
10
-260.53803399999998
20
110.105187
10
-261.02416800000003
20
110.105187
10
-261.03803399999998
20
110.10509
10
-273.03803399999998
20
110.10509
10
-273.05189900000005
20
110.105187
0
LWPOLYLINE
5
205
100
AcDbEntity
8
0
100
AcDbPolyline
90
12
70
1
43
0.0
10
-247.84428300000002
20
123.60518500000001
10
-247.84428399999999
20
110.60518700000002
42
0.41421356237309503
10
-247.34428399999999
20
110.105187
10
-246.858149
20
110.105187
10
-246.84428400000002
20
110.10509
10
-234.84428399999999
20
110.10509
10
-234.83041800000001
20
110.105187
10
-234.34428400000002
20
110.105187
42
0.41421356237309503
10
-233.84428400000002
20
110.60518700000002
10
-233.84428400000002
20
123.605186
42
0.4142135623730846
10
-234.34428199999999
20
124.10518600000002
10
-247.34428399999999
20
124.10518600000002
42
0.41421356237310542
0
LWPOLYLINE
5
206
100
AcDbEntity
8
0
100
AcDbPolyline
90
10
70
1
43
0.0
10
-230.24428400000002
20
123.605186
42
-0.41421356237309503
10
-229.74428399999999
20
124.10518600000002
10
-228.74428300000005
20
124.105187
42
-0.41421356237310542
10
-228.24428399999999
20
123.605186
10
-228.24428399999999
20
110.60518700000002
42
-0.41421356237309503
10
-228.74428399999999
20
110.105187
10
-229.23041799999999
20
110.105187
10
-229.25814900000003
20
110.105187
10
-229.74428499999999
20
110.105186
42
-0.4142135623730846
10
-230.24428400000002
20
110.60518700000002
0
LWPOLYLINE
5
207
100
AcDbEntity
8
0
100
AcDbPolyline
90
12
70
1
43
0.0
10
-164.00053500000001
20
110.105186
10
-163.514399
20
110.105187
10
-163.50053400000002
20
110.10509
10
-151.50053399999999
20
110.10509
10
-151.48666800000001
20
110.105187
10
-151.00053400000002
20
110.105187
42
0.41421356237309503
10
-150.50053399999999
20
110.60518700000002
10
-150.50053399999999
20
123.605186
42
0.41421356237309503
10
-151.00053400000002
20
124.10518600000002
10
-164.00053400000002
20
124.10518600000002
42
0.4142135623730846
10
-164.50053300000002
20
123.60518500000001
10
-164.50053400000002
20
110.60518700000002
42
0.4142135623730846
0
LWPOLYLINE
5
208
100
AcDbEntity
8
0
100
AcDbPolyline
90
12
70
1
43
0.0
10
-170.55053400000003
20
110.10509
10
-170.53666799999999
20
110.105187
10
-170.05053400000003
20
110.105187
42
0.41421356237309503
10
-169.550534
20
110.60518700000002
10
-169.550534
20
123.605186
42
0.41421356237310542
10
-170.05053200000003
20
124.10518600000002
10
-183.05053400000003
20
124.10518600000002
42
0.4142135623730846
10
-183.55053300000003
20
123.60518500000001
10
-183.55053400000003
20
110.60518700000002
42
0.41421356237310542
10
-183.050535
20
110.105186
10
-182.56439900000001
20
110.105187
10
-182.55053400000003
20
110.10509
0
LWPOLYLINE
5
209
100
AcDbEntity
8
0
100
AcDbPolyline
90
12
70
1
43
0.0
10
-188.60053400000001
20
110.60518700000002
10
-188.60053400000001
20
123.605186
42
0.4142135623730846
10
-189.10053199999999
20
124.10518600000002
10
-202.10053400000004
20
124.10518600000002
42
0.41421356237309503
10
-202.60053400000004
20
123.605186
10
-202.60053400000004
20
110.60518700000002
42
0.41421356237310542
10
-202.10053500000001
20
110.105186
10
-201.61439900000002
20
110.105187
10
-201.60053400000004
20
110.10509
10
-189.60053400000004
20
110.10509
10
-189.586668
20
110.105187
10
-189.10053400000004
20
110.105187
42
0.41421356237309503
0
LWPOLYLINE
5
210
100
AcDbEntity
8
0
100
AcDbPolyline
90
12
70
1
43
0.0
10
-293.08803399999999
20
123.605186
10
-293.08803399999999
20
110.60518700000002
42
0.41421356237310542
10
-292.58803499999999
20
110.105186
10
-292.101899
20
110.105187
10
-292.08803399999999
20
110.10509
10
-280.08803399999999
20
110.10509
10
-280.07416799999999
20
110.105187
10
-279.58803399999999
20
110.105187
42
0.41421356237309503
10
-279.08803399999999
20
110.60518700000002
10
-279.08803399999999
20
123.605186
42
0.4142135623730846
10
-279.588033
20
124.105187
10
-292.58803399999999
20
124.10518600000002
42
0.41421356237309503
0
LWPOLYLINE
5
211
100
AcDbEntity
8
0
100
AcDbPolyline
90
12
70
1
43
0.0
10
-144.950534
20
110.105187
10
-144.46439899999999
20
110.105187
10
-144.450534
20
110.10509
10
-132.450534
20
110.10509
10
-132.436668
20
110.105187
10
-131.950534
20
110.10518700000003
42
0.41421356237309503
10
-131.450535
20
110.60518600000002
10
-131.450534
20
123.605186
42
0.41421356237309503
10
-131.950534
20
124.10518600000002
10
-144.950534
20
124.10518600000002
42
0.41421356237309503
10
-145.450534
20
123.605186
10
-145.45053400000003
20
110.60518700000002
42
0.41421356237309503
0
LWPOLYLINE
5
212
100
AcDbEntity
8
0
100
AcDbPolyline
90
12
70
1
43
0.0
10
-93.85053400000001
20
124.10518600000002
42
-0.41421356237309503
10
-93.350533999999996
20
123.605186
10
-93.350532999999999
20
110.60518600000002
42
-0.41421356237309503
10
-93.85053400000001
20
110.105187
10
-94.336668000000003
20
110.105187
10
-94.350532999999999
20
110.10509
10
-106.35053400000001
20
110.10509
10
-106.36439900000001
20
110.105187
10
-106.850533
20
110.105186
42
-0.41421356237309503
10
-107.350534
20
110.60518700000002
10
-107.35053400000001
20
123.605186
42
-0.41421356237309503
10
-106.85053400000001
20
124.10518600000002
0
LWPOLYLINE
5
213
100
AcDbEntity
8
0
100
AcDbPolyline
90
12
70
1
43
0.0
10
-113.386668
20
110.105187
10
-112.90053399999999
20
110.105187
42
0.41421356237309503
10
-112.400533
20
110.60518600000002
10
-112.40053399999999
20
123.605186
42
0.41421356237309503
10
-112.90053399999999
20
124.10518600000002
10
-125.90053400000001
20
124.10518600000002
42
0.41421356237309503
10
-126.40053399999999
20
123.605186
10
-126.40053400000001
20
110.60518700000002
42
0.41421356237309503
10
-125.90053300000001
20
110.105186
10
-125.414399
20
110.105187
10
-125.40053399999999
20
110.10509
10
-113.40053300000001
20
110.10509
0
LWPOLYLINE
5
214
100
AcDbEntity
8
0
100
AcDbPolyline
90
12
70
1
43
0.0
10
-43.844284000000002
20
143.15518700000001
10
-56.844284000000009
20
143.15518700000001
42
0.41421356237310025
10
-57.344284000000002
20
142.65518499999999
10
-57.344284000000002
20
129.65518599999999
42
0.41421356237309503
10
-56.844284000000009
20
129.15518599999999
10
-56.358148999999997
20
129.15518599999999
10
-56.344284000000009
20
129.15509
10
-44.344284000000009
20
129.15509
10
-44.330418000000009
20
129.15518599999999
10
-43.844284000000002
20
129.15518599999999
42
0.41421356237309503
10
-43.344284000000002
20
129.65518599999999
10
-43.344284000000002
20
142.65518700000001
42
0.41421356237309503
0
LWPOLYLINE
5
215
100
AcDbEntity
8
0
100
AcDbPolyline
90
12
70
1
43
0.0
10
-69.281784000000002
20
127.15509
10
-69.267918000000009
20
127.15518600000001
10
-68.781784000000002
20
127.15518700000001
42
0.41421356237309503
10
-68.281784000000002
20
127.655185
10
-68.281784000000002
20
141.65518700000001
42
0.41421356237309503
10
-68.781783000000004
20
142.15518599999999
10
-74.781784000000016
20
142.15518699999998
42
0.41421356237308982
10
-75.281784000000002
20
141.65518499999999
10
-75.281784000000002
20
127.65518700000001
42
0.41421356237309503
10
-74.781783000000004
20
127.15518600000001
10
-74.295648999999997
20
127.15518600000001
10
-74.281784000000002
20
127.15509
0
ARC
5
216
100
AcDbEntity
8
0
100
AcDbCircle
10
-107.73321199999999
20
130.287104
30
0
40
0.49999984873700043
210
0
220
0
230
1
100
AcDbArc
50
205.80006569479841
51
291.59464008525867
0
LINE
5
217
100
AcDbEntity
8
0
100
AcDbLine
10
-108.18337100000002
20
130.06948800000001
30
0
11
-109.60693805696431
21
133.0142779724622
31
0
0
ARC
5
218
100
AcDbEntity
8
0
100
AcDbCircle
10
-109.156779
20
133.23189400000001
30
0
40
0.49999997580200023
210
0
220
0
230
1
100
AcDbArc
50
120.00542682590944
51
205.80006569481202
0
LINE
5
219
100
AcDbEntity
8
0
100
AcDbLine
10
-109.40682000000001
20
133.66488300000003
30
0
11
-105.6088130632544
21
135.85814110953578
31
0
0
ARC
5
220
100
AcDbEntity
8
0
100
AcDbCircle
10
-105.35877200000002
20
135.425152
30
0
40
0.5000002291250073
210
0
220
-0
230
1
100
AcDbArc
50
43.09183286568112
51
120.00542682591349
0
ARC
5
221
100
AcDbEntity
8
0
100
AcDbCircle
10
-102.401218
20
138.19198700000001
30
0
40
3.5499999659543175
210
0
220
0
230
1
100
AcDbArc
50
-136.90821941193215
51
15.988310187060103
0
ARC
5
222
100
AcDbEntity
8
0
100
AcDbCircle
10
-98.507881000000012
20
139.307525
30
0
40
0.4999993576730089
210
0
220
0
230
1
100
AcDbArc
50
107.01753584539765
51
195.98844058186938
0
ARC
5
223
100
AcDbEntity
8
0
100
AcDbCircle
10
-97.776218
20
136.91698700000001
30
0
40
3.0000008615540033
210
0
220
-0
230
1
100
AcDbArc
50
46.766767604918812
51
107.01757386397028
0
ARC
5
224
100
AcDbEntity
8
0
100
AcDbCircle
10
-95.378823999999994
20
139.46698699999999
30
0
40
0.49999885147970913
210
0
220
0
230
1
100
AcDbArc
50
226.76678568330126
51
270.00002049325752
0
LINE
5
225
100
AcDbEntity
8
0
100
AcDbLine
10
-95.378823821162996
20
138.96698814852004
30
0
11
-95.320000000003787
21
138.96698712889724
31
0
0
ARC
5
226
100
AcDbEntity
8
0
100
AcDbCircle
10
-95.319999999999993
20
138.46698699999999
30
0
40
0.50000025816899507
210
0
220
-0
230
1
100
AcDbArc
50
60.000017080308623
51
90.000000000434795
0
LINE
5
227
100
AcDbEntity
8
0
100
AcDbLine
10
-95.069999999999965
20
138.90000000000003
30
0
11
-95.042242708111914
21
138.88397455903581
31
0
0
ARC
5
228
100
AcDbEntity
8
0
100
AcDbCircle
10
-95.163638000000006
20
138.30454
30
0
40
0.5920140006160004
210
0
220
0
230
1
100
AcDbArc
50
-35.182236034054412
51
78.167306130840032
0
LINE
5
229
100
AcDbEntity
8
0
100
AcDbLine
10
-94.679770999999761
20
137.96343399999984
30
0
11
-94.792395999999997
21
137.850809
31
0
0
ARC
5
230
100
AcDbEntity
8
0
100
AcDbCircle
10
-94.615618999999995
20
137.67403200000001
30
0
40
0.25000043091561791
210
0
220
0
230
1
100
AcDbArc
50
135.0000000000023
51
193.4700441816866
0
ARC
5
231
100
AcDbEntity
8
0
100
AcDbCircle
10
-97.776218
20
136.91698700000001
30
0
40
2.9999992255979961
210
0
220
0
230
1
100
AcDbArc
50
-68.405409860021081
51
13.470040226396213
0
LINE
5
232
100
AcDbEntity
8
0
100
AcDbLine
10
-96.672108000000009
20
134.12755400000009
30
0
11
-107.54919326957312
21
129.82219868104883
31
0
0
LWPOLYLINE
5
233
100
AcDbEntity
8
0
100
AcDbPolyline
90
12
70
1
43
0.0
10
-128.28178299999999
20
129.15518700000001
42
-0.41421356237307422
10
-128.78178399999999
20
129.65518599999999
10
-128.78178399999999
20
142.65518499999999
42
-0.41421356237310542
10
-128.28178399999999
20
143.15518700000001
10
-115.28178500000001
20
143.15518600000001
42
-0.4142135623730846
10
-114.78178400000002
20
142.65518700000001
10
-114.78178299999999
20
129.65518499999999
42
-0.41421356237310542
10
-115.28178400000002
20
129.15518599999999
10
-115.76791800000001
20
129.15518599999999
10
-115.781784
20
129.15509
10
-127.78178400000002
20
129.15509
10
-127.795649
20
129.15518599999999
0
LWPOLYLINE
5
234
100
AcDbEntity
8
0
100
AcDbPolyline
90
12
70
1
43
0.0
10
-260.03803300000004
20
129.65518700000001
42
-0.41421356237309503
10
-260.53803399999998
20
129.15518600000001
10
-261.02416800000003
20
129.15518599999999
10
-261.03803399999998
20
129.15509
10
-273.03803399999998
20
129.15509
10
-273.05189900000005
20
129.15518599999999
10
-273.53803399999998
20
129.15518599999999
42
-0.41421356237309503
10
-274.03803400000004
20
129.65518599999999
10
-274.03803400000004
20
142.65518700000001
42
-0.41421356237309503
10
-273.53803399999998
20
143.15518700000001
10
-260.53803500000004
20
143.15518600000001
42
-0.41421356237309503
10
-260.03803399999998
20
142.65518700000001
0
LWPOLYLINE
5
235
100
AcDbEntity
8
0
100
AcDbPolyline
90
12
70
1
43
0.0
10
-241.98803400000003
20
129.15509
10
-241.97416799999999
20
129.15518599999999
10
-241.48803400000003
20
129.15518600000001
42
0.41421356237309503
10
-240.988033
20
129.65518700000001
10
-240.98803400000003
20
142.65518700000001
42
0.41421356237307422
10
-241.488035
20
143.15518599999999
10
-254.48803400000003
20
143.15518700000001
42
0.41421356237309503
10
-254.98803500000002
20
142.65518600000001
10
-254.98803400000003
20
129.65518599999999
42
0.41421356237309503
10
-254.48803400000003
20
129.15518599999999
10
-254.00189900000001
20
129.15518599999999
10
-253.98803400000003
20
129.15509
0
LWPOLYLINE
5
236
100
AcDbEntity
8
0
100
AcDbPolyline
90
12
70
1
43
0.0
10
-223.53178400000002
20
129.15518599999999
10
-223.04564900000003
20
129.15518599999999
10
-223.03178400000002
20
129.15509
10
-211.03178400000002
20
129.15509
10
-211.01791800000001
20
129.15518599999999
10
-210.53178400000002
20
129.15518600000001
42
0.41421356237309503
10
-210.03178300000002
20
129.65518700000001
10
-210.03178399999999
20
142.65518700000001
42
0.41421356237309503
10
-210.53178400000002
20
143.15518700000001
10
-223.53178400000002
20
143.15518700000001
42
0.41421356237309503
10
-224.03178500000001
20
142.65518600000001
10
-224.03178400000002
20
129.65518599999999
42
0.41421356237309503
0
LWPOLYLINE
5
237
100
AcDbEntity
8
0
100
AcDbPolyline
90
12
70
1
43
0.0
10
-168.78178399999999
20
142.15518700000001
42
-0.41421356237309503
10
-168.28178399999999
20
141.65518700000001
10
-168.28178399999999
20
127.65518700000001
42
-0.41421356237309503
10
-168.78178399999999
20
127.15518700000001
10
-169.26791800000001
20
127.15518600000001
10
-169.28178400000002
20
127.15509
10
-174.28178400000002
20
127.15509
10
-174.295649
20
127.15518600000001
10
-174.78178500000001
20
127.15518599999999
42
-0.41421356237309503
10
-175.28178400000002
20
127.65518700000001
10
-175.28178400000002
20
141.65518700000001
42
-0.41421356237309503
10
-174.78178400000002
20
142.15518700000001
0
LWPOLYLINE
5
238
100
AcDbEntity
8
0
100
AcDbPolyline
90
12
70
1
43
0.0
10
-199.23314900000003
20
129.15518599999999
10
-199.21928399999999
20
129.15509
10
-187.21928399999999
20
129.15509
10
-187.20541800000004
20
129.15518599999999
10
-186.71928399999999
20
129.15518600000001
42
0.41421356237309503
10
-186.21928300000002
20
129.65518700000001
10
-186.21928399999999
20
142.65518700000001
42
0.41421356237311585
10
-186.71928500000004
20
143.15518599999999
10
-199.71928399999999
20
143.15518700000001
42
0.41421356237309503
10
-200.21928500000001
20
142.65518600000001
10
-200.21928400000002
20
129.65518599999999
42
0.41421356237309503
10
-199.71928399999999
20
129.15518599999999
0
LWPOLYLINE
5
239
100
AcDbEntity
8
0
100
AcDbPolyline
90
12
70
1
43
0.0
10
-293.08803399999999
20
142.65518700000001
10
-293.08803399999999
20
129.65518599999999
42
0.41421356237309503
10
-292.58803399999999
20
129.15518599999999
10
-292.101899
20
129.15518599999999
10
-292.08803399999999
20
129.15509
10
-280.08803399999999
20
129.15509
10
-280.07416799999999
20
129.15518599999999
10
-279.58803399999999
20
129.15518600000001
42
0.41421356237309503
10
-279.088033
20
129.65518700000001
10
-279.08803399999999
20
142.65518700000001
42
0.41421356237309503
10
-279.58803499999999
20
143.15518599999999
10
-292.58803399999999
20
143.15518700000001
42
0.41421356237309503
0
LWPOLYLINE
5
240
100
AcDbEntity
8
0
100
AcDbPolyline
90
12
70
1
43
0.0
10
-19.531782999999994
20
129.65518499999999
42
-0.41421356237309764
10
-20.031783999999998
20
129.15518599999999
10
-20.517918000000002
20
129.15518599999999
10
-20.531783999999998
20
129.15509
10
-32.531784000000002
20
129.15509
10
-32.545648999999997
20
129.15518599999999
10
-33.031784000000002
20
129.15518599999999
42
-0.41421356237309503
10
-33.531784000000002
20
129.65518599999999
10
-33.531784000000002
20
142.65518499999999
42
-0.41421356237310025
10
-33.031784000000002
20
143.15518700000001
10
-20.031783000000001
20
143.15518600000001
42
-0.41421356237309503
10
-19.531784000000002
20
142.65518700000001
0
LWPOLYLINE
5
241
100
AcDbEntity
8
0
100
AcDbPolyline
90
12
70
1
43
0.0
10
-21.182283000000002
20
126.10518500000001
42
-0.41421356237309503
10
-20.682284000000003
20
125.60518600000002
10
-20.682284000000006
20
111.60518500000002
42
-0.41421356237309764
10
-21.182283999999999
20
111.10518700000002
10
-21.668417999999999
20
111.105187
10
-21.682283999999999
20
111.10509
10
-26.682284000000003
20
111.10509
10
-26.696148999999998
20
111.105187
10
-27.182284000000003
20
111.10518600000003
42
-0.41421356237309503
10
-27.682283999999999
20
111.60518600000002
10
-27.68228400000001
20
125.60518600000002
42
-0.41421356237309503
10
-27.182284000000003
20
126.10518600000003
0
LWPOLYLINE
5
242
100
AcDbEntity
8
0
100
AcDbPolyline
90
10
70
1
43
0.0
10
-18.081783999999992
20
91.555186000000006
42
-0.41421356237309503
10
-18.581783999999999
20
91.055185999999992
10
-19.067917999999999
20
91.05518600000002
10
-19.095649000000002
20
91.05518600000002
10
-19.581783000000001
20
91.055185999999992
42
-0.41421356237309503
10
-20.081783000000001
20
91.555186000000006
10
-20.081783000000009
20
104.55518600000002
42
-0.41421356237309243
10
-19.581783999999999
20
105.05518700000002
10
-18.581783999999999
20
105.05518700000002
42
-0.41421356237309503
10
-18.081783999999999
20
104.555187
0
LWPOLYLINE
5
243
100
AcDbEntity
8
0
100
AcDbPolyline
90
12
70
1
43
0.0
10
-39.689399000000009
20
91.05518600000002
10
-39.675533999999999
20
91.055090000000007
10
-27.675534000000003
20
91.055090000000007
10
-27.661668000000002
20
91.05518600000002
10
-27.175533999999999
20
91.055185999999992
42
0.41421356237309503
10
-26.675533999999999
20
91.555186000000006
10
-26.675533999999999
20
104.555187
42
0.41421356237309503
10
-27.175533999999999
20
105.05518700000002
10
-40.175533999999999
20
105.05518700000002
42
0.41421356237309503
10
-40.675534000000006
20
104.555187
10
-40.675533999999999
20
91.555186000000006
42
0.41421356237309503
10
-40.175533999999999
20
91.05518600000002
0
LWPOLYLINE
5
244
100
AcDbEntity
8
0
100
AcDbPolyline
90
10
70
1
43
0.0
10
-16.686668000000001
20
72.005187000000006
10
-16.200534000000001
20
72.005187000000006
42
0.41421356237309503
10
-15.700535000000002
20
72.505185999999995
10
-15.700534000000001
20
85.505186000000009
42
0.41421356237309503
10
-16.200534000000001
20
86.005185999999995
10
-17.200534000000005
20
86.005187000000006
42
0.41421356237308982
10
-17.700534000000001
20
85.505185000000012
10
-17.700533
20
72.505185999999995
42
0.41421356237309503
10
-17.200533
20
72.005185999999995
10
-16.714399
20
72.005187000000006
0
LWPOLYLINE
5
245
100
AcDbEntity
8
0
100
AcDbPolyline
90
12
70
1
43
0.0
10
6.1619659999999987
20
66.955186999999995
10
-6.8380330000000011
20
66.955186999999995
42
0.41421356237309503
10
-7.3380340000000013
20
66.455185999999998
10
-7.3380340000000013
20
53.455187000000002
42
0.41421356237309503
10
-6.8380330000000011
20
52.955186000000005
10
-6.3518990000000013
20
52.955186000000005
10
-6.3380340000000022
20
52.955089999999998
10
5.6619659999999996
20
52.955089999999998
10
5.6758319999999998
20
52.955186000000005
10
6.1619659999999996
20
52.955186000000005
42
0.41421356237309503
10
6.6619669999999998
20
53.455187000000002
10
6.6619660000000005
20
66.455186999999995
42
0.4142135623730957
0
LWPOLYLINE
5
246
100
AcDbEntity
8
0
100
AcDbPolyline
90
12
70
1
43
0.0
10
1.3994660000000003
20
86.005185999999995
10
-11.600534
20
86.005187000000006
42
0.41421356237309503
10
-12.100535000000001
20
85.505186000000009
10
-12.100534
20
72.505185999999995
42
0.41421356237309503
10
-11.600534
20
72.005185999999995
10
-11.114399000000002
20
72.005187000000006
10
-11.100533000000002
20
72.005089999999996
10
0.89946599999999999
20
72.005089999999996
10
0.91333200000000003
20
72.005187000000006
10
1.3994660000000001
20
72.005186999999992
42
0.41421356237309859
10
1.8994660000000003
20
72.505184999999997
10
1.8994660000000003
20
85.505186000000009
42
0.41421356237309492
0
LWPOLYLINE
5
247
100
AcDbEntity
8
0
100
AcDbPolyline
90
12
70
1
43
0.0
10
-25.888034000000001
20
52.955187000000009
42
-0.41421356237309503
10
-26.388034000000001
20
53.455187000000002
10
-26.388035000000002
20
66.455185999999998
42
-0.41421356237309503
10
-25.888034000000001
20
66.955186999999995
10
-12.888033999999999
20
66.955186999999995
42
-0.41421356237309503
10
-12.388033999999999
20
66.455186999999995
10
-12.388034000000001
20
53.455185999999998
42
-0.41421356237309503
10
-12.888033999999999
20
52.955186000000005
10
-13.374167999999999
20
52.955186000000005
10
-13.388033999999999
20
52.955089999999998
10
-25.388033
20
52.955089999999998
10
-25.401899
20
52.955186000000005
0
LWPOLYLINE
5
248
100
AcDbEntity
8
0
100
AcDbPolyline
90
14
70
1
43
0.0
10
-13.981783999999999
20
91.05518600000002
10
-13.495649
20
91.05518600000002
10
-13.481783000000004
20
91.055090000000007
10
3.280716
20
91.055090000000007
10
3.2945820000000001
20
91.05518600000002
10
4.1043510000000003
20
91.05518600000002
10
4.1320819999999996
20
91.05518600000002
10
4.6182160000000003
20
91.055185999999992
42
0.41421356237309503
10
5.1182160000000012
20
91.555186000000006
10
5.1182160000000012
20
104.555187
42
0.4142135623730957
10
4.6182159999999994
20
105.05518700000002
10
-13.981783999999999
20
105.05518700000002
42
0.41421356237309503
10
-14.481783999999999
20
104.555187
10
-14.481783999999999
20
91.555186000000006
42
0.41421356237309503
0
LWPOLYLINE
5
249
100
AcDbEntity
8
0
100
AcDbPolyline
90
12
70
1
43
0.0
10
-3.3062839999999998
20
111.105186
42
-0.41421356237309503
10
-3.8062839999999998
20
111.60518600000002
10
-3.8062840000000069
20
125.60518600000002
42
-0.41421356237309503
10
-3.3062839999999998
20
126.10518600000003
10
2.6937169999999995
20
126.10518500000001
42
-0.41421356237309537
10
3.1937159999999998
20
125.60518600000002
10
3.1937159999999953
20
111.60518500000002
42
-0.41421356237309825
10
2.6937160000000002
20
111.10518700000002
10
2.2075820000000004
20
111.105187
10
2.1937160000000002
20
111.10509
10
-2.8062839999999998
20
111.10509
10
-2.8201490000000002
20
111.105187
0
LWPOLYLINE
5
250
100
AcDbEntity
8
0
100
AcDbPolyline
90
12
70
1
43
0.0
10
-18.744284
20
110.105187
42
-0.41421356237309503
10
-19.244284000000004
20
110.60518700000002
10
-19.244284000000007
20
123.605186
42
-0.41421356237309503
10
-18.744284
20
124.10518600000002
10
-5.7442839999999995
20
124.10518600000002
42
-0.41421356237309437
10
-5.2442840000000004
20
123.605186
10
-5.2442829999999931
20
110.60518600000002
42
-0.41421356237309892
10
-5.7442840000000004
20
110.105187
10
-6.2304180000000011
20
110.105187
10
-6.2442840000000022
20
110.10509
10
-18.244283000000003
20
110.10509
10
-18.258149000000003
20
110.105187
0
LWPOLYLINE
5
251
100
AcDbEntity
8
0
100
AcDbPolyline
90
12
70
1
43
0.0
10
3.7807149999999989
20
143.15518599999999
10
-9.2192840000000018
20
143.15518700000001
42
0.4142135623731022
10
-9.719284
20
142.65518499999999
10
-9.7192840000000018
20
129.65518599999999
42
0.41421356237309503
10
-9.2192840000000018
20
129.15518599999999
10
-8.7331490000000009
20
129.15518599999999
10
-8.7192830000000008
20
129.15509
10
3.280716
20
129.15509
10
3.2945820000000001
20
129.15518599999999
10
3.780716
20
129.15518599999999
42
0.41421356237309503
10
4.280716
20
129.65518599999999
10
4.280716
20
142.65518700000001
42
0.41421356237308887
0
CIRCLE
5
252
100
AcDbEntity
8
0
100
AcDbCircle
10
-36.329999999999998
20
48.329999999999998
30
0
40
1.1000000000000001
210
0
220
0
230
1
0
CIRCLE
5
253
100
AcDbEntity
8
0
100
AcDbCircle
10
-286.10000000000002
20
48.329999999999998
30
0
40
1.1000000000000001
210
0
220
0
230
1
0
CIRCLE
5
254
100
AcDbEntity
8
0
100
AcDbCircle
10
-231.03999999999999
20
48.340000000000003
30
0
40
1.1000000000000001
210
0
220
0
230
1
0
CIRCLE
5
255
100
AcDbEntity
8
0
100
AcDbCircle
10
-133.69999999999999
20
48.320000000000007
30
0
40
1.1000000000000001
210
0
220
0
230
1
0
CIRCLE
5
256
100
AcDbEntity
8
0
100
AcDbCircle
10
-84.782720000000012
20
137.85575600000001
30
0
40
2.7999999999999998
210
0
220
0
230
1
0
CIRCLE
5
257
100
AcDbEntity
8
0
100
AcDbCircle
10
-102.401218
20
138.19198700000001
30
0
40
2.7999999999999998
210
0
220
0
230
1
0
CIRCLE
5
258
100
AcDbEntity
8
0
100
AcDbCircle
10
-158.78084699999999
20
137.85575600000001
30
0
40
2.7999999999999998
210
0
220
0
230
1
0
CIRCLE
5
259
100
AcDbEntity
8
0
100
AcDbCircle
10
-141.16234900000001
20
138.19198700000001
30
0
40
2.7999999999999998
210
0
220
0
230
1
0
CIRCLE
5
260
100
AcDbEntity
8
0
100
AcDbCircle
10
-133.68000000000001
20
147.78999999999999
30
0
40
1.1000000000000001
210
0
220
0
230
1
0
CIRCLE
5
261
100
AcDbEntity
8
0
100
AcDbCircle
10
-231.03000000000003
20
147.78999999999999
30
0
40
1.1000000000000001
210
0
220
0
230
1
0
CIRCLE
5
262
100
AcDbEntity
8
0
100
AcDbCircle
10
-36.340000000000003
20
147.78
30
0
40
1.1000000000000001
210
0
220
0
230
1
0
CIRCLE
5
263
100
AcDbEntity
8
0
100
AcDbCircle
10
-286.08999999999997
20
147.77000000000001
30
0
40
1.1000000000000001
210
0
220
0
230
1
0
ARC
5
264
100
AcDbEntity
8
0
100
AcDbCircle
10
-286.08803399999999
20
147.78009
30
0
40
3.5000000000000142
210
0
220
0
230
1
100
AcDbArc
50
0
51
180
0
LINE
5
265
100
AcDbEntity
8
0
100
AcDbLine
10
-289.58803399999999
20
147.78009
30
0
11
-289.58803399999999
21
146.68009000000001
31
0
0
ARC
5
266
100
AcDbEntity
8
0
100
AcDbCircle
10
-290.58803399999999
20
146.68009000000001
30
0
40
0.99999999999999645
210
0
220
0
230
1
100
AcDbArc
50
-90
51
0
0
LINE
5
267
100
AcDbEntity
8
0
100
AcDbLine
10
-290.58803399999999
20
145.68009000000001
30
0
11
-294.61303400000008
21
145.68009000000001
31
0
0
ARC
5
268
100
AcDbEntity
8
0
100
AcDbCircle
10
-294.61303400000008
20
144.68009000000001
30
0
40
0.99999999999999645
210
0
220
-0
230
1
100
AcDbArc
50
90
51
180
0
LINE
5
269
100
AcDbEntity
8
0
100
AcDbLine
10
-295.61303400000008
20
144.68009000000001
30
0
11
-295.61303400000003
21
51.430091000000004
31
0
0
ARC
5
270
100
AcDbEntity
8
0
100
AcDbCircle
10
-294.61303400000008
20
51.430091000000004
30
0
40
0.99999999999997868
210
0
220
0
230
1
100
AcDbArc
50
180
51
270
0
LINE
5
271
100
AcDbEntity
8
0
100
AcDbLine
10
-294.61303400000008
20
50.430091000000004
30
0
11
-290.58803399999999
21
50.430090999999997
31
0
0
ARC
5
272
100
AcDbEntity
8
0
100
AcDbCircle
10
-290.58803399999999
20
49.430091000000004
30
0
40
1.0000000000000142
210
0
220
0
230
1
100
AcDbArc
50
0
51
90
0
LINE
5
273
100
AcDbEntity
8
0
100
AcDbLine
10
-289.58803399999999
20
49.430091000000004
30
0
11
-289.58803399999999
21
48.33009100000001
31
0
0
ARC
5
274
100
AcDbEntity
8
0
100
AcDbCircle
10
-286.08803399999999
20
48.33009100000001
30
0
40
3.5000000000000142
210
0
220
0
230
1
100
AcDbArc
50
-180
51
0
0
LINE
5
275
100
AcDbEntity
8
0
100
AcDbLine
10
-282.58803399999999
20
48.33009100000001
30
0
11
-282.58803399999999
21
49.430091000000004
31
0
0
ARC
5
276
100
AcDbEntity
8
0
100
AcDbCircle
10
-281.58803399999999
20
49.430091000000004
30
0
40
0.99999999999999645
210
0
220
-0
230
1
100
AcDbArc
50
90
51
180
0
LINE
5
277
100
AcDbEntity
8
0
100
AcDbLine
10
-281.58803399999999
20
50.430090999999997
30
0
11
-235.53803400000004
21
50.430090999999997
31
0
0
ARC
5
278
100
AcDbEntity
8
0
100
AcDbCircle
10
-235.53803400000004
20
49.430091000000004
30
0
40
1.0000000000000142
210
0
220
0
230
1
100
AcDbArc
50
0
51
90
0
LINE
5
279
100
AcDbEntity
8
0
100
AcDbLine
10
-234.53803400000001
20
49.430091000000004
30
0
11
-234.53803400000001
21
48.33009100000001
31
0
0
ARC
5
280
100
AcDbEntity
8
0
100
AcDbCircle
10
-231.03803400000004
20
48.33009100000001
30
0
40
3.4999999999999787
210
0
220
0
230
1
100
AcDbArc
50
-180
51
5.3997386567638338e-06
0
LINE
5
281
100
AcDbEntity
8
0
100
AcDbLine
10
-227.53803400000007
20
48.330091329859997
30
0
11
-227.53803400000004
21
49.430091000000004
31
0
0
ARC
5
282
100
AcDbEntity
8
0
100
AcDbCircle
10
-226.53803400000001
20
49.430091000000004
30
0
40
0.99999999999999645
210
0
220
-0
230
1
100
AcDbArc
50
90
51
180
0
LINE
5
283
100
AcDbEntity
8
0
100
AcDbLine
10
-226.53803400000001
20
50.430090999999997
30
0
11
-138.18803400000002
21
50.430090999999997
31
0
0
ARC
5
284
100
AcDbEntity
8
0
100
AcDbCircle
10
-138.18803400000002
20
49.430091000000004
30
0
40
0.99999999999999645
210
0
220
0
230
1
100
AcDbArc
50
0
51
90
0
LINE
5
285
100
AcDbEntity
8
0
100
AcDbLine
10
-137.18803400000002
20
49.430091000000004
30
0
11
-137.18803399999999
21
48.33009100000001
31
0
0
ARC
5
286
100
AcDbEntity
8
0
100
AcDbCircle
10
-133.68803399999999
20
48.33009100000001
30
0
40
3.4999999999999964
210
0
220
0
230
1
100
AcDbArc
50
-180
51
0
0
LINE
5
287
100
AcDbEntity
8
0
100
AcDbLine
10
-130.18803399999999
20
48.33009100000001
30
0
11
-130.18803399999999
21
49.430091000000004
31
0
0
ARC
5
288
100
AcDbEntity
8
0
100
AcDbCircle
10
-129.18803399999999
20
49.430091000000004
30
0
40
0.99999999999999645
210
0
220
-0
230
1
100
AcDbArc
50
90
51
180
0
LINE
5
289
100
AcDbEntity
8
0
100
AcDbLine
10
-129.18803399999999
20
50.430090999999997
30
0
11
-40.83803300000001
21
50.430090999999997
31
0
0
ARC
5
290
100
AcDbEntity
8
0
100
AcDbCircle
10
-40.838033000000003
20
49.430091000000004
30
0
40
1.0000000000000009
210
0
220
0
230
1
100
AcDbArc
50
0
51
90.000000000000398
0
LINE
5
291
100
AcDbEntity
8
0
100
AcDbLine
10
-39.838033000000003
20
49.430091000000004
30
0
11
-39.838033000000003
21
48.33009100000001
31
0
0
ARC
5
292
100
AcDbEntity
8
0
100
AcDbCircle
10
-36.338033000000003
20
48.33009100000001
30
0
40
3.5000000000000009
210
0
220
0
230
1
100
AcDbArc
50
-180
51
0
0
LINE
5
293
100
AcDbEntity
8
0
100
AcDbLine
10
-32.838033000000003
20
48.33009100000001
30
0
11
-32.83803300000001
21
49.430091000000004
31
0
0
ARC
5
294
100
AcDbEntity
8
0
100
AcDbCircle
10
-31.838033000000003
20
49.430091000000004
30
0
40
0.99999999999999645
210
0
220
-0
230
1
100
AcDbArc
50
90
51
180
0
LINE
5
295
100
AcDbEntity
8
0
100
AcDbLine
10
-31.838033000000003
20
50.430090999999997
30
0
11
8.1869670000000028
21
50.430090999999997
31
0
0
ARC
5
296
100
AcDbEntity
8
0
100
AcDbCircle
10
8.1869669999999992
20
51.430091000000004
30
0
40
1.0000000000000053
210
0
220
0
230
1
100
AcDbArc
50
-89.999999999999801
51
0
0
LINE
5
297
100
AcDbEntity
8
0
100
AcDbLine
10
9.1869669999999992
20
51.430091000000004
30
0
11
9.1869660000000017
21
144.68009000000001
31
0
0
ARC
5
298
100
AcDbEntity
8
0
100
AcDbCircle
10
8.186966
20
144.68009000000001
30
0
40
1.0000000000000009
210
0
220
0
230
1
100
AcDbArc
50
0
51
90
0
LINE
5
299
100
AcDbEntity
8
0
100
AcDbLine
10
8.186966
20
145.68009000000001
30
0
11
-31.838034000000004
21
145.68009049977141
31
0
0
ARC
5
300
100
AcDbEntity
8
0
100
AcDbCircle
10
-31.838034000000004
20
146.68009000000001
30
0
40
0.99999899999999808
210
0
220
0
230
1
100
AcDbArc
50
180
51
270
0
LINE
5
301
100
AcDbEntity
8
0
100
AcDbLine
10
-32.838033000000003
20
146.68009000000001
30
0
11
-32.83803300000001
21
147.78009
31
0
0
ARC
5
302
100
AcDbEntity
8
0
100
AcDbCircle
10
-36.338033000000003
20
147.78009
30
0
40
3.4999999999999964
210
0
220
0
230
1
100
AcDbArc
50
0
51
180
0
LINE
5
303
100
AcDbEntity
8
0
100
AcDbLine
10
-39.838033000000003
20
147.78009
30
0
11
-39.838033000000003
21
146.68009000000001
31
0
0
ARC
5
304
100
AcDbEntity
8
0
100
AcDbCircle
10
-40.838033000000003
20
146.68009000000001
30
0
40
0.99999999999999645
210
0
220
0
230
1
100
AcDbArc
50
-90
51
0
0
LINE
5
305
100
AcDbEntity
8
0
100
AcDbLine
10
-40.838033000000003
20
145.68009000000001
30
0
11
-129.18803399999999
21
145.68009000000001
31
0
0
ARC
5
306
100
AcDbEntity
8
0
100
AcDbCircle
10
-129.18803399999999
20
146.68009000000001
30
0
40
0.99999999999999645
210
0
220
0
230
1
100
AcDbArc
50
180
51
270
0
LINE
5
307
100
AcDbEntity
8
0
100
AcDbLine
10
-130.18803399999999
20
146.68009000000001
30
0
11
-130.18803399999999
21
147.78009
31
0
0
ARC
5
308
100
AcDbEntity
8
0
100
AcDbCircle
10
-133.68803399999999
20
147.78009
30
0
40
3.4999999999999964
210
0
220
0
230
1
100
AcDbArc
50
0
51
180
0
LINE
5
309
100
AcDbEntity
8
0
100
AcDbLine
10
-137.18803399999999
20
147.78009
30
0
11
-137.18803399999999
21
146.68009000000001
31
0
0
ARC
5
310
100
AcDbEntity
8
0
100
AcDbCircle
10
-138.18803400000002
20
146.68009000000001
30
0
40
0.99999999999999645
210
0
220
0
230
1
100
AcDbArc
50
-90
51
0
0
LINE
5
311
100
AcDbEntity
8
0
100
AcDbLine
10
-138.18803400000002
20
145.68009000000001
30
0
11
-226.53803400000001
21
145.68009000000001
31
0
0
ARC
5
312
100
AcDbEntity
8
0
100
AcDbCircle
10
-226.53803400000001
20
146.68009000000001
30
0
40
1.0000000000000142
210
0
220
0
230
1
100
AcDbArc
50
180
51
270
0
LINE
5
313
100
AcDbEntity
8
0
100
AcDbLine
10
-227.53803400000004
20
146.68009000000001
30
0
11
-227.53803400000004
21
147.78009
31
0
0
ARC
5
314
100
AcDbEntity
8
0
100
AcDbCircle
10
-231.03803400000004
20
147.78009
30
0
40
3.5000000000000142
210
0
220
0
230
1
100
AcDbArc
50
0
51
180
0
LINE
5
315
100
AcDbEntity
8
0
100
AcDbLine
10
-234.53803400000004
20
147.78009
30
0
11
-234.53803400000001
21
146.68009000000001
31
0
0
ARC
5
316
100
AcDbEntity
8
0
100
AcDbCircle
10
-235.53803400000004
20
146.68009000000001
30
0
40
0.99999999999999645
210
0
220
0
230
1
100
AcDbArc
50
-90
51
0
0
LINE
5
317
100
AcDbEntity
8
0
100
AcDbLine
10
-235.53803400000004
20
145.68009000000001
30
0
11
-281.58803399999999
21
145.68009000000001
31
0
0
ARC
5
318
100
AcDbEntity
8
0
100
AcDbCircle
10
-281.58803399999999
20
146.68009000000001
30
0
40
1.0000000000000142
210
0
220
0
230
1
100
AcDbArc
50
180
51
270
0
LINE
5
319
100
AcDbEntity
8
0
100
AcDbLine
10
-282.58803399999999
20
146.68009000000001
30
0
11
-282.58803399999999
21
147.78009
31
0
0
LWPOLYLINE
5
320
100
AcDbEntity
8
0
100
AcDbPolyline
90
10
70
1
43
0.0
10
-252.430418
20
110.105187
10
-251.94428400000004
20
110.105187
42
0.41421356237309503
10
-251.44428400000004
20
110.60518700000002
10
-251.44428400000004
20
123.605186
42
0.4142135623730846
10
-251.94428300000001
20
124.105187
10
-252.94428400000001
20
124.10518600000002
42
0.41421356237310542
10
-253.44428300000004
20
123.60518500000001
10
-253.44428400000001
20
110.60518700000002
42
0.4142135623730846
10
-252.94428500000004
20
110.105186
10
-252.45814899999999
20
110.105187
0
LWPOLYLINE
5
321
100
AcDbEntity
8
0
100
AcDbPolyline
90
12
70
1
43
0.0
10
-220.66439900000003
20
110.105187
10
-220.65053399999999
20
110.10509
10
-208.65053399999999
20
110.10509
10
-208.63666800000001
20
110.105187
10
-208.15053399999999
20
110.105187
42
0.41421356237309503
10
-207.65053399999999
20
110.60518700000002
10
-207.65053400000002
20
123.605186
42
0.4142135623730846
10
-208.150532
20
124.10518600000002
10
-221.15053399999999
20
124.10518600000002
42
0.41421356237309503
10
-221.65053400000002
20
123.605186
10
-221.65053400000002
20
110.60518700000002
42
0.4142135623730846
10
-221.15053500000002
20
110.105186
0
LWPOLYLINE
5
322
100
AcDbEntity
8
0
100
AcDbPolyline
90
12
70
1
43
0.0
10
-54.963035000000005
20
85.505186000000009
42
-0.41421356237309503
10
-54.463034000000007
20
86.005187000000006
10
-41.463034
20
86.005186000000009
42
-0.41421356237309503
10
-40.963034
20
85.505186000000009
10
-40.963034999999991
20
72.505185999999995
42
-0.41421356237309503
10
-41.463034
20
72.005186999999992
10
-41.949168000000007
20
72.005187000000006
10
-41.963034000000007
20
72.005089999999996
10
-53.963034000000007
20
72.005089999999996
10
-53.976899000000003
20
72.005187000000006
10
-54.463034000000007
20
72.005185999999995
42
-0.41421356237309503
10
-54.963034000000007
20
72.505185999999995
0
LWPOLYLINE
5
323
100
AcDbEntity
8
0
100
AcDbPolyline
90
12
70
1
43
0.0
10
-46.71166800000001
20
91.05518600000002
10
-46.225534000000003
20
91.05518600000002
42
0.41421356237309503
10
-45.725534000000003
20
91.555186000000006
10
-45.725534000000003
20
104.555187
42
0.41421356237309503
10
-46.225534000000003
20
105.05518700000002
10
-59.22553400000001
20
105.05518700000002
42
0.41421356237309503
10
-59.72553400000001
20
104.555187
10
-59.72553400000001
20
91.555186000000006
42
0.41421356237309503
10
-59.22553400000001
20
91.05518600000002
10
-58.739398999999999
20
91.05518600000002
10
-58.72553400000001
20
91.055090000000007
10
-46.72553400000001
20
91.055090000000007
0
LWPOLYLINE
5
324
100
AcDbEntity
8
0
100
AcDbPolyline
90
12
70
1
43
0.0
10
-49.214399
20
110.105187
10
-49.200534000000005
20
110.10509
10
-37.200533999999998
20
110.10509
10
-37.186667999999997
20
110.105187
10
-36.700533999999998
20
110.105187
42
0.41421356237309503
10
-36.200533999999998
20
110.60518700000002
10
-36.200534000000005
20
123.605186
42
0.41421356237309503
10
-36.700533999999998
20
124.10518600000002
10
-49.700534000000005
20
124.10518600000002
42
0.41421356237309503
10
-50.200534000000005
20
123.605186
10
-50.200534000000005
20
110.60518700000002
42
0.41421356237308982
10
-49.700535000000002
20
110.105186
0
LWPOLYLINE
5
325
100
AcDbEntity
8
0
100
AcDbPolyline
90
12
70
1
43
0.0
10
-55.250534000000009
20
110.60518500000001
10
-55.250534000000009
20
123.605186
42
0.41421356237309503
10
-55.750534000000009
20
124.10518600000002
10
-68.750534000000002
20
124.10518600000002
42
0.41421356237309503
10
-69.250534000000002
20
123.605186
10
-69.250534000000002
20
110.60518700000002
42
0.41421356237309503
10
-68.750534000000002
20
110.105187
10
-68.264398999999997
20
110.105187
10
-68.250534000000002
20
110.10509
10
-56.250534000000002
20
110.10509
10
-56.236668000000009
20
110.105187
10
-55.750534000000009
20
110.10518700000003
42
0.41421356237308982
0
LWPOLYLINE
5
326
100
AcDbEntity
8
0
100
AcDbPolyline
90
12
70
1
43
0.0
10
-65.275533999999993
20
105.05518699999999
42
-0.41421356237309503
10
-64.775533999999993
20
104.555187
10
-64.775533999999993
20
91.555186000000006
42
-0.41421356237309503
10
-65.275533999999993
20
91.055185999999992
10
-65.761668
20
91.05518600000002
10
-65.775533999999993
20
91.055090000000007
10
-77.775533999999993
20
91.055090000000007
10
-77.789399000000003
20
91.05518600000002
10
-78.275531999999998
20
91.055185999999992
42
-0.41421356237309503
10
-78.775533999999993
20
91.555186000000006
10
-78.775533999999993
20
104.555187
42
-0.41421356237309503
10
-78.275533999999993
20
105.05518700000002
0
LWPOLYLINE
5
327
100
AcDbEntity
8
0
100
AcDbPolyline
90
12
70
1
43
0.0
10
-75.286668000000006
20
110.105187
10
-74.800533999999999
20
110.105187
42
0.41421356237309503
10
-74.300533000000001
20
110.60518600000002
10
-74.300533000000001
20
123.605186
42
0.41421356237309503
10
-74.800533999999999
20
124.105187
10
-87.800533999999999
20
124.10518600000002
42
0.41421356237309503
10
-88.300533999999999
20
123.605186
10
-88.300533999999999
20
110.60518700000002
42
0.41421356237309503
10
-87.800534999999996
20
110.105186
10
-87.314398999999995
20
110.105187
10
-87.300534000000013
20
110.10509
10
-75.300533000000001
20
110.10509
0
LWPOLYLINE
5
328
100
AcDbEntity
8
0
100
AcDbPolyline
90
12
70
1
43
0.0
10
-92.563033000000004
20
72.005187000000006
42
-0.4142135623730846
10
-93.063034000000016
20
72.505185999999995
10
-93.063034999999999
20
85.505186000000009
42
-0.41421356237309503
10
-92.563034000000002
20
86.005187000000006
10
-79.563033000000004
20
86.005187000000021
42
-0.41421356237310542
10
-79.063034000000002
20
85.505186000000009
10
-79.063034000000002
20
72.505184999999997
42
-0.41421356237309503
10
-79.563034000000002
20
72.005186999999992
10
-80.049168000000009
20
72.005187000000006
10
-80.063034000000002
20
72.005089999999996
10
-92.063034000000016
20
72.005089999999996
10
-92.076898999999997
20
72.005187000000006
0
LWPOLYLINE
5
329
100
AcDbEntity
8
0
100
AcDbPolyline
90
12
70
1
43
0.0
10
-31.438033000000001
20
53.455187000000002
10
-31.438033999999998
20
66.455186999999995
42
0.41421356237309503
10
-31.938034000000002
20
66.955186999999995
10
-44.938034000000002
20
66.955186999999995
42
0.41421356237309503
10
-45.438034000000009
20
66.455186999999995
10
-45.438034000000002
20
53.455187000000002
42
0.41421356237309503
10
-44.938034999999999
20
52.955186000000005
10
-44.451898999999997
20
52.955187000000009
10
-44.438034000000002
20
52.955089999999998
10
-32.438034000000002
20
52.955089999999998
10
-32.424168000000002
20
52.955186000000005
10
-31.938034000000002
20
52.955186000000005
42
0.41421356237309503
0
LWPOLYLINE
5
330
100
AcDbEntity
8
0
100
AcDbPolyline
90
12
70
1
43
0.0
10
-64.488034999999996
20
66.455185999999998
42
-0.41421356237309503
10
-63.988033999999999
20
66.955186999999995
10
-50.988034000000006
20
66.955186999999995
42
-0.41421356237309503
10
-50.488034000000006
20
66.455186999999995
10
-50.488034000000006
20
53.455185999999998
42
-0.41421356237309503
10
-50.988034000000006
20
52.955186000000005
10
-51.474168000000006
20
52.955186000000005
10
-51.488033999999999
20
52.955089999999998
10
-63.488034000000006
20
52.955089999999998
10
-63.501899000000002
20
52.955187000000009
10
-63.988033999999999
20
52.955187000000009
42
-0.41421356237309503
10
-64.488033999999999
20
53.455187000000002
0
LWPOLYLINE
5
331
100
AcDbEntity
8
0
100
AcDbPolyline
90
12
70
1
43
0.0
10
-74.013034000000005
20
85.505187000000006
10
-74.013034000000005
20
72.505185999999995
42
0.41421356237309503
10
-73.513032999999993
20
72.005187000000006
10
-73.026899000000014
20
72.005187000000006
10
-73.013034000000005
20
72.005089999999996
10
-61.013033999999998
20
72.005089999999996
10
-60.999167999999997
20
72.005187000000006
10
-60.513034000000005
20
72.005186999999992
42
0.41421356237309503
10
-60.013035000000002
20
72.505185999999995
10
-60.013034000000005
20
85.505186000000009
42
0.41421356237309503
10
-60.513034000000005
20
86.005185999999995
10
-73.513034000000005
20
86.005187000000021
42
0.41421356237309503
0
LWPOLYLINE
5
332
100
AcDbEntity
8
0
100
AcDbPolyline
90
12
70
1
43
0.0
10
-83.038033999999996
20
52.955187000000009
10
-82.55189900000002
20
52.955186000000005
10
-82.53803400000001
20
52.955089999999998
10
-70.538033999999996
20
52.955089999999998
10
-70.524168000000003
20
52.955186000000005
10
-70.038033999999996
20
52.955186000000005
42
0.41421356237309503
10
-69.538033999999996
20
53.455185999999998
10
-69.538033999999996
20
66.455186999999995
42
0.41421356237309503
10
-70.038033999999996
20
66.955186999999995
10
-83.038033999999996
20
66.955186999999995
42
0.41421356237309503
10
-83.53803400000001
20
66.455186999999995
10
-83.53803400000001
20
53.455187000000002
42
0.41421356237309503
0
LWPOLYLINE
5
333
100
AcDbEntity
8
0
100
AcDbPolyline
90
12
70
1
43
0.0
10
-22.899168
20
72.005187000000006
10
-22.413034
20
72.005187000000006
42
0.41421356237309503
10
-21.913035000000001
20
72.505185999999995
10
-21.913034000000003
20
85.505186000000009
42
0.41421356237309503
10
-22.413034
20
86.005185999999995
10
-35.413034000000003
20
86.005187000000006
42
0.41421356237308982
10
-35.913034000000003
20
85.505185000000012
10
-35.913032999999999
20
72.505185999999995
42
0.41421356237309503
10
-35.413032999999999
20
72.005185999999995
10
-34.926899000000006
20
72.005187000000006
10
-34.913034000000003
20
72.005089999999996
10
-22.913034
20
72.005089999999996
0
CIRCLE
5
334
100
AcDbEntity
8
0
100
AcDbCircle
10
-36.329999999999998
20
48.329999999999998
30
0
40
1.1000000000000001
210
-0
220
0
230
1
0
CIRCLE
5
335
100
AcDbEntity
8
0
100
AcDbCircle
10
-286.10000000000002
20
48.329999999999998
30
0
40
1.1000000000000001
210
-0
220
0
230
1
0
LWPOLYLINE
5
336
100
AcDbEntity
8
0
100
AcDbPolyline
90
12
70
1
43
0.0
10
-280.07416799999999
20
52.955186000000005
10
-279.58803399999999
20
52.955186000000005
42
0.41421356237309503
10
-279.088033
20
53.455187000000002
10
-279.08803399999999
20
66.455186999999995
42
0.41421356237309503
10
-279.58803399999999
20
66.955186999999995
10
-292.58803399999999
20
66.955186999999995
42
0.41421356237309503
10
-293.08803499999999
20
66.455185999999998
10
-293.08803399999999
20
53.455187000000002
42
0.41421356237311063
10
-292.58803499999999
20
52.955186000000005
10
-292.101899
20
52.955186000000005
10
-292.08803399999999
20
52.955089999999998
10
-280.08803399999999
20
52.955089999999998
0
LWPOLYLINE
5
337
100
AcDbEntity
8
0
100
AcDbPolyline
90
12
70
1
43
0.0
10
-292.58803399999999
20
72.005185999999981
42
-0.41421356237309503
10
-293.08803399999999
20
72.505185999999995
10
-293.08803500000005
20
85.505186000000009
42
-0.41421356237309503
10
-292.58803399999999
20
86.005187000000006
10
-279.588033
20
86.005187000000021
42
-0.41421356237309503
10
-279.08803399999999
20
85.505186000000009
10
-279.08803399999999
20
72.505187000000006
42
-0.41421356237309503
10
-279.58803399999999
20
72.005187000000006
10
-280.07416799999999
20
72.005187000000006
10
-280.08803399999999
20
72.005089999999996
10
-292.08803399999999
20
72.005089999999996
10
-292.101899
20
72.005187000000006
0
LWPOLYLINE
5
338
100
AcDbEntity
8
0
100
AcDbPolyline
90
12
70
1
43
0.0
10
-255.775532
20
86.005187000000021
42
-0.41421356237309503
10
-255.275533
20
85.505186000000009
10
-255.275533
20
72.505187000000006
42
-0.41421356237309503
10
-255.77553300000002
20
72.005187000000006
10
-256.26166799999999
20
72.005187000000006
10
-256.275533
20
72.005089999999996
10
-268.27553399999999
20
72.005089999999996
10
-268.289399
20
72.005187000000006
10
-268.775533
20
72.005187000000006
42
-0.41421356237307422
10
-269.27553399999999
20
72.505185999999995
10
-269.27553399999999
20
85.505185000000012
42
-0.41421356237310542
10
-268.77553399999999
20
86.005187000000006
0
LWPOLYLINE
5
339
100
AcDbEntity
8
0
100
AcDbPolyline
90
10
70
1
43
0.0
10
-250.68939900000004
20
72.005187000000006
10
-250.66166800000002
20
72.005187000000006
10
-250.175534
20
72.005187000000006
42
0.41421356237309503
10
-249.675534
20
72.505187000000006
10
-249.675534
20
85.505186000000009
42
0.41421356237311585
10
-250.17553300000003
20
86.005187000000006
10
-251.17553400000003
20
86.005187000000006
42
0.4142135623730846
10
-251.67553400000003
20
85.505185000000012
10
-251.67553400000003
20
72.505185999999995
42
0.41421356237309503
10
-251.17553400000003
20
72.005185999999995
0
LWPOLYLINE
5
340
100
AcDbEntity
8
0
100
AcDbPolyline
90
10
70
1
43
0.0
10
-273.88939900000003
20
72.005187000000006
10
-273.86166800000001
20
72.005187000000006
10
-273.37553400000002
20
72.005187000000006
42
0.41421356237309503
10
-272.87553400000002
20
72.505187000000006
10
-272.87553400000002
20
85.505186000000009
42
0.41421356237309503
10
-273.37553300000002
20
86.005187000000006
10
-274.37553400000002
20
86.005187000000006
42
0.41421356237310542
10
-274.87553400000002
20
85.505185000000012
10
-274.87553400000002
20
72.505185999999995
42
0.41421356237307422
10
-274.37553300000002
20
72.005187000000006
0
LWPOLYLINE
5
341
100
AcDbEntity
8
0
100
AcDbPolyline
90
24
70
1
43
0.0
10
-242.57503299999999
20
68.955185999999998
42
-0.41421356237309503
10
-242.07503400000002
20
68.455186999999995
10
-242.07503400000002
20
66.955186999999995
10
-241.488033
20
66.955185999999998
42
-0.41421356237309503
10
-240.98803400000003
20
66.455186999999995
10
-240.988033
20
53.455187000000002
42
-0.41421356237309503
10
-241.48803400000003
20
52.955186000000005
10
-241.97416799999999
20
52.955186000000005
10
-241.98803400000003
20
52.955089999999998
10
-273.03803399999998
20
52.955089999999998
10
-273.05189900000005
20
52.955186000000005
10
-273.53803499999998
20
52.955185999999998
42
-0.41421356237311063
10
-274.03803400000004
20
53.455187000000002
10
-274.03803500000004
20
66.455185999999998
42
-0.41421356237309503
10
-273.53803399999998
20
66.955186999999995
10
-272.95103400000005
20
66.955185999999998
10
-272.95103500000005
20
68.455185999999998
42
-0.41421356237309503
10
-272.45103399999999
20
68.955186999999995
10
-266.45103499999999
20
68.955186000000012
42
-0.41421356237310542
10
-265.95103399999999
20
68.455186999999995
10
-265.95103399999999
20
66.955185999999998
10
-249.07503399999999
20
66.955185999999998
10
-249.07503499999996
20
68.455185999999998
42
-0.41421356237309503
10
-248.57503399999999
20
68.955186999999995
0
LWPOLYLINE
5
342
100
AcDbEntity
8
0
100
AcDbPolyline
90
12
70
1
43
0.0
10
-264.55591800000002
20
92.055187000000004
10
-264.06978400000003
20
92.055187000000004
42
0.41421356237309503
10
-263.56978400000003
20
92.555187000000018
10
-263.56978400000003
20
106.55518700000002
42
0.41421356237309503
10
-264.06978400000003
20
107.055187
10
-270.06978400000003
20
107.055187
42
0.41421356237309503
10
-270.56978500000002
20
106.55518600000001
10
-270.56978400000003
20
92.555187000000018
42
0.41421356237311585
10
-270.06978500000002
20
92.05518600000002
10
-269.58364899999998
20
92.055187000000004
10
-269.56978400000003
20
92.055090000000007
10
-264.56978400000003
20
92.055090000000007
0
LWPOLYLINE
5
343
100
AcDbEntity
8
0
100
AcDbPolyline
90
12
70
1
43
0.0
10
-292.58803399999999
20
91.05518600000002
10
-292.101899
20
91.05518600000002
10
-292.08803399999999
20
91.055090000000007
10
-280.08803399999999
20
91.055090000000007
10
-280.07416799999999
20
91.05518600000002
10
-279.58803399999999
20
91.055185999999992
42
0.41421356237309503
10
-279.088033
20
91.555187000000004
10
-279.08803399999999
20
104.555187
42
0.41421356237309503
10
-279.58803399999999
20
105.05518700000002
10
-292.58803399999999
20
105.05518700000002
42
0.41421356237309503
10
-293.08803499999999
20
104.55518600000002
10
-293.08803399999999
20
91.555186000000006
42
0.41421356237309503
0
LWPOLYLINE
5
344
100
AcDbEntity
8
0
100
AcDbPolyline
90
12
70
1
43
0.0
10
-261.13178399999998
20
91.055090000000007
10
-249.13178400000004
20
91.055090000000007
10
-249.11791800000003
20
91.05518600000002
10
-248.63178400000004
20
91.055185999999992
42
0.41421356237309503
10
-248.13178300000004
20
91.555187000000004
10
-248.13178400000001
20
104.555187
42
0.41421356237309503
10
-248.63178400000004
20
105.05518700000002
10
-261.63178399999998
20
105.05518700000002
42
0.41421356237309503
10
-262.13178399999998
20
104.55518499999999
10
-262.13178399999998
20
91.555186000000006
42
0.41421356237309503
10
-261.63178399999998
20
91.05518600000002
10
-261.14564899999999
20
91.05518600000002
0
LWPOLYLINE
5
345
100
AcDbEntity
8
0
100
AcDbPolyline
90
12
70
1
43
0.0
10
-226.41303500000004
20
85.505186000000009
10
-226.41303400000001
20
72.505185999999995
42
0.41421356237309503
10
-225.91303400000001
20
72.005185999999995
10
-225.42689899999999
20
72.005187000000006
10
-225.41303400000004
20
72.005089999999996
10
-213.41303400000001
20
72.005089999999996
10
-213.399168
20
72.005187000000006
10
-212.91303400000004
20
72.005187000000006
42
0.41421356237309503
10
-212.41303400000004
20
72.505187000000006
10
-212.41303400000004
20
85.505186000000009
42
0.41421356237309503
10
-212.91303400000004
20
86.005185999999995
10
-225.91303400000001
20
86.005187000000006
42
0.41421356237309503
0
LWPOLYLINE
5
346
100
AcDbEntity
8
0
100
AcDbPolyline
90
12
70
1
43
0.0
10
-231.17553399999997
20
104.55518499999999
42
-0.41421356237309503
10
-230.67553400000003
20
105.05518700000002
10
-217.67553300000003
20
105.05518600000001
42
-0.41421356237309503
10
-217.17553400000003
20
104.555187
10
-217.17553299999997
20
91.555187000000004
42
-0.41421356237309503
10
-217.675534
20
91.055185999999992
10
-218.16166800000002
20
91.05518600000002
10
-218.17553400000003
20
91.055090000000007
10
-230.175534
20
91.055090000000007
10
-230.18939900000004
20
91.05518600000002
10
-230.67553400000003
20
91.055185999999992
42
-0.41421356237309503
10
-231.17553400000003
20
91.555186000000006
0
LWPOLYLINE
5
347
100
AcDbEntity
8
0
100
AcDbPolyline
90
12
70
1
43
0.0
10
-239.69378399999999
20
92.555187000000018
10
-239.69378399999999
20
106.55518700000002
42
0.41421356237309503
10
-240.193783
20
107.05518600000002
10
-246.19378400000002
20
107.055187
42
0.41421356237309503
10
-246.69378499999999
20
106.55518600000001
10
-246.69378400000002
20
92.555187000000018
42
0.41421356237311585
10
-246.19378499999999
20
92.05518600000002
10
-245.707649
20
92.055187000000004
10
-245.69378400000002
20
92.055090000000007
10
-240.69378400000002
20
92.055090000000007
10
-240.67991800000001
20
92.055187000000004
10
-240.19378399999999
20
92.055187000000004
42
0.41421356237309503
0
CIRCLE
5
348
100
AcDbEntity
8
0
100
AcDbCircle
10
-231.03999999999999
20
48.340000000000003
30
0
40
1.1000000000000001
210
-0
220
0
230
1
0
LWPOLYLINE
5
349
100
AcDbEntity
8
0
100
AcDbPolyline
90
12
70
1
43
0.0
10
-222.43803299999999
20
66.955185999999998
10
-235.43803400000002
20
66.955186999999995
42
0.41421356237309503
10
-235.93803500000004
20
66.455185999999998
10
-235.93803400000002
20
53.455187000000002
42
0.41421356237308982
10
-235.43803500000001
20
52.955186000000005
10
-234.951899
20
52.955186000000005
10
-234.93803400000002
20
52.955089999999998
10
-222.93803400000002
20
52.955089999999998
10
-222.92416800000001
20
52.955186000000005
10
-222.43803400000002
20
52.955186000000005
42
0.41421356237309503
10
-221.93803299999999
20
53.455187000000002
10
-221.93803400000002
20
66.455186999999995
42
0.41421356237309503
0
LWPOLYLINE
5
350
100
AcDbEntity
8
0
100
AcDbPolyline
90
12
70
1
43
0.0
10
-245.46303499999999
20
85.505186000000009
10
-245.46303399999999
20
72.505185999999995
42
0.41421356237309503
10
-244.96303400000002
20
72.005185999999995
10
-244.476899
20
72.005187000000006
10
-244.46303400000002
20
72.005089999999996
10
-232.46303400000002
20
72.005089999999996
10
-232.44916799999999
20
72.005187000000006
10
-231.96303400000002
20
72.005187000000006
42
0.41421356237309503
10
-231.46303399999999
20
72.505187000000006
10
-231.46303399999999
20
85.505186000000009
42
0.41421356237309503
10
-231.96303400000002
20
86.005185999999995
10
-244.96303400000002
20
86.005187000000006
42
0.41421356237309503
0
LWPOLYLINE
5
351
100
AcDbEntity
8
0
100
AcDbPolyline
90
12
70
1
43
0.0
10
-216.388035
20
52.955186000000005
10
-215.90189899999999
20
52.955186000000005
10
-215.88803400000003
20
52.955089999999998
10
-203.888034
20
52.955089999999998
10
-203.874168
20
52.955186000000005
10
-203.38803400000003
20
52.955186000000005
42
0.41421356237309503
10
-202.88803300000001
20
53.455187000000002
10
-202.88803400000003
20
66.455186999999995
42
0.41421356237309503
10
-203.38803300000001
20
66.955185999999998
10
-216.388034
20
66.955186999999995
42
0.41421356237309503
10
-216.88803500000003
20
66.455185999999998
10
-216.888034
20
53.455187000000002
42
0.41421356237308982
0
LWPOLYLINE
5
352
100
AcDbEntity
8
0
100
AcDbPolyline
90
12
70
1
43
0.0
10
-206.863034
20
72.005185999999995
10
-206.37689900000001
20
72.005187000000006
10
-206.36303400000003
20
72.005089999999996
10
-194.363034
20
72.005089999999996
10
-194.34916799999999
20
72.005187000000006
10
-193.86303400000003
20
72.005187000000006
42
0.41421356237309503
10
-193.36303400000003
20
72.505187000000006
10
-193.36303400000003
20
85.505186000000009
42
0.41421356237309503
10
-193.863032
20
86.005185999999995
10
-206.863034
20
86.005187000000006
42
0.41421356237309503
10
-207.36303500000002
20
85.505186000000009
10
-207.363034
20
72.505185999999995
42
0.41421356237309503
0
LWPOLYLINE
5
353
100
AcDbEntity
8
0
100
AcDbPolyline
90
12
70
1
43
0.0
10
-199.12553400000002
20
91.055090000000007
10
-199.11166800000004
20
91.05518600000002
10
-198.62553399999999
20
91.055185999999992
42
0.41421356237309503
10
-198.12553300000002
20
91.555187000000004
10
-198.12553400000002
20
104.555187
42
0.41421356237309503
10
-198.62553300000002
20
105.05518600000002
10
-211.62553400000002
20
105.05518700000002
42
0.41421356237309503
10
-212.12553400000002
20
104.55518499999999
10
-212.12553400000002
20
91.555186000000006
42
0.41421356237309503
10
-211.62553400000002
20
91.05518600000002
10
-211.13939900000003
20
91.05518600000002
10
-211.12553399999999
20
91.055090000000007
0
LWPOLYLINE
5
354
100
AcDbEntity
8
0
100
AcDbPolyline
90
12
70
1
43
0.0
10
-121.63803300000001
20
66.455186999999995
42
-0.41421356237309503
10
-121.13803300000001
20
66.955186999999995
10
-108.138034
20
66.955187000000009
42
-0.41421356237309503
10
-107.638034
20
66.455186999999995
10
-107.638034
20
53.455185999999998
42
-0.41421356237309503
10
-108.138034
20
52.955186000000005
10
-108.624168
20
52.955186000000005
10
-108.63803400000002
20
52.955089999999998
10
-120.63803300000001
20
52.955089999999998
10
-120.651899
20
52.955186000000005
10
-121.13803300000001
20
52.955186999999995
42
-0.41421356237309503
10
-121.63803300000001
20
53.455187000000002
0
LWPOLYLINE
5
355
100
AcDbEntity
8
0
100
AcDbPolyline
90
12
70
1
43
0.0
10
-126.688033
20
53.455187000000002
42
-0.41421356237309503
10
-127.188034
20
52.955186000000005
10
-127.67416799999999
20
52.955186000000005
10
-127.68803400000002
20
52.955089999999998
10
-139.68803399999999
20
52.955089999999998
10
-139.70189900000003
20
52.955186000000005
10
-140.18803500000001
20
52.955185999999998
42
-0.41421356237307944
10
-140.68803400000002
20
53.455187000000002
10
-140.68803400000002
20
66.455186999999995
42
-0.41421356237309503
10
-140.18803399999999
20
66.955186999999995
10
-127.188035
20
66.955186000000012
42
-0.41421356237308982
10
-126.688034
20
66.455186999999995
0
LWPOLYLINE
5
356
100
AcDbEntity
8
0
100
AcDbPolyline
90
12
70
1
43
0.0
10
-98.613033999999999
20
86.005185999999995
10
-111.61303400000001
20
86.005187000000006
42
0.41421356237309503
10
-112.113035
20
85.505186000000009
10
-112.11303400000003
20
72.505185999999995
42
0.41421356237309503
10
-111.613033
20
72.005187000000006
10
-111.12689899999999
20
72.005187000000006
10
-111.113034
20
72.005089999999996
10
-99.113034000000013
20
72.005089999999996
10
-99.09916800000002
20
72.005187000000006
10
-98.613033999999999
20
72.005186999999992
42
0.41421356237309503
10
-98.113035000000011
20
72.505185999999995
10
-98.113033999999999
20
85.505186000000009
42
0.41421356237309503
0
LWPOLYLINE
5
357
100
AcDbEntity
8
0
100
AcDbPolyline
90
12
70
1
43
0.0
10
-118.149168
20
72.005187000000006
10
-117.663034
20
72.005187000000006
42
0.41421356237309503
10
-117.16303400000001
20
72.505187000000006
10
-117.163034
20
85.505186000000009
42
0.41421356237309503
10
-117.663034
20
86.005185999999995
10
-130.66303400000004
20
86.005187000000021
42
0.41421356237309503
10
-131.16303400000001
20
85.505187000000006
10
-131.16303400000004
20
72.505185999999995
42
0.41421356237309503
10
-130.66303400000004
20
72.005185999999995
10
-130.17689899999999
20
72.005187000000006
10
-130.16303400000001
20
72.005089999999996
10
-118.16303400000001
20
72.005089999999996
0
LWPOLYLINE
5
358
100
AcDbEntity
8
0
100
AcDbPolyline
90
12
70
1
43
0.0
10
-101.601899
20
52.955186000000005
10
-101.58803399999999
20
52.955089999999998
10
-89.588033999999993
20
52.955089999999998
10
-89.574168000000014
20
52.955186000000005
10
-89.088033999999993
20
52.955186000000005
42
0.41421356237309503
10
-88.588032999999996
20
53.455185000000007
10
-88.588033999999993
20
66.455186999999995
42
0.41421356237309503
10
-89.088033999999993
20
66.955186999999995
10
-102.08803400000001
20
66.955186999999995
42
0.41421356237309503
10
-102.58803399999999
20
66.455186999999995
10
-102.58803400000002
20
53.455187000000002
42
0.41421356237309503
10
-102.08803400000001
20
52.955187000000009
0
LWPOLYLINE
5
359
100
AcDbEntity
8
0
100
AcDbPolyline
90
12
70
1
43
0.0
10
-146.72416800000002
20
52.955186000000005
10
-146.238034
20
52.955186000000005
42
0.41421356237309503
10
-145.73803300000003
20
53.455187000000002
10
-145.738034
20
66.455186999999995
42
0.41421356237310025
10
-146.23803500000002
20
66.955185999999998
10
-159.238034
20
66.955186999999995
42
0.41421356237309503
10
-159.73803400000003
20
66.455185
10
-159.73803400000003
20
53.455187000000002
42
0.41421356237310025
10
-159.238035
20
52.955186000000005
10
-158.75189900000004
20
52.955186000000005
10
-158.738034
20
52.955089999999998
10
-146.738034
20
52.955089999999998
0
LWPOLYLINE
5
360
100
AcDbEntity
8
0
100
AcDbPolyline
90
12
70
1
43
0.0
10
-116.875534
20
104.555187
10
-116.875534
20
91.555186000000006
42
0.41421356237309503
10
-116.37553200000001
20
91.05518600000002
10
-115.889399
20
91.05518600000002
10
-115.87553400000002
20
91.055090000000007
10
-103.87553400000002
20
91.055090000000007
10
-103.86166799999999
20
91.05518600000002
10
-103.37553400000002
20
91.055185999999992
42
0.4142135623730846
10
-102.875533
20
91.555184999999994
10
-102.875534
20
104.555187
42
0.41421356237309503
10
-103.37553400000002
20
105.05518700000002
10
-116.37553400000002
20
105.05518700000002
42
0.41421356237309503
0
LWPOLYLINE
5
361
100
AcDbEntity
8
0
100
AcDbPolyline
90
12
70
1
43
0.0
10
-84.325534000000019
20
105.05518600000002
42
-0.41421356237310542
10
-83.825532999999993
20
104.555187
10
-83.825532999999993
20
91.555184999999994
42
-0.41421356237309503
10
-84.325534000000019
20
91.055185999999992
10
-84.811667999999997
20
91.05518600000002
10
-84.825534000000005
20
91.055090000000007
10
-96.825534000000019
20
91.055090000000007
10
-96.839399
20
91.05518600000002
10
-97.325534000000005
20
91.055185999999992
42
-0.41421356237309503
10
-97.825534000000005
20
91.555186000000006
10
-97.825535000000002
20
104.55518600000002
42
-0.41421356237309503
10
-97.325534000000005
20
105.05518700000002
0
LWPOLYLINE
5
362
100
AcDbEntity
8
0
100
AcDbPolyline
90
12
70
1
43
0.0
10
-192.075534
20
91.055090000000007
10
-180.07553400000003
20
91.055090000000007
10
-180.061668
20
91.05518600000002
10
-179.575534
20
91.055185999999992
42
0.41421356237309503
10
-179.07553300000001
20
91.555187000000004
10
-179.075534
20
104.555187
42
0.41421356237309503
10
-179.57553300000001
20
105.05518600000002
10
-192.57553400000003
20
105.05518700000002
42
0.41421356237309503
10
-193.07553400000003
20
104.55518499999999
10
-193.07553400000003
20
91.555186000000006
42
0.41421356237309503
10
-192.57553400000003
20
91.05518600000002
10
-192.08939900000001
20
91.05518600000002
0
LWPOLYLINE
5
363
100
AcDbEntity
8
0
100
AcDbPolyline
90
12
70
1
43
0.0
10
-187.326899
20
72.005187000000006
10
-187.31303399999999
20
72.005089999999996
10
-175.31303399999999
20
72.005089999999996
10
-175.29916800000001
20
72.005187000000006
10
-174.81303399999999
20
72.005187000000006
42
0.41421356237309503
10
-174.31303400000002
20
72.505187000000006
10
-174.31303400000002
20
85.505186000000009
42
0.41421356237309503
10
-174.81303199999999
20
86.005185999999995
10
-187.81303399999999
20
86.005187000000006
42
0.41421356237309503
10
-188.31303500000001
20
85.505186000000009
10
-188.31303399999999
20
72.505185999999995
42
0.41421356237309503
10
-187.81303399999999
20
72.005185999999995
0
LWPOLYLINE
5
364
100
AcDbEntity
8
0
100
AcDbPolyline
90
12
70
1
43
0.0
10
-160.02553300000002
20
91.555187000000004
42
-0.41421356237309503
10
-160.52553399999999
20
91.055185999999992
10
-161.01166799999999
20
91.05518600000002
10
-161.02553400000002
20
91.055090000000007
10
-173.02553399999999
20
91.055090000000007
10
-173.039399
20
91.05518600000002
10
-173.52553400000002
20
91.055185999999992
42
-0.41421356237309503
10
-174.02553400000002
20
91.555186000000006
10
-174.02553400000002
20
104.55518499999999
42
-0.41421356237309503
10
-173.52553400000002
20
105.05518700000002
10
-160.525533
20
105.05518600000001
42
-0.41421356237309503
10
-160.02553399999999
20
104.555187
0
LWPOLYLINE
5
365
100
AcDbEntity
8
0
100
AcDbPolyline
90
12
70
1
43
0.0
10
-155.263034
20
72.505187000000006
10
-155.263034
20
85.505186000000009
42
0.41421356237310542
10
-155.76303200000001
20
86.005185999999995
10
-168.763034
20
86.005187000000006
42
0.4142135623730846
10
-169.263034
20
85.505185000000012
10
-169.263034
20
72.505185999999995
42
0.41421356237309503
10
-168.763034
20
72.005185999999995
10
-168.27689899999999
20
72.005187000000006
10
-168.263034
20
72.005089999999996
10
-156.263034
20
72.005089999999996
10
-156.249168
20
72.005187000000006
10
-155.763034
20
72.005187000000006
42
0.41421356237309503
0
LWPOLYLINE
5
366
100
AcDbEntity
8
0
100
AcDbPolyline
90
12
70
1
43
0.0
10
-154.97553400000004
20
104.55518499999999
42
-0.41421356237310542
10
-154.47553400000001
20
105.05518700000002
10
-141.47553400000001
20
105.05518700000002
42
-0.41421356237309503
10
-140.97553400000001
20
104.555187
10
-140.97553400000001
20
91.555186000000006
42
-0.41421356237309503
10
-141.47553400000001
20
91.055185999999992
10
-141.961668
20
91.05518600000002
10
-141.97553400000001
20
91.055090000000007
10
-153.97553400000001
20
91.055090000000007
10
-153.98939899999999
20
91.05518600000002
10
-154.47553400000001
20
91.055185999999992
42
-0.41421356237309503
10
-154.97553400000004
20
91.555186000000006
0
LWPOLYLINE
5
367
100
AcDbEntity
8
0
100
AcDbPolyline
90
12
70
1
43
0.0
10
-149.21303399999999
20
72.005089999999996
10
-137.21303399999999
20
72.005089999999996
10
-137.19916799999999
20
72.005187000000006
10
-136.71303399999999
20
72.005187000000006
42
0.41421356237309503
10
-136.21303399999999
20
72.505187000000006
10
-136.21303399999999
20
85.505186000000009
42
0.41421356237309503
10
-136.71303399999999
20
86.005185999999995
10
-149.71303399999999
20
86.005187000000021
42
0.41421356237309503
10
-150.21303399999999
20
85.505187000000006
10
-150.21303399999999
20
72.505185999999995
42
0.41421356237309503
10
-149.71303399999999
20
72.005185999999995
10
-149.226899
20
72.005187000000006
0
LWPOLYLINE
5
368
100
AcDbEntity
8
0
100
AcDbPolyline
90
12
70
1
43
0.0
10
-121.925534
20
91.555186000000006
42
-0.41421356237309503
10
-122.425534
20
91.055185999999992
10
-122.91166800000001
20
91.05518600000002
10
-122.92553400000001
20
91.055090000000007
10
-134.925534
20
91.055090000000007
10
-134.93939900000001
20
91.05518600000002
10
-135.425532
20
91.055185999999992
42
-0.41421356237310542
10
-135.92553400000003
20
91.555186000000006
10
-135.92553400000003
20
104.555187
42
-0.41421356237309503
10
-135.425534
20
105.05518700000002
10
-122.425534
20
105.05518700000002
42
-0.41421356237309503
10
-121.925534
20
104.555187
0
LWPOLYLINE
5
369
100
AcDbEntity
8
0
100
AcDbPolyline
90
12
70
1
43
0.0
10
-178.78803400000004
20
66.455185
42
-0.4142135623730846
10
-178.28803400000001
20
66.955186999999995
10
-165.28803400000001
20
66.955187000000009
42
-0.41421356237309503
10
-164.78803400000001
20
66.455186999999995
10
-164.78803300000004
20
53.455187000000002
42
-0.41421356237309503
10
-165.28803400000001
20
52.955186000000005
10
-165.77416800000003
20
52.955186000000005
10
-165.78803400000001
20
52.955089999999998
10
-177.78803400000001
20
52.955089999999998
10
-177.80189899999999
20
52.955186000000005
10
-178.28803500000004
20
52.955185999999998
42
-0.41421356237308982
10
-178.78803400000004
20
53.455187000000002
0
LWPOLYLINE
5
370
100
AcDbEntity
8
0
100
AcDbPolyline
90
12
70
1
43
0.0
10
-197.33803499999999
20
52.955186000000005
10
-196.851899
20
52.955186000000005
10
-196.83803400000002
20
52.955089999999998
10
-184.83803399999999
20
52.955089999999998
10
-184.82416799999999
20
52.955186000000005
10
-184.33803399999999
20
52.955186000000005
42
0.41421356237309503
10
-183.838033
20
53.455187000000002
10
-183.83803399999999
20
66.455186999999995
42
0.41421356237309503
10
-184.33803399999999
20
66.955186999999995
10
-197.33803399999999
20
66.955186999999995
42
0.41421356237309503
10
-197.83803500000002
20
66.455185999999998
10
-197.83803399999999
20
53.455187000000002
42
0.41421356237308982
0
CIRCLE
5
371
100
AcDbEntity
8
0
100
AcDbCircle
10
-133.69999999999999
20
48.320000000000007
30
0
40
1.1000000000000001
210
-0
220
0
230
1
0
LWPOLYLINE
5
372
100
AcDbEntity
8
0
100
AcDbPolyline
90
12
70
1
43
0.0
10
-273.53803499999992
20
110.105186
42
-0.41421356237312623
10
-274.03803400000004
20
110.60518700000002
10
-274.03803400000004
20
123.605186
42
-0.41421356237309503
10
-273.53803399999998
20
124.10518600000002
10
-260.53803300000004
20
124.105187
42
-0.4142135623730846
10
-260.03803399999998
20
123.605186
10
-260.03803399999998
20
110.60518700000002
42
-0.41421356237309503
10
-260.53803399999998
20
110.105187
10
-261.02416800000003
20
110.105187
10
-261.03803399999998
20
110.10509
10
-273.03803399999998
20
110.10509
10
-273.05189900000005
20
110.105187
0
LWPOLYLINE
5
373
100
AcDbEntity
8
0
100
AcDbPolyline
90
12
70
1
43
0.0
10
-247.84428300000002
20
123.60518500000001
10
-247.84428399999999
20
110.60518700000002
42
0.41421356237309503
10
-247.34428399999999
20
110.105187
10
-246.858149
20
110.105187
10
-246.84428400000002
20
110.10509
10
-234.84428399999999
20
110.10509
10
-234.83041800000001
20
110.105187
10
-234.34428400000002
20
110.105187
42
0.41421356237309503
10
-233.84428400000002
20
110.60518700000002
10
-233.84428400000002
20
123.605186
42
0.4142135623730846
10
-234.34428199999999
20
124.10518600000002
10
-247.34428399999999
20
124.10518600000002
42
0.41421356237310542
0
LWPOLYLINE
5
374
100
AcDbEntity
8
0
100
AcDbPolyline
90
10
70
1
43
0.0
10
-230.24428400000002
20
123.605186
42
-0.41421356237309503
10
-229.74428399999999
20
124.10518600000002
10
-228.74428300000005
20
124.105187
42
-0.41421356237310542
10
-228.24428399999999
20
123.605186
10
-228.24428399999999
20
110.60518700000002
42
-0.41421356237309503
10
-228.74428399999999
20
110.105187
10
-229.23041799999999
20
110.105187
10
-229.25814900000003
20
110.105187
10
-229.74428499999999
20
110.105186
42
-0.4142135623730846
10
-230.24428400000002
20
110.60518700000002
0
LWPOLYLINE
5
375
100
AcDbEntity
8
0
100
AcDbPolyline
90
12
70
1
43
0.0
10
-164.00053500000001
20
110.105186
10
-163.514399
20
110.105187
10
-163.50053400000002
20
110.10509
10
-151.50053399999999
20
110.10509
10
-151.48666800000001
20
110.105187
10
-151.00053400000002
20
110.105187
42
0.41421356237309503
10
-150.50053399999999
20
110.60518700000002
10
-150.50053399999999
20
123.605186
42
0.41421356237309503
10
-151.00053400000002
20
124.10518600000002
10
-164.00053400000002
20
124.10518600000002
42
0.4142135623730846
10
-164.50053300000002
20
123.60518500000001
10
-164.50053400000002
20
110.60518700000002
42
0.4142135623730846
0
LWPOLYLINE
5
376
100
AcDbEntity
8
0
100
AcDbPolyline
90
12
70
1
43
0.0
10
-170.55053400000003
20
110.10509
10
-170.53666799999999
20
110.105187
10
-170.05053400000003
20
110.105187
42
0.41421356237309503
10
-169.550534
20
110.60518700000002
10
-169.550534
20
123.605186
42
0.41421356237310542
10
-170.05053200000003
20
124.10518600000002
10
-183.05053400000003
20
124.10518600000002
42
0.4142135623730846
10
-183.55053300000003
20
123.60518500000001
10
-183.55053400000003
20
110.60518700000002
42
0.41421356237310542
10
-183.050535
20
110.105186
10
-182.56439900000001
20
110.105187
10
-182.55053400000003
20
110.10509
0
LWPOLYLINE
5
377
100
AcDbEntity
8
0
100
AcDbPolyline
90
12
70
1
43
0.0
10
-188.60053400000001
20
110.60518700000002
10
-188.60053400000001
20
123.605186
42
0.4142135623730846
10
-189.10053199999999
20
124.10518600000002
10
-202.10053400000004
20
124.10518600000002
42
0.41421356237309503
10
-202.60053400000004
20
123.605186
10
-202.60053400000004
20
110.60518700000002
42
0.41421356237310542
10
-202.10053500000001
20
110.105186
10
-201.61439900000002
20
110.105187
10
-201.60053400000004
20
110.10509
10
-189.60053400000004
20
110.10509
10
-189.586668
20
110.105187
10
-189.10053400000004
20
110.105187
42
0.41421356237309503
0
LWPOLYLINE
5
378
100
AcDbEntity
8
0
100
AcDbPolyline
90
12
70
1
43
0.0
10
-293.08803399999999
20
123.605186
10
-293.08803399999999
20
110.60518700000002
42
0.41421356237310542
10
-292.58803499999999
20
110.105186
10
-292.101899
20
110.105187
10
-292.08803399999999
20
110.10509
10
-280.08803399999999
20
110.10509
10
-280.07416799999999
20
110.105187
10
-279.58803399999999
20
110.105187
42
0.41421356237309503
10
-279.08803399999999
20
110.60518700000002
10
-279.08803399999999
20
123.605186
42
0.4142135623730846
10
-279.588033
20
124.105187
10
-292.58803399999999
20
124.10518600000002
42
0.41421356237309503
0
LWPOLYLINE
5
379
100
AcDbEntity
8
0
100
AcDbPolyline
90
12
70
1
43
0.0
10
-144.950534
20
110.105187
10
-144.46439899999999
20
110.105187
10
-144.450534
20
110.10509
10
-132.450534
20
110.10509
10
-132.436668
20
110.105187
10
-131.950534
20
110.10518700000003
42
0.41421356237309503
10
-131.450535
20
110.60518600000002
10
-131.450534
20
123.605186
42
0.41421356237309503
10
-131.950534
20
124.10518600000002
10
-144.950534
20
124.10518600000002
42
0.41421356237309503
10
-145.450534
20
123.605186
10
-145.45053400000003
20
110.60518700000002
42
0.41421356237309503
0
LWPOLYLINE
5
380
100
AcDbEntity
8
0
100
AcDbPolyline
90
12
70
1
43
0.0
10
-93.85053400000001
20
124.10518600000002
42
-0.41421356237309503
10
-93.350533999999996
20
123.605186
10
-93.350532999999999
20
110.60518600000002
42
-0.41421356237309503
10
-93.85053400000001
20
110.105187
10
-94.336668000000003
20
110.105187
10
-94.350532999999999
20
110.10509
10
-106.35053400000001
20
110.10509
10
-106.36439900000001
20
110.105187
10
-106.850533
20
110.105186
42
-0.41421356237309503
10
-107.350534
20
110.60518700000002
10
-107.35053400000001
20
123.605186
42
-0.41421356237309503
10
-106.85053400000001
20
124.10518600000002
0
LWPOLYLINE
5
381
100
AcDbEntity
8
0
100
AcDbPolyline
90
12
70
1
43
0.0
10
-113.386668
20
110.105187
10
-112.90053399999999
20
110.105187
42
0.41421356237309503
10
-112.400533
20
110.60518600000002
10
-112.40053399999999
20
123.605186
42
0.41421356237309503
10
-112.90053399999999
20
124.10518600000002
10
-125.90053400000001
20
124.10518600000002
42
0.41421356237309503
10
-126.40053399999999
20
123.605186
10
-126.40053400000001
20
110.60518700000002
42
0.41421356237309503
10
-125.90053300000001
20
110.105186
10
-125.414399
20
110.105187
10
-125.40053399999999
20
110.10509
10
-113.40053300000001
20
110.10509
0
LWPOLYLINE
5
382
100
AcDbEntity
8
0
100
AcDbPolyline
90
12
70
1
43
0.0
10
-43.844284000000002
20
143.15518700000001
10
-56.844284000000009
20
143.15518700000001
42
0.41421356237310025
10
-57.344284000000002
20
142.65518499999999
10
-57.344284000000002
20
129.65518599999999
42
0.41421356237309503
10
-56.844284000000009
20
129.15518599999999
10
-56.358148999999997
20
129.15518599999999
10
-56.344284000000009
20
129.15509
10
-44.344284000000009
20
129.15509
10
-44.330418000000009
20
129.15518599999999
10
-43.844284000000002
20
129.15518599999999
42
0.41421356237309503
10
-43.344284000000002
20
129.65518599999999
10
-43.344284000000002
20
142.65518700000001
42
0.41421356237309503
0
CIRCLE
5
383
100
AcDbEntity
8
0
100
AcDbCircle
10
-84.782720000000012
20
137.85575600000001
30
0
40
2.7999999999999998
210
-0
220
0
230
1
0
LWPOLYLINE
5
384
100
AcDbEntity
8
0
100
AcDbPolyline
90
12
70
1
43
0.0
10
-69.281784000000002
20
127.15509
10
-69.267918000000009
20
127.15518600000001
10
-68.781784000000002
20
127.15518700000001
42
0.41421356237309503
10
-68.281784000000002
20
127.655185
10
-68.281784000000002
20
141.65518700000001
42
0.41421356237309503
10
-68.781783000000004
20
142.15518599999999
10
-74.781784000000016
20
142.15518699999998
42
0.41421356237308982
10
-75.281784000000002
20
141.65518499999999
10
-75.281784000000002
20
127.65518700000001
42
0.41421356237309503
10
-74.781783000000004
20
127.15518600000001
10
-74.295648999999997
20
127.15518600000001
10
-74.281784000000002
20
127.15509
0
ARC
5
385
100
AcDbEntity
8
0
100
AcDbCircle
10
-107.73321199999999
20
130.287104
30
0
40
0.49999984873700043
210
0
220
0
230
1
100
AcDbArc
50
205.80006569479841
51
291.59464008525867
0
LINE
5
386
100
AcDbEntity
8
0
100
AcDbLine
10
-108.18337100000002
20
130.06948800000001
30
0
11
-109.60693805696431
21
133.0142779724622
31
0
0
ARC
5
387
100
AcDbEntity
8
0
100
AcDbCircle
10
-109.156779
20
133.23189400000001
30
0
40
0.49999997580200023
210
0
220
0
230
1
100
AcDbArc
50
120.00542682590944
51
205.80006569481202
0
LINE
5
388
100
AcDbEntity
8
0
100
AcDbLine
10
-109.40682000000001
20
133.66488300000003
30
0
11
-105.6088130632544
21
135.85814110953578
31
0
0
ARC
5
389
100
AcDbEntity
8
0
100
AcDbCircle
10
-105.35877200000002
20
135.425152
30
0
40
0.5000002291250073
210
0
220
-0
230
1
100
AcDbArc
50
43.09183286568112
51
120.00542682591349
0
ARC
5
390
100
AcDbEntity
8
0
100
AcDbCircle
10
-102.401218
20
138.19198700000001
30
0
40
3.5499999659543175
210
0
220
0
230
1
100
AcDbArc
50
-136.90821941193215
51
15.988310187060218
0
ARC
5
391
100
AcDbEntity
8
0
100
AcDbCircle
10
-98.507881000000012
20
139.307525
30
0
40
0.4999993576730089
210
0
220
0
230
1
100
AcDbArc
50
107.01753584539765
51
195.9884405818685
0
ARC
5
392
100
AcDbEntity
8
0
100
AcDbCircle
10
-97.776218
20
136.91698700000001
30
0
40
3.0000008615540033
210
0
220
-0
230
1
100
AcDbArc
50
46.766767604918812
51
107.01757386397028
0
ARC
5
393
100
AcDbEntity
8
0
100
AcDbCircle
10
-95.378823999999994
20
139.46698699999999
30
0
40
0.49999885147970913
210
0
220
0
230
1
100
AcDbArc
50
226.76678568330126
51
270.00002049325752
0
LINE
5
394
100
AcDbEntity
8
0
100
AcDbLine
10
-95.378823821162996
20
138.96698814852004
30
0
11
-95.320000000003787
21
138.96698712889724
31
0
0
ARC
5
395
100
AcDbEntity
8
0
100
AcDbCircle
10
-95.319999999999993
20
138.46698699999999
30
0
40
0.50000025816899507
210
0
220
-0
230
1
100
AcDbArc
50
60.000017080308623
51
90.000000000434795
0
LINE
5
396
100
AcDbEntity
8
0
100
AcDbLine
10
-95.069999999999965
20
138.90000000000003
30
0
11
-95.042242708111914
21
138.88397455903581
31
0
0
ARC
5
397
100
AcDbEntity
8
0
100
AcDbCircle
10
-95.163638000000006
20
138.30454
30
0
40
0.5920140006160004
210
-0
220
0
230
1
100
AcDbArc
50
-35.182236034054412
51
78.167306130840032
0
LINE
5
398
100
AcDbEntity
8
0
100
AcDbLine
10
-94.679770999999761
20
137.96343399999984
30
0
11
-94.792395999999997
21
137.850809
31
0
0
ARC
5
399
100
AcDbEntity
8
0
100
AcDbCircle
10
-94.615618999999995
20
137.67403200000001
30
0
40
0.25000043091561791
210
0
220
0
230
1
100
AcDbArc
50
135.0000000000023
51
193.4700441816866
0
ARC
5
400
100
AcDbEntity
8
0
100
AcDbCircle
10
-97.776218
20
136.91698700000001
30
0
40
2.9999992255979961
210
-0
220
0
230
1
100
AcDbArc
50
-68.405409860021081
51
13.470040226396213
0
LINE
5
401
100
AcDbEntity
8
0
100
AcDbLine
10
-96.672108000000009
20
134.12755400000009
30
0
11
-107.54919326957312
21
129.82219868104883
31
0
0
CIRCLE
5
402
100
AcDbEntity
8
0
100
AcDbCircle
10
-102.401218
20
138.19198700000001
30
0
40
2.7999999999999998
210
-0
220
0
230
1
0
CIRCLE
5
403
100
AcDbEntity
8
0
100
AcDbCircle
10
-158.78084699999999
20
137.85575600000001
30
0
40
2.7999999999999998
210
-0
220
0
230
1
0
CIRCLE
5
404
100
AcDbEntity
8
0
100
AcDbCircle
10
-141.16234900000001
20
138.19198700000001
30
0
40
2.7999999999999998
210
-0
220
0
230
1
0
LWPOLYLINE
5
405
100
AcDbEntity
8
0
100
AcDbPolyline
90
12
70
1
43
0.0
10
-128.28178299999999
20
129.15518700000001
42
-0.41421356237307422
10
-128.78178399999999
20
129.65518599999999
10
-128.78178399999999
20
142.65518499999999
42
-0.41421356237310542
10
-128.28178399999999
20
143.15518700000001
10
-115.28178500000001
20
143.15518600000001
42
-0.4142135623730846
10
-114.78178400000002
20
142.65518700000001
10
-114.78178299999999
20
129.65518499999999
42
-0.41421356237310542
10
-115.28178400000002
20
129.15518599999999
10
-115.76791800000001
20
129.15518599999999
10
-115.781784
20
129.15509
10
-127.78178400000002
20
129.15509
10
-127.795649
20
129.15518599999999
0
LWPOLYLINE
5
406
100
AcDbEntity
8
0
100
AcDbPolyline
90
12
70
1
43
0.0
10
-260.03803300000004
20
129.65518700000001
42
-0.41421356237309503
10
-260.53803399999998
20
129.15518600000001
10
-261.02416800000003
20
129.15518599999999
10
-261.03803399999998
20
129.15509
10
-273.03803399999998
20
129.15509
10
-273.05189900000005
20
129.15518599999999
10
-273.53803399999998
20
129.15518599999999
42
-0.41421356237309503
10
-274.03803400000004
20
129.65518599999999
10
-274.03803400000004
20
142.65518700000001
42
-0.41421356237309503
10
-273.53803399999998
20
143.15518700000001
10
-260.53803500000004
20
143.15518600000001
42
-0.41421356237309503
10
-260.03803399999998
20
142.65518700000001
0
LWPOLYLINE
5
407
100
AcDbEntity
8
0
100
AcDbPolyline
90
12
70
1
43
0.0
10
-241.98803400000003
20
129.15509
10
-241.97416799999999
20
129.15518599999999
10
-241.48803400000003
20
129.15518600000001
42
0.41421356237309503
10
-240.988033
20
129.65518700000001
10
-240.98803400000003
20
142.65518700000001
42
0.41421356237307422
10
-241.488035
20
143.15518599999999
10
-254.48803400000003
20
143.15518700000001
42
0.41421356237309503
10
-254.98803500000002
20
142.65518600000001
10
-254.98803400000003
20
129.65518599999999
42
0.41421356237309503
10
-254.48803400000003
20
129.15518599999999
10
-254.00189900000001
20
129.15518599999999
10
-253.98803400000003
20
129.15509
0
LWPOLYLINE
5
408
100
AcDbEntity
8
0
100
AcDbPolyline
90
12
70
1
43
0.0
10
-223.53178400000002
20
129.15518599999999
10
-223.04564900000003
20
129.15518599999999
10
-223.03178400000002
20
129.15509
10
-211.03178400000002
20
129.15509
10
-211.01791800000001
20
129.15518599999999
10
-210.53178400000002
20
129.15518600000001
42
0.41421356237309503
10
-210.03178300000002
20
129.65518700000001
10
-210.03178399999999
20
142.65518700000001
42
0.41421356237309503
10
-210.53178400000002
20
143.15518700000001
10
-223.53178400000002
20
143.15518700000001
42
0.41421356237309503
10
-224.03178500000001
20
142.65518600000001
10
-224.03178400000002
20
129.65518599999999
42
0.41421356237309503
0
LWPOLYLINE
5
409
100
AcDbEntity
8
0
100
AcDbPolyline
90
12
70
1
43
0.0
10
-168.78178399999999
20
142.15518700000001
42
-0.41421356237309503
10
-168.28178399999999
20
141.65518700000001
10
-168.28178399999999
20
127.65518700000001
42
-0.41421356237309503
10
-168.78178399999999
20
127.15518700000001
10
-169.26791800000001
20
127.15518600000001
10
-169.28178400000002
20
127.15509
10
-174.28178400000002
20
127.15509
10
-174.295649
20
127.15518600000001
10
-174.78178500000001
20
127.15518599999999
42
-0.41421356237309503
10
-175.28178400000002
20
127.65518700000001
10
-175.28178400000002
20
141.65518700000001
42
-0.41421356237309503
10
-174.78178400000002
20
142.15518700000001
0
LWPOLYLINE
5
410
100
AcDbEntity
8
0
100
AcDbPolyline
90
12
70
1
43
0.0
10
-199.23314900000003
20
129.15518599999999
10
-199.21928399999999
20
129.15509
10
-187.21928399999999
20
129.15509
10
-187.20541800000004
20
129.15518599999999
10
-186.71928399999999
20
129.15518600000001
42
0.41421356237309503
10
-186.21928300000002
20
129.65518700000001
10
-186.21928399999999
20
142.65518700000001
42
0.41421356237311585
10
-186.71928500000004
20
143.15518599999999
10
-199.71928399999999
20
143.15518700000001
42
0.41421356237309503
10
-200.21928500000001
20
142.65518600000001
10
-200.21928400000002
20
129.65518599999999
42
0.41421356237309503
10
-199.71928399999999
20
129.15518599999999
0
LWPOLYLINE
5
411
100
AcDbEntity
8
0
100
AcDbPolyline
90
12
70
1
43
0.0
10
-293.08803399999999
20
142.65518700000001
10
-293.08803399999999
20
129.65518599999999
42
0.41421356237309503
10
-292.58803399999999
20
129.15518599999999
10
-292.101899
20
129.15518599999999
10
-292.08803399999999
20
129.15509
10
-280.08803399999999
20
129.15509
10
-280.07416799999999
20
129.15518599999999
10
-279.58803399999999
20
129.15518600000001
42
0.41421356237309503
10
-279.088033
20
129.65518700000001
10
-279.08803399999999
20
142.65518700000001
42
0.41421356237309503
10
-279.58803499999999
20
143.15518599999999
10
-292.58803399999999
20
143.15518700000001
42
0.41421356237309503
0
LWPOLYLINE
5
412
100
AcDbEntity
8
0
100
AcDbPolyline
90
12
70
1
43
0.0
10
-19.531782999999994
20
129.65518499999999
42
-0.41421356237309764
10
-20.031783999999998
20
129.15518599999999
10
-20.517918000000002
20
129.15518599999999
10
-20.531783999999998
20
129.15509
10
-32.531784000000002
20
129.15509
10
-32.545648999999997
20
129.15518599999999
10
-33.031784000000002
20
129.15518599999999
42
-0.41421356237309503
10
-33.531784000000002
20
129.65518599999999
10
-33.531784000000002
20
142.65518499999999
42
-0.41421356237310025
10
-33.031784000000002
20
143.15518700000001
10
-20.031783000000001
20
143.15518600000001
42
-0.41421356237309503
10
-19.531784000000002
20
142.65518700000001
0
LWPOLYLINE
5
413
100
AcDbEntity
8
0
100
AcDbPolyline
90
12
70
1
43
0.0
10
-21.182283000000002
20
126.10518500000001
42
-0.41421356237309503
10
-20.682284000000003
20
125.60518600000002
10
-20.682284000000006
20
111.60518500000002
42
-0.41421356237309764
10
-21.182283999999999
20
111.10518700000002
10
-21.668417999999999
20
111.105187
10
-21.682283999999999
20
111.10509
10
-26.682284000000003
20
111.10509
10
-26.696148999999998
20
111.105187
10
-27.182284000000003
20
111.10518600000003
42
-0.41421356237309503
10
-27.682283999999999
20
111.60518600000002
10
-27.68228400000001
20
125.60518600000002
42
-0.41421356237309503
10
-27.182284000000003
20
126.10518600000003
0
LWPOLYLINE
5
414
100
AcDbEntity
8
0
100
AcDbPolyline
90
10
70
1
43
0.0
10
-18.081783999999992
20
91.555186000000006
42
-0.41421356237309503
10
-18.581783999999999
20
91.055185999999992
10
-19.067917999999999
20
91.05518600000002
10
-19.095649000000002
20
91.05518600000002
10
-19.581783000000001
20
91.055185999999992
42
-0.41421356237309503
10
-20.081783000000001
20
91.555186000000006
10
-20.081783000000009
20
104.55518600000002
42
-0.41421356237309243
10
-19.581783999999999
20
105.05518700000002
10
-18.581783999999999
20
105.05518700000002
42
-0.41421356237309503
10
-18.081783999999999
20
104.555187
0
LWPOLYLINE
5
415
100
AcDbEntity
8
0
100
AcDbPolyline
90
12
70
1
43
0.0
10
-39.689399000000009
20
91.05518600000002
10
-39.675533999999999
20
91.055090000000007
10
-27.675534000000003
20
91.055090000000007
10
-27.661668000000002
20
91.05518600000002
10
-27.175533999999999
20
91.055185999999992
42
0.41421356237309503
10
-26.675533999999999
20
91.555186000000006
10
-26.675533999999999
20
104.555187
42
0.41421356237309503
10
-27.175533999999999
20
105.05518700000002
10
-40.175533999999999
20
105.05518700000002
42
0.41421356237309503
10
-40.675534000000006
20
104.555187
10
-40.675533999999999
20
91.555186000000006
42
0.41421356237309503
10
-40.175533999999999
20
91.05518600000002
0
LWPOLYLINE
5
416
100
AcDbEntity
8
0
100
AcDbPolyline
90
10
70
1
43
0.0
10
-16.686668000000001
20
72.005187000000006
10
-16.200534000000001
20
72.005187000000006
42
0.41421356237309503
10
-15.700535000000002
20
72.505185999999995
10
-15.700534000000001
20
85.505186000000009
42
0.41421356237309503
10
-16.200534000000001
20
86.005185999999995
10
-17.200534000000005
20
86.005187000000006
42
0.41421356237308982
10
-17.700534000000001
20
85.505185000000012
10
-17.700533
20
72.505185999999995
42
0.41421356237309503
10
-17.200533
20
72.005185999999995
10
-16.714399
20
72.005187000000006
0
LWPOLYLINE
5
417
100
AcDbEntity
8
0
100
AcDbPolyline
90
12
70
1
43
0.0
10
6.1619659999999987
20
66.955186999999995
10
-6.8380330000000011
20
66.955186999999995
42
0.41421356237309503
10
-7.3380340000000013
20
66.455185999999998
10
-7.3380340000000013
20
53.455187000000002
42
0.41421356237309503
10
-6.8380330000000011
20
52.955186000000005
10
-6.3518990000000013
20
52.955186000000005
10
-6.3380340000000022
20
52.955089999999998
10
5.6619659999999996
20
52.955089999999998
10
5.6758319999999998
20
52.955186000000005
10
6.1619659999999996
20
52.955186000000005
42
0.41421356237309503
10
6.6619669999999998
20
53.455187000000002
10
6.6619660000000005
20
66.455186999999995
42
0.4142135623730957
0
LWPOLYLINE
5
418
100
AcDbEntity
8
0
100
AcDbPolyline
90
12
70
1
43
0.0
10
1.3994660000000003
20
86.005185999999995
10
-11.600534
20
86.005187000000006
42
0.41421356237309503
10
-12.100535000000001
20
85.505186000000009
10
-12.100534
20
72.505185999999995
42
0.41421356237309503
10
-11.600534
20
72.005185999999995
10
-11.114399000000002
20
72.005187000000006
10
-11.100533000000002
20
72.005089999999996
10
0.89946599999999999
20
72.005089999999996
10
0.91333200000000003
20
72.005187000000006
10
1.3994660000000001
20
72.005186999999992
42
0.41421356237309859
10
1.8994660000000003
20
72.505184999999997
10
1.8994660000000003
20
85.505186000000009
42
0.41421356237309492
0
LWPOLYLINE
5
419
100
AcDbEntity
8
0
100
AcDbPolyline
90
12
70
1
43
0.0
10
-25.888034000000001
20
52.955187000000009
42
-0.41421356237309503
10
-26.388034000000001
20
53.455187000000002
10
-26.388035000000002
20
66.455185999999998
42
-0.41421356237309503
10
-25.888034000000001
20
66.955186999999995
10
-12.888033999999999
20
66.955186999999995
42
-0.41421356237309503
10
-12.388033999999999
20
66.455186999999995
10
-12.388034000000001
20
53.455185999999998
42
-0.41421356237309503
10
-12.888033999999999
20
52.955186000000005
10
-13.374167999999999
20
52.955186000000005
10
-13.388033999999999
20
52.955089999999998
10
-25.388033
20
52.955089999999998
10
-25.401899
20
52.955186000000005
0
LWPOLYLINE
5
420
100
AcDbEntity
8
0
100
AcDbPolyline
90
14
70
1
43
0.0
10
-13.981783999999999
20
91.05518600000002
10
-13.495649
20
91.05518600000002
10
-13.481783000000004
20
91.055090000000007
10
3.280716
20
91.055090000000007
10
3.2945820000000001
20
91.05518600000002
10
4.1043510000000003
20
91.05518600000002
10
4.1320819999999996
20
91.05518600000002
10
4.6182160000000003
20
91.055185999999992
42
0.41421356237309503
10
5.1182160000000012
20
91.555186000000006
10
5.1182160000000012
20
104.555187
42
0.4142135623730957
10
4.6182159999999994
20
105.05518700000002
10
-13.981783999999999
20
105.05518700000002
42
0.41421356237309503
10
-14.481783999999999
20
104.555187
10
-14.481783999999999
20
91.555186000000006
42
0.41421356237309503
0
LWPOLYLINE
5
421
100
AcDbEntity
8
0
100
AcDbPolyline
90
12
70
1
43
0.0
10
-3.3062839999999998
20
111.105186
42
-0.41421356237309503
10
-3.8062839999999998
20
111.60518600000002
10
-3.8062840000000069
20
125.60518600000002
42
-0.41421356237309503
10
-3.3062839999999998
20
126.10518600000003
10
2.6937169999999995
20
126.10518500000001
42
-0.41421356237309537
10
3.1937159999999998
20
125.60518600000002
10
3.1937159999999953
20
111.60518500000002
42
-0.41421356237309825
10
2.6937160000000002
20
111.10518700000002
10
2.2075820000000004
20
111.105187
10
2.1937160000000002
20
111.10509
10
-2.8062839999999998
20
111.10509
10
-2.8201490000000002
20
111.105187
0
LWPOLYLINE
5
422
100
AcDbEntity
8
0
100
AcDbPolyline
90
12
70
1
43
0.0
10
-18.744284
20
110.105187
42
-0.41421356237309503
10
-19.244284000000004
20
110.60518700000002
10
-19.244284000000007
20
123.605186
42
-0.41421356237309503
10
-18.744284
20
124.10518600000002
10
-5.7442839999999995
20
124.10518600000002
42
-0.41421356237309437
10
-5.2442840000000004
20
123.605186
10
-5.2442829999999931
20
110.60518600000002
42
-0.41421356237309892
10
-5.7442840000000004
20
110.105187
10
-6.2304180000000011
20
110.105187
10
-6.2442840000000022
20
110.10509
10
-18.244283000000003
20
110.10509
10
-18.258149000000003
20
110.105187
0
LWPOLYLINE
5
423
100
AcDbEntity
8
0
100
AcDbPolyline
90
12
70
1
43
0.0
10
3.7807149999999989
20
143.15518599999999
10
-9.2192840000000018
20
143.15518700000001
42
0.4142135623731022
10
-9.719284
20
142.65518499999999
10
-9.7192840000000018
20
129.65518599999999
42
0.41421356237309503
10
-9.2192840000000018
20
129.15518599999999
10
-8.7331490000000009
20
129.15518599999999
10
-8.7192830000000008
20
129.15509
10
3.280716
20
129.15509
10
3.2945820000000001
20
129.15518599999999
10
3.780716
20
129.15518599999999
42
0.41421356237309503
10
4.280716
20
129.65518599999999
10
4.280716
20
142.65518700000001
42
0.41421356237308887
0
CIRCLE
5
424
100
AcDbEntity
8
0
100
AcDbCircle
10
-133.68000000000001
20
147.78999999999999
30
0
40
1.1000000000000001
210
-0
220
0
230
1
0
CIRCLE
5
425
100
AcDbEntity
8
0
100
AcDbCircle
10
-231.03000000000003
20
147.78999999999999
30
0
40
1.1000000000000001
210
-0
220
0
230
1
0
CIRCLE
5
426
100
AcDbEntity
8
0
100
AcDbCircle
10
-36.340000000000003
20
147.78
30
0
40
1.1000000000000001
210
-0
220
0
230
1
0
CIRCLE
5
427
100
AcDbEntity
8
0
100
AcDbCircle
10
-286.08999999999997
20
147.77000000000001
30
0
40
1.1000000000000001
210
-0
220
0
230
1
0
ENDSEC
0
SECTION
2
OBJECTS
0
DICTIONARY
5
C
100
AcDbDictionary
3
ACAD_GROUP
350
D
3
ACAD_MLINESTYLE
350
17
0
DICTIONARY
5
D
100
AcDbDictionary
0
DICTIONARY
5
1A
330
C
100
AcDbDictionary
0
DICTIONARY
5
17
100
AcDbDictionary
0
ENDSEC
0
EOF
